<svg width="70" height="70" viewBox="0 0 70 70" fill="none" xmlns="http://www.w3.org/2000/svg">
<g clip-path="url(#clip0_598_5079)">
<path d="M21.3711 33.871V25.9678C21.3711 18.4857 27.4374 12.4194 34.9195 12.4194C42.4016 12.4194 48.4679 18.4857 48.4679 25.9678V33.871H21.3711Z" fill="#E0BDA9"/>
<path d="M30.404 59.8388H55.2427L53.1235 53.4823C52.3411 51.1362 50.3427 49.402 47.9085 48.9594L39.4362 47.4194H30.404L21.9306 48.9594C19.4975 49.402 17.498 51.1351 16.7156 53.4823L15.7266 57.977V59.8388H30.404Z" fill="#BCB7F3"/>
<path d="M30.4043 44.0322V47.4193L34.9204 51.9355L39.4366 47.4193V44.0322H30.4043Z" fill="#EDCBB7"/>
<path d="M43.9512 30.4839H45.0802C46.951 30.4839 48.4673 32.0002 48.4673 33.871C48.4673 35.7418 46.951 37.2581 45.0802 37.2581H43.9512V30.4839Z" fill="#EDCBB7"/>
<path d="M25.8872 30.4839H24.7582C22.8874 30.4839 21.3711 32.0002 21.3711 33.871C21.3711 35.7418 22.8874 37.2581 24.7582 37.2581H25.8872V30.4839Z" fill="#EDCBB7"/>
<path d="M24.7578 29.3548V36.1289C24.7578 41.7414 29.3067 46.2902 34.9191 46.2902C40.5315 46.2902 45.0804 41.7414 45.0804 36.1289V29.3548C41.4664 29.3548 37.9991 27.9186 35.443 25.3625L34.9191 24.8386L34.3952 25.3625C31.8391 27.9186 28.3718 29.3548 24.7578 29.3548Z" fill="#F6DCCD"/>
<path d="M50.7249 1.12915H66.5313C67.7789 1.12915 68.7894 2.13963 68.7894 3.38721V12.4195C68.7894 13.6671 67.7789 14.6775 66.5313 14.6775H63.1442L54.112 20.3227L55.0795 14.6775H50.7249C49.4773 14.6775 48.4668 13.6671 48.4668 12.4195V3.38721C48.4668 2.13963 49.4773 1.12915 50.7249 1.12915Z" fill="#F3B7D8"/>
<path d="M50.3499 59.8388H55.242L53.1228 53.4823C52.3404 51.1362 50.342 49.402 47.9078 48.9594L39.4355 47.4194L47.5589 51.9322C48.837 52.6423 49.6928 53.9272 49.8543 55.3814L50.3499 59.8388Z" fill="#B6B1ED"/>
<path d="M25.8865 55.8702L21.8378 59.5316C20.956 60.4134 19.5267 60.4134 18.6449 59.5316L10.5475 51.4342C9.66572 50.5524 9.66572 49.1231 10.5475 48.2413L14.2089 44.5799L7.43475 37.8057L3.19298 42.0474C0.547654 44.6928 0.547654 48.982 3.19298 51.6273L18.4518 66.8861C21.0972 69.5315 25.3864 69.5315 28.0317 66.8861L32.6607 62.6444L25.8865 55.8702Z" fill="#FFD335"/>
<path d="M54.1943 53.1254C53.2809 50.3875 50.9506 48.3666 48.1099 47.8495L40.5646 46.4766V45.8917C41.8777 45.1296 43.0203 44.1101 43.9303 42.9032H46.2098C48.0772 42.9032 49.5969 41.3835 49.5969 39.5161V25.9677C49.5969 17.8748 43.0124 11.2903 34.9194 11.2903C26.8265 11.2903 20.242 17.8748 20.242 25.9677V33.8709C20.242 36.0477 21.7899 37.8688 23.8425 38.2933C24.4759 41.5382 26.5036 44.284 29.2743 45.8917V46.4766L21.7278 47.8495C18.8883 48.3666 16.5569 50.3875 15.6446 53.1254L15.193 54.4814L11.3475 50.6359C10.9072 50.1956 10.9072 49.4787 11.3475 49.0383L15.8072 44.5798L7.43655 36.2092L2.39655 41.2492C0.903967 42.7417 0.0820312 44.7266 0.0820312 46.8379C0.0820312 48.9492 0.903967 50.9329 2.39655 52.4254L17.6554 67.6843C19.148 69.1769 21.1328 70 23.2441 70C25.3554 70 27.3391 69.1769 28.7967 67.7182L34.2962 62.6793L32.5812 60.9677H56.808L54.1943 53.1254ZM34.9194 50.339L31.5324 46.9519V46.8988C32.6027 47.2353 33.7396 47.4193 34.9194 47.4193C36.0993 47.4193 37.2362 47.2353 38.3065 46.8988V46.9519L34.9194 50.339ZM46.2098 40.6451H45.2603C45.5877 39.8988 45.8361 39.1119 45.9964 38.2933C46.4796 38.1929 46.9245 38.0009 47.3388 37.7593V39.5161C47.3388 40.1393 46.8319 40.6451 46.2098 40.6451ZM46.2098 31.9267C46.8815 32.3185 47.3388 33.0388 47.3388 33.8709C47.3388 34.703 46.8815 35.4233 46.2098 35.8151V31.9267ZM22.5001 33.8709C22.5001 33.0388 22.9574 32.3185 23.6291 31.9267V35.8151C22.9574 35.4233 22.5001 34.703 22.5001 33.8709ZM23.6291 28.2258V29.5151C23.2272 29.6201 22.8501 29.7782 22.5001 29.9825V25.9677C22.5001 19.1201 28.0719 13.5483 34.9194 13.5483C41.767 13.5483 47.3388 19.1201 47.3388 25.9677V29.9825C46.9888 29.7782 46.6117 29.619 46.2098 29.5151V28.2258H45.0807C41.7422 28.2258 38.6035 26.9251 36.2415 24.5643L34.9194 23.2422L33.5974 24.5643C31.2354 26.9251 28.0967 28.2258 24.7582 28.2258H23.6291ZM25.8872 36.129V30.4409C29.2777 30.1858 32.439 28.7869 34.9194 26.4283C37.3999 28.7869 40.5612 30.1869 43.9517 30.4409V36.129C43.9517 37.7751 43.5024 39.3151 42.7301 40.6451H34.9194V42.9032H40.874C39.282 44.3043 37.2012 45.1613 34.9194 45.1613C29.9393 45.1613 25.8872 41.1092 25.8872 36.129ZM12.6132 44.5798L11.387 45.8059L6.20929 40.6282L7.43542 39.4021L12.6132 44.5798ZM23.2419 67.7419C21.7346 67.7419 20.3165 67.1537 19.2496 66.0879L3.99074 50.8301C2.92493 49.7643 2.33784 48.3463 2.33784 46.839C2.33784 45.3306 2.92493 43.9125 3.99074 42.8467L4.61171 42.2258L9.78945 47.4035L9.74881 47.4442C8.42897 48.7651 8.42897 50.9137 9.74881 52.2346L17.8451 60.3309C18.4853 60.97 19.3354 61.3233 20.2409 61.3233C21.1464 61.3233 21.9965 60.9711 22.5949 60.3704L22.6796 60.2948L27.8811 65.4963L27.233 66.0901C26.1672 67.1537 24.7491 67.7419 23.2419 67.7419ZM29.5475 63.9675L24.3574 58.7774L25.8488 57.4293L31.0299 62.6104L29.5475 63.9675ZM30.3232 58.7096L25.9256 54.3121L21.0391 58.7322C20.6135 59.1601 19.8695 59.1601 19.4427 58.7322L16.9769 56.2664L17.7853 53.839C18.4367 51.8835 20.102 50.4395 22.1309 50.0692L30.0228 48.6353L34.9194 53.5319L39.8149 48.6364L47.7057 50.0703C49.7346 50.4406 51.3999 51.8835 52.0514 53.8401L53.6761 58.7096H30.3232Z" fill="#7E739C"/>
<path d="M66.5314 0H50.725C48.8576 0 47.3379 1.51968 47.3379 3.3871V12.4194C47.3379 14.2868 48.8576 15.8065 50.725 15.8065H53.7406L52.5732 22.6156L63.4684 15.8065H66.5314C68.3989 15.8065 69.9185 14.2868 69.9185 12.4194V3.3871C69.9185 1.51968 68.3989 0 66.5314 0ZM67.6605 12.4194C67.6605 13.0415 67.1535 13.5484 66.5314 13.5484H62.8203L55.6498 18.0295L56.4187 13.5484H50.725C50.1029 13.5484 49.596 13.0415 49.596 12.4194V3.3871C49.596 2.765 50.1029 2.25806 50.725 2.25806H66.5314C67.1535 2.25806 67.6605 2.765 67.6605 3.3871V12.4194Z" fill="#7E739C"/>
<path d="M65.4039 4.51611H51.8555V6.77418H65.4039V4.51611Z" fill="#7E739C"/>
<path d="M60.8877 9.03223H51.8555V11.2903H60.8877V9.03223Z" fill="#7E739C"/>
<path d="M65.4026 9.03223H63.1445V11.2903H65.4026V9.03223Z" fill="#7E739C"/>
<path d="M10.6614 28.0645L9.49959 26.1282L6.43992 27.964C9.6396 14.9429 21.3488 5.64527 34.9186 5.64527C37.8846 5.64527 40.811 6.08559 43.6167 6.95495L44.2851 4.7985C41.2627 3.8614 38.1115 3.38721 34.9186 3.38721C20.1667 3.38721 7.45943 13.5914 4.15588 27.8251L2.01637 24.2585L0.0800781 25.4203L4.04863 32.033L10.6614 28.0645Z" fill="#7E739C"/>
<path d="M58.7901 27.6444L60.7264 28.8062L62.7022 25.5128C63.742 28.5555 64.2738 31.7383 64.2738 35C64.2738 41.7144 61.948 48.2786 57.7266 53.4823L59.4799 54.9049C64.0277 49.3004 66.5319 42.2304 66.5319 35C66.5319 31.5463 65.9753 28.1739 64.8903 24.9449L68.2085 26.9354L69.3703 24.9991L62.7575 21.0305L58.7901 27.6444Z" fill="#7E739C"/>
</g>
<defs>
<clipPath id="clip0_598_5079">
<rect width="70" height="70" fill="white"/>
</clipPath>
</defs>
</svg>
