<svg width="70" height="70" viewBox="0 0 70 70" fill="none" xmlns="http://www.w3.org/2000/svg">
<g clip-path="url(#clip0_598_4601)">
<path d="M13.4795 56.6671H10.7162C9.58551 56.6671 8.66895 55.7505 8.66895 54.6198V3.07262C8.66895 1.94195 9.58551 1.02539 10.7162 1.02539H53.7079C54.8601 1.02539 55.7941 1.95932 55.7941 3.11145V11.3471L13.4795 56.6671Z" fill="#62F4AE"/>
<path d="M61.3311 16.8834V59.4043C61.3311 60.535 60.415 61.4523 59.2844 61.4523H15.5275C14.3969 61.4523 13.4795 60.535 13.4795 59.4043V7.85723C13.4795 6.72656 14.3969 5.81055 15.5275 5.81055H50.2568L61.3297 16.882L61.3311 16.8834Z" fill="#FFD335"/>
<path d="M61.3311 16.8834V59.4043C61.3311 60.535 60.415 61.4523 59.2844 61.4523H15.5275C14.3969 61.4523 13.4795 60.535 13.4795 59.4043V57.6912H55.7297C56.8604 57.6912 57.7764 56.7738 57.7764 55.6432V16.8834L57.775 16.882L49.4365 5.81055H50.2568L61.3297 16.882L61.3311 16.8834Z" fill="#E4BD33"/>
<path d="M61.3297 16.882H50.2568V5.81055L61.3297 16.882Z" fill="#FFD335"/>
<path d="M49.2852 57.1226C49.2852 63.6687 43.9777 68.9747 37.4316 68.9747C36.8041 68.9747 36.1875 68.9255 35.5859 68.8312C29.9148 67.9452 25.5781 63.0411 25.5781 57.1226C25.5781 51.2026 29.9148 46.2985 35.5859 45.4126C36.1875 45.3183 36.8041 45.269 37.4316 45.269C43.9777 45.269 49.2852 50.5751 49.2852 57.1226Z" fill="#62F4AE"/>
<path d="M62.0561 16.1588L56.8194 10.9223V3.11145C56.8194 1.39576 55.4236 0 53.7078 0H10.7162C9.02195 0 7.64355 1.3784 7.64355 3.07262V54.6198C7.64355 56.314 9.02195 57.6924 10.7162 57.6924H12.4541V59.4047C12.4541 61.0989 13.8325 62.4773 15.5269 62.4773H22.1923C22.7586 62.4773 23.2177 62.0184 23.2177 61.4519C23.2177 60.8855 22.7586 60.4265 22.1923 60.4265H15.5269C14.9633 60.4265 14.5049 59.9681 14.5049 59.4047V18.178C14.5049 17.6116 14.0458 17.1526 13.4795 17.1526C12.9132 17.1526 12.4541 17.6116 12.4541 18.178V55.6417H10.7162C10.1528 55.6417 9.69434 55.1832 9.69434 54.6198V3.07262C9.69434 2.5092 10.1528 2.05078 10.7162 2.05078H53.7079C54.2928 2.05078 54.7687 2.52656 54.7687 3.11145V8.87168L50.982 5.08525C50.7897 4.89303 50.5289 4.78502 50.257 4.78502H15.5269C13.8325 4.78502 12.4541 6.16342 12.4541 7.85764V13.4047C12.4541 13.9712 12.9132 14.4301 13.4795 14.4301C14.0458 14.4301 14.5049 13.9712 14.5049 13.4047V7.8575C14.5049 7.29408 14.9633 6.83566 15.5269 6.83566H49.2315V16.882C49.2315 17.4483 49.6904 17.9073 50.2567 17.9074L60.3057 17.9091V59.4046C60.3057 59.968 59.8473 60.4264 59.2839 60.4264H52.6981C52.1318 60.4264 51.6727 60.8854 51.6727 61.4518C51.6727 62.0182 52.1318 62.4772 52.6981 62.4772H59.2839C60.9781 62.4772 62.3565 61.0988 62.3565 59.4046V16.8839C62.3565 16.612 62.2485 16.3513 62.0561 16.1588ZM51.2823 15.8568V8.2857L58.8551 15.8581L51.2823 15.8568Z" fill="#747482"/>
<path d="M49.6964 23.988H25.166C24.5997 23.988 24.1406 24.447 24.1406 25.0134C24.1406 25.5799 24.5997 26.0388 25.166 26.0388H49.6964C50.2627 26.0388 50.7218 25.5799 50.7218 25.0134C50.7218 24.447 50.2627 23.988 49.6964 23.988Z" fill="#747482"/>
<path d="M49.6964 30.0354H25.166C24.5997 30.0354 24.1406 30.4944 24.1406 31.0608C24.1406 31.6272 24.5997 32.0862 25.166 32.0862H49.6964C50.2627 32.0862 50.7218 31.6272 50.7218 31.0608C50.7218 30.4944 50.2627 30.0354 49.6964 30.0354Z" fill="#747482"/>
<path d="M49.6959 36.2034H44.8496C44.2833 36.2034 43.8242 36.6623 43.8242 37.2288C43.8242 37.7952 44.2833 38.2542 44.8496 38.2542H49.6959C50.2622 38.2542 50.7213 37.7952 50.7213 37.2288C50.7213 36.6623 50.2622 36.2034 49.6959 36.2034Z" fill="#747482"/>
<path d="M40.0243 38.2542C40.5906 38.2542 41.0497 37.7952 41.0497 37.2288C41.0497 36.6623 40.5906 36.2034 40.0243 36.2034H25.166C24.5997 36.2034 24.1406 36.6623 24.1406 37.2288C24.1406 37.7952 24.5997 38.2542 25.166 38.2542H40.0243Z" fill="#747482"/>
<path d="M41.1901 58.107L38.4566 60.8404V50.9275C38.4566 50.3611 37.9975 49.9021 37.4312 49.9021C36.8649 49.9021 36.4058 50.3611 36.4058 50.9275V60.8404L33.6723 58.107C33.2718 57.7067 32.6225 57.7066 32.2222 58.1071C31.8218 58.5076 31.8218 59.1569 32.2222 59.5572L36.7062 64.041C36.9063 64.2412 37.1688 64.3412 37.4312 64.3412C37.6936 64.3412 37.9561 64.2412 38.1562 64.041L42.6402 59.5572C43.0406 59.1567 43.0406 58.5075 42.6402 58.1071C42.2399 57.7066 41.5906 57.7067 41.1901 58.107Z" fill="#747482"/>
<path d="M37.4305 44.2437C30.3292 44.2437 24.5518 50.0208 24.5518 57.1219C24.5518 64.2228 30.3292 70 37.4305 70C44.5318 70 50.3093 64.2228 50.3093 57.1219C50.3093 50.0208 44.5318 44.2437 37.4305 44.2437ZM37.4305 67.9493C31.46 67.9493 26.6025 63.0922 26.6025 57.122C26.6025 51.1518 31.46 46.2946 37.4305 46.2946C43.401 46.2946 48.2585 51.1518 48.2585 57.122C48.2585 63.0922 43.401 67.9493 37.4305 67.9493Z" fill="#747482"/>
</g>
<defs>
<clipPath id="clip0_598_4601">
<rect width="70" height="70" fill="white"/>
</clipPath>
</defs>
</svg>
