<svg width="70" height="70" viewBox="0 0 70 70" fill="none" xmlns="http://www.w3.org/2000/svg">
<path opacity="0.8" d="M5.69824 7.32544H64.3029V43.9534H5.69824V7.32544Z" fill="#FFAEE4" fill-opacity="0.83"/>
<path d="M26.5508 19.8515V30.1492C26.5508 31.6657 28.1469 32.6522 29.5033 31.9741L39.8009 26.8253C41.3046 26.0735 41.3046 23.9275 39.8009 23.1757L29.5033 18.0269C28.1469 17.3485 26.5508 18.335 26.5508 19.8515Z" fill="#FFD335"/>
<path d="M44.1434 26.3863L44.1433 26.3864L27.2439 34.8365C27.2437 34.8365 27.2436 34.8366 27.2435 34.8366C27.0241 34.9462 26.7868 35.0004 26.5503 35.0004C26.2669 35.0004 25.9844 34.9227 25.7349 34.7686C25.2781 34.4866 25 33.9879 25 33.4498V16.55C25 16.0124 25.2783 15.5136 25.7351 15.2313L25.7353 15.2312C26.192 14.9489 26.7626 14.923 27.2435 15.1635L44.1433 23.6134L44.1434 23.6134C44.6685 23.8759 45.0003 24.4126 45.0003 24.9999C45.0003 25.5872 44.6685 26.1239 44.1434 26.3863ZM29.5478 19.7823L28.1005 19.0586V20.6767V29.3238V30.9418L29.5478 30.2182L38.1945 25.8946L39.9833 25.0002L38.1945 24.1058L29.5478 19.7823Z" fill="#FFD335" stroke="#7E739C" stroke-width="2"/>
<path d="M27.0555 32.9448L26.4443 16.4443L42.3337 25.0001L27.0555 32.9448Z" fill="#FFD335"/>
<path d="M68.8333 45.5001H1.16667C0.522667 45.5001 0 44.9774 0 44.3334V5.83458C0 3.26091 2.09417 1.16675 4.66783 1.16675H65.3322C67.9058 1.16675 70 3.26091 70 5.83458V44.3334C70 44.9774 69.4773 45.5001 68.8333 45.5001V45.5001ZM2.33333 43.1668H67.6667V5.83458C67.6667 4.54658 66.6202 3.50008 65.3322 3.50008H4.66783C3.37983 3.50008 2.33333 4.54658 2.33333 5.83458V43.1668Z" fill="#7E739C"/>
<path d="M65.3322 54.8334H4.66783C2.09417 54.8334 0 52.7392 0 50.1656V44.3334C0 43.6894 0.522667 43.1667 1.16667 43.1667H68.8333C69.4773 43.1667 70 43.6894 70 44.3334V50.1656C70 52.7392 67.9058 54.8334 65.3322 54.8334V54.8334ZM2.33333 45.5001V50.1656C2.33333 51.4536 3.37983 52.5001 4.66783 52.5001H65.3322C66.6202 52.5001 67.6667 51.4536 67.6667 50.1656V45.5001H2.33333Z" fill="#7E739C"/>
<path d="M38.5007 50.1668H31.5007C30.8567 50.1668 30.334 49.6442 30.334 49.0002C30.334 48.3562 30.8567 47.8335 31.5007 47.8335H38.5007C39.1447 47.8335 39.6673 48.3562 39.6673 49.0002C39.6673 49.6442 39.1447 50.1668 38.5007 50.1668Z" fill="#7E739C"/>
<path d="M50.1663 68.8335H19.833C17.9033 68.8335 16.333 67.2632 16.333 65.3335C16.333 63.4038 17.9033 61.8335 19.833 61.8335H50.1663C52.096 61.8335 53.6663 63.4038 53.6663 65.3335C53.6663 67.2632 52.096 68.8335 50.1663 68.8335ZM19.833 64.1668C19.1902 64.1668 18.6663 64.6907 18.6663 65.3335C18.6663 65.9763 19.1902 66.5002 19.833 66.5002H50.1663C50.8092 66.5002 51.333 65.9763 51.333 65.3335C51.333 64.6907 50.8092 64.1668 50.1663 64.1668H19.833Z" fill="#7E739C"/>
<path d="M47.8333 64.1667H22.1667C21.5227 64.1667 21 63.644 21 63C21 62.356 21.5227 61.8333 22.1667 61.8333C26.0377 61.8333 28 59.0858 28 53.6667C28 53.0227 28.5227 52.5 29.1667 52.5H40.8333C41.4773 52.5 42 53.0227 42 53.6667C42 59.0858 43.9623 61.8333 47.8333 61.8333C48.4773 61.8333 49 62.356 49 63C49 63.644 48.4773 64.1667 47.8333 64.1667ZM27.8495 61.8333H42.1517C40.7143 60.242 39.8685 57.8725 39.6993 54.8333H30.3018C30.1315 57.8725 29.2868 60.242 27.8495 61.8333Z" fill="#7E739C"/>
</svg>
