<svg width="70" height="70" viewBox="0 0 70 70" fill="none" xmlns="http://www.w3.org/2000/svg">
<g clip-path="url(#clip0_598_5751)">
<path d="M1.19782 68.004L1.19783 68.004C2.27382 64.6246 6.06553 62.0381 10.6863 62.0381C15.3018 62.0381 19.0971 64.6245 20.1742 68.0037L20.1742 68.0038C20.4102 68.7436 19.8588 69.4985 19.0849 69.4985H2.28751C1.51372 69.4985 0.962275 68.7437 1.19782 68.004Z" fill="#FFB78E" stroke="#747482"/>
<path d="M13.3882 59.4553C13.202 59.7053 12.9009 59.8542 12.5773 59.8542H8.79568C8.47213 59.8542 8.17102 59.7053 7.98481 59.4553C6.98674 58.1151 6.35938 56.2988 6.35938 54.9408C6.35938 52.5477 8.3001 50.6135 10.6865 50.6135C13.0729 50.6135 15.0138 52.5477 15.0138 54.9408C15.0138 56.2989 14.3864 58.1151 13.3882 59.4553Z" fill="#F6DCCD" stroke="#747482"/>
<path d="M24.8697 68.004L24.8697 68.004C25.9457 64.6246 29.7374 62.0381 34.3582 62.0381C38.9737 62.0381 42.7689 64.6245 43.8461 68.0037L43.8461 68.0038C44.082 68.7435 43.5306 69.4985 42.7566 69.4985H25.9594C25.1856 69.4985 24.6341 68.7437 24.8697 68.004Z" fill="#FFD335" stroke="#747482"/>
<path d="M37.0601 59.4553C36.8739 59.7053 36.5728 59.8542 36.2492 59.8542H32.4676C32.144 59.8542 31.8429 59.7053 31.6567 59.4553C30.6586 58.1151 30.0312 56.2988 30.0312 54.9408C30.0312 52.5477 31.972 50.6135 34.3584 50.6135C36.7448 50.6135 38.6856 52.5477 38.6856 54.9408C38.6856 56.2989 38.0583 58.1151 37.0601 59.4553Z" fill="#F6DCCD" stroke="#747482"/>
<path d="M48.5435 68.004L48.5435 68.004C49.6195 64.6246 53.4112 62.0381 58.032 62.0381C62.6475 62.0381 66.4428 64.6245 67.5199 68.0037L67.52 68.0038C67.7559 68.7435 67.2044 69.4985 66.4305 69.4985H49.6332C48.8594 69.4985 48.308 68.7437 48.5435 68.004Z" fill="#FFB78E" stroke="#747482"/>
<path d="M60.7339 59.4553C60.5477 59.7053 60.2466 59.8542 59.923 59.8542H56.1414C55.8178 59.8542 55.5167 59.7053 55.3305 59.4553C54.3324 58.1151 53.7051 56.2988 53.7051 54.9408C53.7051 52.5477 55.6459 50.6135 58.0322 50.6135C60.4186 50.6135 62.3595 52.5477 62.3595 54.9408C62.3595 56.2989 61.7321 58.1151 60.7339 59.4553Z" fill="#F6DCCD" stroke="#747482"/>
<path d="M63.6825 41.8028V10.6501C63.6825 9.27181 62.5652 8.15454 61.187 8.15454H7.53264C6.15438 8.15454 5.03711 9.27181 5.03711 10.6501V41.8028C5.03711 43.1811 6.15438 44.2983 7.53264 44.2983H61.187C62.5652 44.2983 63.6825 43.1811 63.6825 41.8028Z" fill="#747482"/>
<path d="M7.5332 10.6501H61.1875V41.8027H7.5332V10.6501Z" fill="white"/>
<g opacity="0.4">
<path d="M12.6584 19.3498V14.4613C12.6584 13.7347 12.0694 13.1458 11.3429 13.1458C10.6163 13.1458 10.0273 13.7347 10.0273 14.4613V19.3498C10.0273 20.0763 10.6163 20.6653 11.3429 20.6653C12.0694 20.6653 12.6584 20.0763 12.6584 19.3498Z" fill="white"/>
</g>
<g opacity="0.08">
<path d="M56.502 10.6501H61.1873V41.8008H56.502V10.6501Z" fill="white"/>
</g>
<path d="M39.4237 26.4933L38.2208 25.9388V22.1147H30.5009V25.9388L29.293 26.4599L29.6145 37.3042H30.5009V38.967H38.2208V37.3042H39.102L39.4237 26.4933Z" fill="#F2B816"/>
<path d="M44.1625 41.8028C44.1447 36.4801 43.5227 29.5626 40.6189 27.1567C40.2857 26.8809 39.9257 26.6665 39.5314 26.5171L39.3745 27.0991C39.3285 27.2484 39.2673 27.4246 39.1946 27.6122C38.7695 28.6998 37.8696 30.3082 36.1196 31.0012C36.089 31.0165 36.0545 31.028 36.0201 31.0433C35.507 31.231 34.925 31.342 34.2624 31.342C33.6574 31.342 33.1251 31.2502 32.6541 31.0894C32.6502 31.0894 32.6464 31.0855 32.6426 31.0817C30.9423 30.5034 30.0501 29.0521 29.6021 27.9417C29.5523 27.823 29.5102 27.708 29.4719 27.597L29.1847 26.5172C28.7903 26.6665 28.4303 26.881 28.0971 27.1568C25.1728 29.5585 24.4453 36.4786 24.3438 41.8029H44.1625V41.8028Z" fill="white"/>
<path d="M36.2145 30.9901L35.4946 32.5714H33.2429L32.5 30.9901L34.3573 29.2935L36.2145 30.9901Z" fill="#FFB78E"/>
<path d="M30.4559 25.6895L34.3583 29.295L31.9829 31.7976L27.9277 26.9451L30.4559 25.6895Z" fill="#E5E3E5"/>
<path d="M40.788 26.9536L36.7328 31.7892L34.3574 29.295L37.3013 26.5717L38.2599 25.6895C38.2598 25.6895 40.788 26.9451 40.788 26.9536Z" fill="#E5E3E5"/>
<path d="M35.7778 41.8028L35.7681 41.4823L35.4962 32.5713H33.2446L32.9651 41.5436L32.957 41.8028H35.7778Z" fill="#FFB78E"/>
<path d="M48.4691 30.4855L48.4691 30.4855C51.2152 31.6984 52.9851 34.412 52.9851 37.4135V41.3027H36.3261L39.2428 29.4978L39.2428 29.4977L39.6792 27.7327L39.6793 27.7324L39.8823 26.9131C42.7939 28.0248 45.9499 29.3727 48.4691 30.4855Z" fill="#FFD335" stroke="#747482"/>
<g opacity="0.08">
<path d="M53.4892 37.4137V41.7997H50.2994V37.4137C50.2994 34.2155 48.4161 31.3225 45.4892 30.0245C43.6398 29.21 41.4426 28.2683 39.2539 27.3776L39.517 26.3172L39.5339 26.2493C42.5965 27.3946 45.9984 28.8453 48.6707 30.0245C51.5974 31.3225 53.4892 34.2155 53.4892 37.4137Z" fill="black"/>
</g>
<path d="M20.2465 30.4855C22.7657 29.3728 25.9215 28.0249 28.8329 26.9132L29.1167 28.0617L29.1168 28.0621L29.4728 29.4977L29.4729 29.4981L32.3897 41.3029H15.7305V37.4135C15.7305 34.412 17.5004 31.6984 20.2465 30.4855Z" fill="#FFD335" stroke="#747482"/>
<path d="M37.4499 41.8027L41.5196 34.6033C41.6835 34.3132 41.6625 33.9539 41.4657 33.6848L40.8286 32.814C40.563 32.4509 40.627 31.9437 40.9744 31.6579L41.9017 30.8952C42.0898 30.7404 42.2024 30.5124 42.2106 30.2689L42.3049 27.5006C42.3161 27.1725 42.137 26.8675 41.8451 26.7173L40.0612 25.7998C39.5641 25.5442 38.9601 25.8307 38.8435 26.3773L35.5547 41.8029H37.4499V41.8027Z" fill="#747482"/>
<path d="M26.8158 30.8951L27.7432 31.6579C28.0906 31.9436 28.1545 32.4508 27.8889 32.8139L27.2518 33.6847C27.055 33.9536 27.034 34.3129 27.1979 34.6032L31.2676 41.8027H33.1628L29.8741 26.3771C29.7574 25.8304 29.1533 25.5439 28.6563 25.7996L26.8724 26.7171C26.5805 26.8672 26.4014 27.1723 26.4126 27.5004L26.5069 30.2687C26.5153 30.5123 26.6278 30.7405 26.8158 30.8951Z" fill="#747482"/>
<path d="M43.4617 8.96936L43.2674 12.569H25.5844L25.3906 9.04457C25.3982 4.02583 29.5811 0.501465 34.4262 0.501465C39.2741 0.501465 43.4542 4.02849 43.4617 8.96936Z" fill="#DAAA7A" stroke="#747482"/>
<g opacity="0.08">
<path d="M43.9607 8.98542L43.7402 13.0661H41.3733L41.5939 8.98542C41.5939 4.13286 37.8188 0.595127 33.2461 0.0691699C33.6278 0.0267871 34.0266 0.0012207 34.4253 0.0012207C39.5069 0.00135742 43.9607 3.7171 43.9607 8.98542Z" fill="black"/>
</g>
<mask id="path-24-inside-1_598_5751" fill="white">
<path d="M42.8489 12.2841L42.7953 12.1803C42.0624 10.7613 40.4866 10.0657 38.9106 10.3247C34.7898 11.0022 34.1972 6.10847 28.5253 8.86198C27.8533 9.18819 27.3149 9.74108 26.9718 10.4047L26.0015 12.2808C25.7529 12.3407 25.5288 12.4547 25.3415 12.615C24.9941 12.911 24.7754 13.3485 24.7754 13.8406V15.5132C24.7754 16.3976 25.4876 17.115 26.3738 17.1206C26.3738 21.3154 31.414 25.292 34.4254 25.292C37.4368 25.292 42.477 21.3161 42.477 17.1212C43.36 17.1149 44.0741 16.3983 44.0741 15.5139V13.8413C44.0738 13.0859 43.5511 12.4567 42.8489 12.2841Z"/>
</mask>
<path d="M42.8489 12.2841L42.7953 12.1803C42.0624 10.7613 40.4866 10.0657 38.9106 10.3247C34.7898 11.0022 34.1972 6.10847 28.5253 8.86198C27.8533 9.18819 27.3149 9.74108 26.9718 10.4047L26.0015 12.2808C25.7529 12.3407 25.5288 12.4547 25.3415 12.615C24.9941 12.911 24.7754 13.3485 24.7754 13.8406V15.5132C24.7754 16.3976 25.4876 17.115 26.3738 17.1206C26.3738 21.3154 31.414 25.292 34.4254 25.292C37.4368 25.292 42.477 21.3161 42.477 17.1212C43.36 17.1149 44.0741 16.3983 44.0741 15.5139V13.8413C44.0738 13.0859 43.5511 12.4567 42.8489 12.2841Z" fill="#F6DCCD"/>
<path d="M42.8489 12.2841L41.9604 12.7429L42.1689 13.1466L42.6101 13.2551L42.8489 12.2841ZM42.7953 12.1803L43.6838 11.7214L43.6838 11.7214L42.7953 12.1803ZM38.9106 10.3247L39.0728 11.3115L39.0728 11.3115L38.9106 10.3247ZM28.5253 8.86198L28.962 9.76158L28.962 9.76158L28.5253 8.86198ZM26.9718 10.4047L27.86 10.8641L27.86 10.864L26.9718 10.4047ZM26.0015 12.2808L26.2357 13.253L26.6798 13.146L26.8897 12.7402L26.0015 12.2808ZM25.3415 12.615L25.9901 13.3762L25.9919 13.3747L25.3415 12.615ZM26.3738 17.1206H27.3738V16.1269L26.3801 16.1206L26.3738 17.1206ZM42.477 17.1212L42.4699 16.1212L41.477 16.1283V17.1212H42.477ZM44.0741 13.8413H45.0741V13.8409L44.0741 13.8413ZM43.7374 11.8252L43.6838 11.7214L41.9068 12.6392L41.9604 12.7429L43.7374 11.8252ZM43.6838 11.7214C42.7309 9.87647 40.7047 9.01636 38.7484 9.33798L39.0728 11.3115C40.2684 11.1149 41.3939 11.6461 41.9069 12.6392L43.6838 11.7214ZM38.7484 9.33798C37.135 9.60321 36.3539 8.84877 34.8007 7.94943C34.0542 7.51722 33.1644 7.10192 32.0277 7.02636C30.8926 6.95092 29.6176 7.22011 28.0886 7.96239L28.962 9.76158C30.269 9.12709 31.195 8.97543 31.895 9.02196C32.5934 9.06838 33.1727 9.31788 33.7985 9.68023C34.9898 10.37 36.5653 11.7237 39.0728 11.3115L38.7484 9.33798ZM28.0886 7.96238C27.2058 8.39093 26.5169 9.10736 26.0835 9.94539L27.86 10.864C28.113 10.3748 28.5009 9.98545 28.962 9.76158L28.0886 7.96238ZM26.0835 9.94532L25.1132 11.8214L26.8897 12.7402L27.86 10.8641L26.0835 9.94532ZM25.7673 11.3086C25.3691 11.4045 25.0015 11.5897 24.6912 11.8554L25.9919 13.3747C26.0562 13.3196 26.1368 13.2768 26.2357 13.253L25.7673 11.3086ZM24.693 11.8539C24.1321 12.3318 23.7754 13.0434 23.7754 13.8406H25.7754C25.7754 13.6537 25.8562 13.4903 25.9901 13.3762L24.693 11.8539ZM23.7754 13.8406V15.5132H25.7754V13.8406H23.7754ZM23.7754 15.5132C23.7754 16.9476 24.9316 18.1115 26.3674 18.1206L26.3801 16.1206C26.0435 16.1185 25.7754 15.8477 25.7754 15.5132H23.7754ZM25.3738 17.1206C25.3738 19.6059 26.8472 21.8951 28.5901 23.5124C30.3179 25.1156 32.5635 26.292 34.4254 26.292V24.292C33.2759 24.292 31.4958 23.4802 29.9505 22.0463C28.4205 20.6266 27.3738 18.8301 27.3738 17.1206H25.3738ZM34.4254 26.292C36.2872 26.292 38.5329 25.1158 40.2606 23.5128C42.0036 21.8956 43.477 19.6066 43.477 17.1212H41.477C41.477 18.8307 40.4304 20.6271 38.9003 22.0466C37.3551 23.4803 35.5749 24.292 34.4254 24.292V26.292ZM42.4842 18.1211C43.9151 18.1109 45.0741 16.9494 45.0741 15.5139H43.0741C43.0741 15.8473 42.8049 16.1188 42.4699 16.1212L42.4842 18.1211ZM45.0741 15.5139V13.8413H43.0741V15.5139H45.0741ZM45.0741 13.8409C45.0736 12.6096 44.2213 11.5917 43.0877 11.313L42.6101 13.2551C42.8809 13.3217 43.074 13.5622 43.0741 13.8416L45.0741 13.8409Z" fill="#747482" mask="url(#path-24-inside-1_598_5751)"/>
<path d="M41.1489 22.4873H35.1641V21.7425H41.1489C42.3477 21.7425 43.3233 20.7671 43.3233 19.5679V14.5125H44.068V19.5679C44.0679 21.1775 42.7587 22.4873 41.1489 22.4873Z" fill="#E5E3E5"/>
<path d="M44.9382 13.692V15.3325C44.9382 16.3885 44.0821 17.2447 43.0261 17.2447C42.7085 17.2447 42.4512 16.9872 42.4512 16.6698V12.3549C42.4512 12.0373 42.7086 11.78 43.0261 11.78C44.0821 11.78 44.9382 12.636 44.9382 13.692Z" fill="#5B5B5B"/>
<path d="M37.1126 22.1098C37.1126 22.9182 36.1828 23.5787 35.0377 23.5787C33.8929 23.5787 32.9629 22.9182 32.9629 22.1098C32.9629 21.3015 33.8927 20.6509 35.0377 20.6509C36.1828 20.6509 37.1126 21.3015 37.1126 22.1098Z" fill="#5B5B5B"/>
<g opacity="0.4">
<path d="M19.4618 37.5495V38.9833C19.4618 39.4846 19.0554 39.891 18.5542 39.891C18.0528 39.891 17.6465 39.4845 17.6465 38.9833V37.5495C17.6465 37.0482 18.053 36.6418 18.5542 36.6418C19.0554 36.6417 19.4618 37.0482 19.4618 37.5495Z" fill="white"/>
</g>
<path d="M47.7191 8.16649L47.7191 8.16646C47.7125 6.11896 48.8355 4.21936 50.7397 2.81096C52.6435 1.40276 55.3009 0.511744 58.2607 0.502273C61.2233 0.492803 63.8878 1.36688 65.8013 2.76289C67.7151 4.15911 68.8502 6.0515 68.8568 8.09899C68.8633 10.1486 67.7402 12.0492 65.8355 13.4581C63.931 14.8667 61.2722 15.7578 58.3095 15.7673C57.6947 15.7693 57.0922 15.7309 56.504 15.6593L56.2999 15.6344L56.1374 15.7603C53.7268 17.6273 50.7661 18.4487 47.937 18.2683C47.6489 18.2499 47.5213 17.8786 47.7869 17.6923C49.2205 16.6864 50.2103 15.3965 50.8113 14.0122L50.968 13.651L50.6538 13.4139C48.8142 12.026 47.7255 10.172 47.7191 8.16649Z" fill="#8AFEC6" stroke="#747482"/>
<path d="M65.3909 5.57912C65.3909 5.84477 65.1756 6.0601 64.9099 6.0601H51.6665C51.4009 6.0601 51.1855 5.84477 51.1855 5.57912C51.1855 5.31348 51.4009 5.09814 51.6665 5.09814H64.9099C65.1756 5.09814 65.3909 5.31348 65.3909 5.57912Z" fill="#69687A"/>
<path d="M65.3909 8.13479C65.3909 8.40043 65.1756 8.61576 64.9099 8.61576H51.6665C51.4009 8.61576 51.1855 8.40043 51.1855 8.13479C51.1855 7.86914 51.4009 7.65381 51.6665 7.65381H64.9099C65.1756 7.65395 65.3909 7.86914 65.3909 8.13479Z" fill="#69687A"/>
<path d="M61.6154 10.6907C61.6154 10.9563 61.4001 11.1717 61.1344 11.1717H51.6665C51.4009 11.1717 51.1855 10.9563 51.1855 10.6907C51.1855 10.425 51.4009 10.2097 51.6665 10.2097H61.1344C61.4001 10.2097 61.6154 10.425 61.6154 10.6907Z" fill="#69687A"/>
</g>
<defs>
<clipPath id="clip0_598_5751">
<rect width="70" height="70" fill="white"/>
</clipPath>
</defs>
</svg>
