<svg width="70" height="70" viewBox="0 0 70 70" fill="none" xmlns="http://www.w3.org/2000/svg">
<path d="M66.5328 45.7516L64.5312 43.75V39.375H42.6562V43.75L40.6547 45.7516C39.8344 46.5719 39.375 47.6875 39.375 48.8469V63.4375C39.375 65.8547 41.3328 67.8125 43.75 67.8125H63.4375C65.8547 67.8125 67.8125 65.8547 67.8125 63.4375V48.8469C67.8125 47.6875 67.3531 46.5719 66.5328 45.7516Z" fill="#E6E9ED"/>
<path d="M67.8125 33.9062V38.2812C67.8125 38.8828 67.3203 39.375 66.7188 39.375H64.5312H42.6562H40.4688C39.8672 39.375 39.375 38.8828 39.375 38.2812V33.9062C39.375 33.6 39.4953 33.3375 39.6922 33.1297C39.9 32.9328 40.1625 32.8125 40.4688 32.8125H45.9375H66.7188C67.3203 32.8125 67.8125 33.3047 67.8125 33.9062Z" fill="#BCB7F3"/>
<path d="M66.7188 7.65625L63.6562 22.9688L59.7188 19.0312L45.9375 32.8125H40.4688C40.1625 32.8125 39.9 32.9328 39.6922 33.1297L35 28.4375L24.5328 38.9047C22.4219 37.8109 20.0375 37.1875 17.5 37.1875L24.0625 30.625C26.4797 30.625 28.6672 29.6406 30.2531 28.0656C31.8281 26.4797 32.8125 24.2922 32.8125 21.875L35 19.6875L42.6562 27.3438L55.3438 14.6562L51.4062 10.7188L66.7188 7.65625Z" fill="#F3B7D8"/>
<path d="M17.5 24.0625H10.9375C8.52031 24.0625 6.33281 23.0781 4.74688 21.5031C3.17188 19.9172 2.1875 17.7297 2.1875 15.3125H8.75C11.1672 15.3125 13.3547 16.2969 14.9406 17.8719C16.5156 19.4578 17.5 21.6453 17.5 24.0625Z" fill="#8AFEC6"/>
<path d="M17.5 10.9375H10.9375C8.52031 10.9375 6.33281 9.95312 4.74688 8.37812C3.17188 6.79219 2.1875 4.60469 2.1875 2.1875H8.75C11.1672 2.1875 13.3547 3.17188 14.9406 4.74688C16.5156 6.33281 17.5 8.52031 17.5 10.9375Z" fill="#8AFEC6"/>
<path d="M26.25 8.75H32.8125C32.8125 11.1672 31.8281 13.3547 30.2531 14.9406C28.6672 16.5156 26.4797 17.5 24.0625 17.5H17.5C17.5 15.0828 18.4844 12.8953 20.0594 11.3094C21.6453 9.73438 23.8328 8.75 26.25 8.75Z" fill="#8AFEC6"/>
<path d="M26.25 21.875H32.8125C32.8125 24.2922 31.8281 26.4797 30.2531 28.0656C28.6672 29.6406 26.4797 30.625 24.0625 30.625H17.5C17.5 28.2078 18.4844 26.0203 20.0594 24.4344C21.6453 22.8594 23.8328 21.875 26.25 21.875Z" fill="#8AFEC6"/>
<path d="M59.0625 61.25H61.25C62.4531 61.25 63.4375 62.2344 63.4375 63.4375V65.625C63.4375 66.8281 62.4531 67.8125 61.25 67.8125H48.125C46.9219 67.8125 45.9375 66.8281 45.9375 65.625V63.4375C45.9375 62.2344 46.9219 61.25 48.125 61.25H50.3125H54.6875H59.0625Z" fill="#FFD335"/>
<path d="M63.4375 52.5C63.4375 53.7031 62.4531 54.6875 61.25 54.6875H59.0625H56.875H52.5H48.125C46.9219 54.6875 45.9375 53.7031 45.9375 52.5V50.3125C45.9375 49.1094 46.9219 48.125 48.125 48.125H50.3125H54.6875H59.0625H61.25C62.4531 48.125 63.4375 49.1094 63.4375 50.3125V52.5Z" fill="#FFD335"/>
<path d="M56.875 54.6875H59.0625C60.2656 54.6875 61.25 55.6719 61.25 56.875V59.0625C61.25 60.2656 60.2656 61.25 59.0625 61.25H54.6875H50.3125H48.125H45.9375C44.7344 61.25 43.75 60.2656 43.75 59.0625V56.875C43.75 55.6719 44.7344 54.6875 45.9375 54.6875H48.125H52.5H56.875Z" fill="#FFD335"/>
<path d="M24.5328 38.9047C29.4547 41.4422 32.8125 46.5828 32.8125 52.5C32.8125 60.9547 25.9547 67.8125 17.5 67.8125C9.04531 67.8125 2.1875 60.9547 2.1875 52.5C2.1875 44.0453 9.04531 37.1875 17.5 37.1875C20.0375 37.1875 22.4219 37.8109 24.5328 38.9047Z" fill="#FFD335"/>
<path d="M28.4375 52.5C28.4375 55.125 27.5078 57.5422 25.9656 59.4344L24.4344 60.9656C22.5422 62.5078 20.125 63.4375 17.5 63.4375C11.4625 63.4375 6.5625 58.5375 6.5625 52.5C6.5625 49.875 7.49219 47.4578 9.03438 45.5656L10.5656 44.0344C12.4578 42.4922 14.875 41.5625 17.5 41.5625C23.5375 41.5625 28.4375 46.4625 28.4375 52.5Z" fill="#FCD770"/>
<path d="M16.4062 55.7812C15.8025 55.7812 15.3125 55.2913 15.3125 54.6875H13.125C13.125 56.4966 14.5972 57.9688 16.4062 57.9688V60.1562H18.5938V57.9688H21.875V54.6875C21.875 52.8784 20.4028 51.4062 18.5938 51.4062H16.4062C15.8025 51.4062 15.3125 50.9162 15.3125 50.3125V49.2188H18.5938C19.1975 49.2188 19.6875 49.7088 19.6875 50.3125H21.875C21.875 48.5034 20.4028 47.0312 18.5938 47.0312V44.8438H16.4062V47.0312H13.125V50.3125C13.125 52.1216 14.5972 53.5938 16.4062 53.5938H18.5938C19.1975 53.5938 19.6875 54.0837 19.6875 54.6875V55.7812H16.4062Z" fill="#747482"/>
<path d="M17.5 62.3437C12.0717 62.3437 7.65625 57.9282 7.65625 52.4999C7.65625 50.2315 8.44813 48.0155 9.88531 46.2633L8.19328 44.8765C6.43672 47.0191 5.46875 49.7272 5.46875 52.4999C5.46875 59.1335 10.8664 64.5312 17.5 64.5312C20.2727 64.5312 22.9808 63.5632 25.1234 61.8066L23.7366 60.1146C21.9844 61.5518 19.7684 62.3437 17.5 62.3437Z" fill="#747482"/>
<path d="M9.87695 43.1933L11.2638 44.8853C13.016 43.4481 15.232 42.6562 17.5004 42.6562C22.9287 42.6562 27.3441 47.0717 27.3441 52.5C27.3441 54.7684 26.5523 56.9844 25.1151 58.7366L26.8071 60.1234C28.5637 57.9808 29.5316 55.2727 29.5316 52.5C29.5316 45.8664 24.134 40.4688 17.5004 40.4688C14.7277 40.4688 12.0196 41.4367 9.87695 43.1933Z" fill="#747482"/>
<path d="M66.7188 40.4688C67.9252 40.4688 68.9062 39.4877 68.9062 38.2812V33.9062C68.9062 32.6998 67.9252 31.7188 66.7188 31.7188H48.5778L59.7188 20.5778L64.3289 25.1869L68.1133 6.26172L49.1881 10.0461L53.7972 14.6552L42.6562 25.7972L35 18.1409L32.3597 20.7812H26.25C23.1591 20.7812 20.3995 22.2163 18.5938 24.4519V24.0625V18.5938H24.0625C29.4908 18.5938 33.9062 14.1772 33.9062 8.75V7.65625H26.25C23.1591 7.65625 20.3995 9.09125 18.5938 11.3269V10.9375C18.5938 5.51031 14.1783 1.09375 8.75 1.09375H1.09375V2.1875C1.09375 7.61469 5.50922 12.0312 10.9375 12.0312H16.4062V17.5V17.8894C14.6005 15.6538 11.8409 14.2188 8.75 14.2188H1.09375V15.3125C1.09375 20.7397 5.50922 25.1562 10.9375 25.1562H16.4062V30.625V31.7188V36.1495C7.86953 36.7161 1.09375 43.8222 1.09375 52.5C1.09375 61.5464 8.45359 68.9062 17.5 68.9062C26.5464 68.9062 33.9062 61.5464 33.9062 52.5C33.9062 46.6944 30.8667 41.5964 26.3047 38.6794L35 29.9841L38.3633 33.3473C38.3152 33.5267 38.2812 33.7116 38.2812 33.9062V38.2812C38.2812 39.4877 39.2623 40.4688 40.4688 40.4688H41.5625V43.2972L39.8836 44.9761C38.8511 46.0086 38.2812 47.3823 38.2812 48.8436V63.4375C38.2812 66.453 40.7345 68.9062 43.75 68.9062H48.125H61.25H63.4375C66.453 68.9062 68.9062 66.453 68.9062 63.4375V48.8436C68.9062 47.3823 68.3364 46.0086 67.3039 44.9761L65.625 43.2972V40.4688H66.7188ZM26.25 22.9688H31.6411C31.1095 26.6744 27.9136 29.5312 24.0625 29.5312H18.6714C19.2041 25.8256 22.3989 22.9688 26.25 22.9688ZM26.25 9.84375H31.6411C31.1095 13.5494 27.9136 16.4062 24.0625 16.4062H18.6714C19.2041 12.7006 22.3989 9.84375 26.25 9.84375ZM10.9375 9.84375C7.08641 9.84375 3.89156 6.98688 3.35891 3.28125H8.75C12.6011 3.28125 15.7959 6.13812 16.3286 9.84375H10.9375ZM10.9375 22.9688C7.08641 22.9688 3.89156 20.1119 3.35891 16.4062H8.75C12.6011 16.4062 15.7959 19.2631 16.3286 22.9688H10.9375ZM21.4222 31.7188L18.5938 34.5472V31.7188H21.4222ZM31.7188 52.5C31.7188 60.34 25.34 66.7188 17.5 66.7188C9.66 66.7188 3.28125 60.34 3.28125 52.5C3.28125 44.66 9.66 38.2812 17.5 38.2812C25.34 38.2812 31.7188 44.66 31.7188 52.5ZM24.302 37.5889C22.937 36.9633 21.4725 36.5258 19.938 36.2961L24.5394 31.6947C29.5859 31.4508 33.6383 27.3984 33.8822 22.3519L35 21.2341L42.6562 28.8903L56.8903 14.6562L53.6255 11.3903L65.3253 9.05078L62.9847 20.7506L59.7188 17.4847L45.4847 31.7188H40.4688C40.2741 31.7188 40.0892 31.7527 39.9098 31.8008L35 26.8909L24.302 37.5889ZM40.4688 33.9062H66.7188L66.7209 38.2812H40.4688V33.9062ZM47.0312 52.5V50.3125C47.0312 49.7088 47.5213 49.2188 48.125 49.2188H49.2188V51.4062H51.4062V49.2188H53.5938V51.4062H55.7812V49.2188H57.9688V51.4062H60.1562V49.2188H61.25C61.8537 49.2188 62.3438 49.7088 62.3438 50.3125V52.5C62.3438 53.1037 61.8537 53.5938 61.25 53.5938H59.0625H48.125C47.5213 53.5938 47.0312 53.1037 47.0312 52.5ZM45.9375 55.7812H47.0312V57.9688H49.2188V55.7812H51.4062V57.9688H53.5938V55.7812H55.7812V57.9688H57.9688V55.7812H59.0625C59.6662 55.7812 60.1562 56.2713 60.1562 56.875V59.0625C60.1562 59.6662 59.6662 60.1562 59.0625 60.1562H48.125H45.9375C45.3338 60.1562 44.8438 59.6662 44.8438 59.0625V56.875C44.8438 56.2713 45.3338 55.7812 45.9375 55.7812ZM48.125 66.7188C47.5213 66.7188 47.0312 66.2288 47.0312 65.625V63.4375C47.0312 62.8338 47.5213 62.3438 48.125 62.3438H49.2188V64.5312H51.4062V62.3438H53.5938V64.5312H55.7812V62.3438H57.9688V64.5312H60.1562V62.3438H61.25C61.8537 62.3438 62.3438 62.8338 62.3438 63.4375V65.625C62.3438 66.2288 61.8537 66.7188 61.25 66.7188H48.125ZM65.7573 46.5227C66.3775 47.1428 66.7188 47.9664 66.7188 48.8436V63.4375C66.7188 64.9184 65.7267 66.1577 64.377 66.5645C64.4678 66.2648 64.5312 65.9542 64.5312 65.625V63.4375C64.5312 61.9248 63.4977 60.6605 62.1031 60.2831C62.2552 59.9047 62.3438 59.4945 62.3438 59.0625V56.875C62.3438 56.443 62.2552 56.0328 62.1031 55.6544C63.4977 55.2759 64.5312 54.0127 64.5312 52.5V50.3125C64.5312 48.5034 63.0591 47.0312 61.25 47.0312H48.125C46.3159 47.0312 44.8438 48.5034 44.8438 50.3125V52.5C44.8438 52.932 44.9323 53.3422 45.0844 53.7206C43.6898 54.098 42.6562 55.3623 42.6562 56.875V59.0625C42.6562 60.5752 43.6898 61.8395 45.0844 62.2169C44.9323 62.5953 44.8438 63.0055 44.8438 63.4375V65.625C44.8438 66.01 44.9225 66.3753 45.045 66.7188H43.75C41.9409 66.7188 40.4688 65.2466 40.4688 63.4375V48.8436C40.4688 47.9664 40.8111 47.1417 41.4302 46.5227L43.75 44.2028V40.4688H63.4375V44.2028L65.7573 46.5227Z" fill="#747482"/>
</svg>
