<svg width="70" height="70" viewBox="0 0 70 70" fill="none" xmlns="http://www.w3.org/2000/svg">
<path d="M67.7625 8.15618V58.4003C67.7625 62.4442 64.4843 65.7224 60.4404 65.7224H9.57422C13.6175 65.7224 16.8963 62.4438 16.8963 58.4003V8.15618C16.8963 6.00901 18.637 4.26831 20.7842 4.26831H63.8747C66.0218 4.26831 67.7625 6.00901 67.7625 8.15618Z" fill="#FFC9ED"/>
<path d="M2.24219 29.074V58.0809C2.24219 61.9076 5.03986 65.3249 8.84926 65.6881C13.2191 66.1048 16.8956 62.6796 16.8956 58.3958V25.1863H6.13006C3.98289 25.1863 2.24219 26.9268 2.24219 29.074Z" fill="#FFD335"/>
<path d="M23.207 28.8035H43.5535V57.1049H23.207V28.8035Z" fill="#FFC9ED"/>
<path d="M67.7559 49.0938C67.1719 49.0938 66.6992 49.5664 66.6992 50.1504V50.7005C66.6992 51.2845 67.1719 51.7572 67.7559 51.7572C68.34 51.7572 68.8126 51.2845 68.8126 50.7005V50.1504C68.8128 49.5664 68.3401 49.0938 67.7559 49.0938Z" fill="#7E739C"/>
<path d="M8.7491 66.7399C9.72609 66.8336 8.67911 66.7653 60.444 66.7843C65.059 66.7843 68.8135 63.0247 68.8135 58.4045V55.5293C68.8135 54.9453 68.3408 54.4726 67.7568 54.4726C67.1727 54.4726 66.7001 54.9453 66.7001 55.5293V58.4045C66.7001 61.8597 63.8941 64.6708 60.4441 64.6708H15.1299C16.8221 63.173 17.9525 60.8709 17.9525 58.3962C17.9525 57.8765 17.9515 10.8786 17.9514 8.15438C17.9514 6.59291 19.2218 5.32252 20.7832 5.32252H63.8785C65.4347 5.32252 66.6999 6.59291 66.6999 8.15438V45.3218C66.6999 45.9058 67.1726 46.3785 67.7566 46.3785C68.3407 46.3785 68.8133 45.9058 68.8133 45.3218V8.15438C68.8133 5.42779 66.5997 3.20898 63.8783 3.20898H20.7832C18.0566 3.20898 15.8378 5.42779 15.8378 8.15438V24.1297H6.12984C3.40326 24.1297 1.18555 26.3474 1.18555 29.074V58.0813C1.18555 62.5325 4.50754 66.3353 8.7491 66.7399ZM3.29908 29.074C3.29908 27.5136 4.56947 26.2432 6.12984 26.2432H15.8378V58.4044C15.8378 62.3378 12.4371 64.9584 8.94926 64.6366C5.78107 64.3342 3.29908 61.455 3.29908 58.0813V29.074Z" fill="#7E739C"/>
<path d="M39.7941 13.943C40.3782 13.943 40.8508 13.4704 40.8508 12.8863C40.8508 12.3022 40.3782 11.8296 39.7941 11.8296H33.3751C32.791 11.8296 32.3184 12.3022 32.3184 12.8863V21.6789C32.3184 22.263 32.791 22.7356 33.3751 22.7356H39.7941C40.3782 22.7356 40.8508 22.263 40.8508 21.6789C40.8508 21.0949 40.3782 20.6222 39.7941 20.6222H34.4319V18.3395H39.7941C40.3782 18.3395 40.8508 17.8668 40.8508 17.2828C40.8508 16.6987 40.3782 16.2261 39.7941 16.2261H34.4319V13.9433H39.7941V13.943Z" fill="#7E739C"/>
<path d="M57.2344 13.943H61.4553C62.0394 13.943 62.512 13.4704 62.512 12.8863C62.512 12.3022 62.0394 11.8296 61.4553 11.8296H57.2344C55.4397 11.8296 53.9805 13.2899 53.9805 15.0845C53.9805 16.879 55.4397 18.3393 57.2344 18.3393H59.2571C59.8866 18.3393 60.3985 18.8512 60.3985 19.4806C60.3985 20.1101 59.8866 20.622 59.2571 20.622H55.0373C54.4532 20.622 53.9806 21.0946 53.9806 21.6787C53.9806 22.2627 54.4532 22.7354 55.0373 22.7354H59.2571C61.0518 22.7354 62.512 21.2751 62.512 19.4805C62.512 17.6859 61.0517 16.2256 59.2571 16.2256H57.2344C56.6059 16.2256 56.094 15.7138 56.094 15.0843C56.094 14.4549 56.606 13.943 57.2344 13.943Z" fill="#7E739C"/>
<path d="M47.5486 21.9718C48.0859 22.441 48.7799 22.7354 49.5476 22.7354C51.2328 22.7354 52.6044 21.3638 52.6044 19.6786V12.886C52.6044 12.302 52.1317 11.8293 51.5477 11.8293C50.9636 11.8293 50.491 12.302 50.491 12.886V19.6786C50.491 20.1987 50.0678 20.6219 49.5477 20.6219C49.0286 20.6219 48.6055 20.1987 48.6055 19.6786V15.5589C48.6055 14.9748 48.1328 14.5022 47.5488 14.5022C46.9647 14.5022 46.4921 14.9748 46.4921 15.5589V19.6786C46.4921 20.1987 46.0689 20.6219 45.5498 20.6219C45.0307 20.6219 44.6075 20.1987 44.6075 19.6786V12.886C44.6075 12.302 44.1349 11.8293 43.5508 11.8293C42.9668 11.8293 42.4941 12.302 42.4941 12.886V19.6786C42.4941 21.3638 43.8646 22.7354 45.5499 22.7354C46.3173 22.7355 47.0113 22.441 47.5486 21.9718Z" fill="#7E739C"/>
<path d="M23.2014 22.7357C23.7854 22.7357 24.2581 22.263 24.2581 21.679V16.1268L28.7658 22.3023C28.968 22.58 29.2879 22.7357 29.6192 22.7357C30.21 22.7357 30.6759 22.2559 30.6759 21.679V12.8862C30.6759 12.3021 30.2033 11.8295 29.6192 11.8295C29.0352 11.8295 28.5625 12.3021 28.5625 12.8862V18.4383L24.0548 12.2629C23.7864 11.8935 23.3096 11.7397 22.8731 11.881C22.4386 12.0235 22.1445 12.429 22.1445 12.8862V21.6788C22.1447 22.2629 22.6173 22.7357 23.2014 22.7357Z" fill="#7E739C"/>
<path d="M23.2071 58.1621H43.5529C44.137 58.1621 44.6096 57.6894 44.6096 57.1054V28.8038C44.6096 28.2197 44.137 27.7471 43.5529 27.7471H23.2071C22.623 27.7471 22.1504 28.2197 22.1504 28.8038V57.1052C22.1504 57.6893 22.623 58.1621 23.2071 58.1621ZM24.2639 29.8605H42.4962V56.0484H24.2639V29.8605Z" fill="#7E739C"/>
<path d="M61.4554 28.46H50.6172C50.0332 28.46 49.5605 28.9326 49.5605 29.5167C49.5605 30.1007 50.0332 30.5734 50.6172 30.5734H61.4554C62.0394 30.5734 62.5121 30.1007 62.5121 29.5167C62.5121 28.9326 62.0394 28.46 61.4554 28.46Z" fill="#7E739C"/>
<path d="M61.4554 37.4187H50.6172C50.0332 37.4187 49.5605 37.8913 49.5605 38.4754C49.5605 39.0595 50.0332 39.5321 50.6172 39.5321H61.4554C62.0394 39.5321 62.5121 39.0595 62.5121 38.4754C62.5122 37.8913 62.0394 37.4187 61.4554 37.4187Z" fill="#7E739C"/>
<path d="M61.4554 46.3765H50.6172C50.0332 46.3765 49.5605 46.8491 49.5605 47.4332C49.5605 48.0172 50.0332 48.4899 50.6172 48.4899H61.4554C62.0394 48.4899 62.5121 48.0172 62.5121 47.4332C62.5122 46.8491 62.0394 46.3765 61.4554 46.3765Z" fill="#7E739C"/>
<path d="M61.4554 55.3342H50.6172C50.0332 55.3342 49.5605 55.8069 49.5605 56.3909C49.5605 56.975 50.0332 57.4476 50.6172 57.4476H61.4554C62.0394 57.4476 62.5121 56.975 62.5121 56.3909C62.5122 55.8069 62.0394 55.3342 61.4554 55.3342Z" fill="#7E739C"/>
</svg>
