<svg width="70" height="70" viewBox="0 0 70 70" fill="none" xmlns="http://www.w3.org/2000/svg">
<path fill-rule="evenodd" clip-rule="evenodd" d="M5.01381 55.4926H46.8853V36.4745C46.8853 31.8155 42.7356 29.1697 38.0143 27.9986C30.0865 26.032 22.0495 25.899 13.8848 27.9986C9.17443 29.2094 5.01367 31.8126 5.01367 36.4745V55.4926H5.01381Z" fill="#FFD335"/>
<path fill-rule="evenodd" clip-rule="evenodd" d="M44.3579 55.4925H46.8846V36.4742C46.8846 31.8152 42.7349 29.1696 38.0136 27.9985C33.5705 26.8962 29.093 26.3701 24.5781 26.4902C28.2382 26.587 31.8741 27.1023 35.4871 27.9985C40.2084 29.1696 44.358 31.8154 44.358 36.4742V55.4925H44.3579Z" fill="#41A8FC"/>
<path fill-rule="evenodd" clip-rule="evenodd" d="M25.9504 2.18701C31.1536 2.18701 35.3716 5.1523 35.3716 11.9908C35.3716 18.8294 31.1536 24.3732 25.9504 24.3732C20.7471 24.3732 16.5293 18.8294 16.5293 11.9908C16.5292 5.1523 20.7472 2.18701 25.9504 2.18701Z" fill="#F6DCCD"/>
<path fill-rule="evenodd" clip-rule="evenodd" d="M25.9498 2.18701C31.1529 2.18701 35.371 5.1523 35.371 11.9907C35.371 18.8292 31.1529 24.373 25.9498 24.373C25.7416 24.373 25.5352 24.3632 25.3301 24.3457C30.2443 23.9263 34.1316 18.5555 34.1316 11.9907C34.1316 5.42602 30.2443 2.43105 25.3301 2.20178C25.535 2.19221 25.7415 2.18701 25.9498 2.18701Z" fill="#F1CBBC"/>
<path fill-rule="evenodd" clip-rule="evenodd" d="M49.2422 34.9299C50.5494 35.2641 51.7832 35.7817 52.9148 36.4528L57.5118 33.1246L61.1902 36.803L57.8618 41.4C58.533 42.5318 59.0502 43.7655 59.3846 45.0724L64.987 45.9692V51.1712L59.3849 52.0679C59.0507 53.3751 58.5331 54.6088 57.862 55.7404L61.1902 60.3375L57.5118 64.0159L52.9148 60.6875C51.783 61.3586 50.5493 61.8758 49.2424 62.2102L48.3456 67.8127H43.1435L42.2468 62.2105C40.9396 61.8764 39.7058 61.3588 38.5742 60.6876L33.9772 64.0159L30.2988 60.3375L33.6272 55.7404C32.956 54.6087 32.4388 53.3749 32.1044 52.068L26.502 51.1713V45.9693L32.1045 45.0725C32.4387 43.7655 32.956 42.5318 33.6272 41.4001L30.2988 36.8031L33.9772 33.1247L38.5739 36.4528C39.7058 35.7817 40.9396 35.2643 42.2468 34.9301L43.1435 29.3279H48.3455L49.2422 34.9299Z" fill="#FFB78E"/>
<path fill-rule="evenodd" clip-rule="evenodd" d="M56.6883 33.7205L57.5114 33.1246L61.1899 36.803L57.8614 41.4C58.5326 42.5318 59.0498 43.7655 59.3842 45.0724L64.9867 45.9692V51.1712L59.3845 52.0679C59.0504 53.3751 58.5327 54.6088 57.8616 55.7405L61.1899 60.3375L57.5114 64.0159L56.6883 63.42L59.7706 60.3376L56.4423 55.7406C57.1135 54.609 57.6311 53.3751 57.9652 52.0681L63.5674 51.1713V45.9693L57.9649 45.0726C57.6305 43.7657 57.1133 42.5319 56.4422 41.4002L59.7706 36.8031L56.6883 33.7205ZM33.3809 33.7205L33.9768 33.1246L38.5736 36.4527C38.2995 36.5921 38.0303 36.7398 37.7668 36.8961L33.3809 33.7205ZM38.5738 60.6876L33.9768 64.0159L33.3809 63.42L37.7672 60.2441C38.0305 60.4004 38.2996 60.5483 38.5738 60.6876ZM52.9144 60.6875C51.7827 61.3587 50.5489 61.8759 49.242 62.2103L48.3453 67.8127H46.9261L47.8229 62.2103C49.1298 61.876 51.1703 60.9153 52.302 60.2441L52.9144 60.6875ZM49.2419 34.9298C50.5329 35.2599 51.7524 35.769 52.8727 36.4281C52.886 36.437 52.8998 36.4454 52.9144 36.4527L52.3019 36.8963C51.1702 36.2251 49.1298 35.2641 47.8227 34.9298L46.926 29.3276H48.3451L49.2419 34.9298Z" fill="#FFD064"/>
<path d="M45.7445 58.0335C50.9709 58.0335 55.2078 53.7966 55.2078 48.5702C55.2078 43.3438 50.9709 39.1069 45.7445 39.1069C40.5181 39.1069 36.2812 43.3438 36.2812 48.5702C36.2812 53.7966 40.5181 58.0335 45.7445 58.0335Z" fill="#ECEFF1"/>
<path fill-rule="evenodd" clip-rule="evenodd" d="M46.3089 58.016C43.7025 58.1707 41.0444 57.2531 39.053 55.2616C35.3573 51.566 35.3573 45.5743 39.053 41.8785C41.0444 39.8871 43.7025 38.9694 46.3089 39.1242C44.0785 39.2567 41.8861 40.1743 40.1817 41.8785C36.4861 45.5742 36.4861 51.566 40.1817 55.2616C41.8861 56.9658 44.0785 57.8835 46.3089 58.016Z" fill="#D1D1D6"/>
<path fill-rule="evenodd" clip-rule="evenodd" d="M41.5789 47.2558C40.8643 46.5411 40.8643 45.3824 41.5789 44.6677C42.2936 43.953 43.4523 43.953 44.167 44.6677L48.7006 49.2014L57.894 39.9163C58.6047 39.2017 59.7602 39.1984 60.4748 39.909C61.1895 40.6198 61.1928 41.7753 60.4821 42.4899C56.9877 46.019 53.5085 49.5752 49.9975 53.0861C49.2829 53.8008 48.1242 53.8008 47.4096 53.0861L41.5789 47.2558Z" fill="#62F4AE"/>
<path fill-rule="evenodd" clip-rule="evenodd" d="M59.702 40.6689C59.989 40.9533 59.989 41.4173 59.7039 41.705C58.4689 42.9527 57.2348 44.2038 56.0011 45.4548C53.7836 47.7039 51.4913 50.0295 49.2229 52.2973C48.9372 52.5837 48.4693 52.5843 48.1823 52.2973L42.3514 46.4664C42.0645 46.1794 42.0645 45.7122 42.3514 45.4251C42.491 45.2861 42.675 45.2095 42.872 45.2095C43.0689 45.2095 43.2536 45.2861 43.3934 45.4251L47.9269 49.9587C48.1316 50.1646 48.4083 50.2773 48.7036 50.2792C48.9932 50.2785 49.2719 50.1615 49.4772 49.9549L58.6685 40.6721C58.8069 40.5331 58.9902 40.4565 59.1852 40.4559C59.3867 40.4554 59.5643 40.5313 59.702 40.6689ZM26.8941 1.10938H25.0047C22.4044 1.2815 20.1834 2.17168 18.5406 3.71113C16.509 5.6133 15.4344 8.47127 15.4344 11.9758C15.4344 15.5209 16.4937 18.8653 18.4177 21.3937C20.1577 23.6814 22.4204 25.0702 24.8774 25.3835C21.082 25.4582 17.3193 25.9711 13.6133 26.9241C7.36223 28.5309 3.91992 31.9172 3.91992 36.4591V55.477C3.91992 56.0806 4.40896 56.571 5.01326 56.571H31.664L29.4122 59.6804C29.0982 60.1154 29.1458 60.7152 29.5256 61.0949L33.2038 64.7733C33.5835 65.1536 34.184 65.2012 34.6183 64.8859L38.6474 61.9689C39.4873 62.413 40.3676 62.7772 41.2768 63.0558L42.0625 67.9698C42.1474 68.5006 42.6057 68.8906 43.143 68.8906H48.3452C48.8825 68.8906 49.3401 68.5006 49.425 67.9698L50.2114 63.0565C51.1219 62.7772 52.001 62.413 52.8408 61.9689L56.8692 64.8859C57.3054 65.2012 57.9045 65.1536 58.2842 64.7733L61.9632 61.0949C62.3435 60.7152 62.3918 60.1154 62.0758 59.6804L59.1581 55.6507C59.6022 54.8109 59.9664 53.9312 60.2463 53.0219L65.1602 52.2355C65.6905 52.1506 66.0805 51.693 66.0805 51.1557V45.9535C66.0805 45.4162 65.6905 44.958 65.1602 44.873L62.2534 44.4085C61.6556 44.3133 61.0952 44.7194 61.0011 45.3152C60.9053 45.9117 61.3113 46.4729 61.9071 46.5681L63.8924 46.886V50.2226L59.2102 50.9729C58.779 51.0418 58.4309 51.3597 58.3228 51.7819C58.0178 52.9736 57.5461 54.1133 56.9213 55.1687C56.6999 55.5431 56.7204 56.0148 56.976 56.3675L59.7572 60.2074L57.3968 62.5672L53.5569 59.7866C53.2036 59.5311 52.7332 59.5099 52.358 59.7319C51.3032 60.3574 50.1649 60.8284 48.9712 61.1334C48.5483 61.2409 48.2312 61.5896 48.1617 62.0202L47.4126 66.7031H44.0753L43.3262 62.0202C43.2573 61.5896 42.9394 61.2409 42.5167 61.1327C41.3243 60.8284 40.1859 60.3573 39.1299 59.7318C38.7554 59.5097 38.2838 59.5309 37.931 59.7865L34.0912 62.5671L31.7307 60.2073L34.512 56.3674C34.7675 56.0148 34.7894 55.5431 34.5667 55.168C33.9419 54.1139 33.4702 52.9742 33.1652 51.7819C33.057 51.3597 32.7089 51.0418 32.2791 50.9729L27.5955 50.2226V46.886L32.2791 46.1362C32.7089 46.0674 33.0571 45.7494 33.1652 45.3274C33.4702 44.1356 33.9419 42.9959 34.5667 41.9406C34.7894 41.5654 34.7675 41.0944 34.512 40.7417L31.7307 36.9011L34.0912 34.5413L37.931 37.3219C38.2836 37.578 38.7554 37.5993 39.1299 37.3773C40.1859 36.7518 41.3243 36.2801 42.5167 35.9758C42.9396 35.8677 43.2575 35.5196 43.3262 35.089L44.0753 30.4062H47.4126L48.1617 35.089C48.2312 35.5189 48.5485 35.8677 48.9712 35.9753C50.163 36.2803 51.3032 36.752 52.358 37.3774C52.7332 37.5995 53.2036 37.5776 53.5569 37.3221L57.3968 34.5415L58.3594 35.5041C58.7873 35.9314 59.4791 35.9314 59.9071 35.5041C60.3338 35.0769 60.3338 34.3851 59.9071 33.9577L58.2841 32.3354C57.9044 31.9557 57.3053 31.9081 56.869 32.2227L52.8406 35.1404C52.0009 34.6957 51.1218 34.3322 50.2112 34.0528L49.4248 29.1389C49.3399 28.6087 48.8823 28.2181 48.345 28.2181H43.1429C42.89 28.2181 42.6532 28.3063 42.4659 28.4542C41.2399 27.8223 39.8372 27.3081 38.2772 26.9213C34.4997 25.9844 30.7287 25.474 26.9853 25.3879C29.4558 25.0834 31.7326 23.6922 33.481 21.3935C35.4045 18.8652 36.4636 15.5208 36.4636 11.9756C36.4636 8.471 35.3896 5.61316 33.3581 3.711C31.7148 2.17168 29.4943 1.28137 26.8941 1.10938ZM57.1157 39.131L48.6965 47.6352L44.9396 43.8788C43.7994 42.7385 41.9454 42.7385 40.805 43.8788C39.6648 45.0185 39.6648 46.8731 40.805 48.0135L46.6359 53.8437C47.1868 54.3958 47.9211 54.7003 48.7035 54.7003C49.4835 54.7003 50.2184 54.3959 50.7706 53.8437C53.0428 51.5708 55.3382 49.2426 57.5584 46.991C58.792 45.7405 60.0237 44.4902 61.2566 43.2457C62.3918 42.1048 62.3861 40.2526 61.2457 39.1181C60.6922 38.568 59.9619 38.2654 59.1786 38.2687C58.3995 38.2712 57.6678 38.5769 57.1157 39.131ZM39.8262 42.6362C42.8392 39.6225 47.6218 39.3491 50.9495 41.9998C51.4224 42.3762 52.1104 42.2977 52.4862 41.8253C52.8633 41.353 52.7855 40.665 52.3125 40.2886C48.1141 36.9442 42.0806 37.2886 38.2799 41.0898C36.2851 43.0834 35.1872 45.7346 35.1872 48.5546C35.1872 51.3746 36.2851 54.0251 38.2799 56.0195C40.2736 58.0138 42.9241 59.1115 45.7448 59.1115C48.5641 59.1115 51.2146 58.0136 53.2096 56.0195C53.8686 55.3598 54.4375 54.6192 54.8982 53.818C55.1987 53.2948 55.0186 52.6262 54.496 52.325C53.9722 52.0232 53.3023 52.2034 53.0018 52.7273C52.6369 53.3618 52.1859 53.9493 51.662 54.4725C48.3988 57.7357 43.0897 57.7357 39.8264 54.4725C36.563 51.2098 36.563 45.8995 39.8262 42.6362ZM6.10715 36.4591C6.10715 31.8064 11.151 29.8154 14.1569 29.0425C21.8405 27.0669 29.7784 27.0676 37.7508 29.0451C39.3082 29.4312 40.675 29.9531 41.8307 30.5959L41.2767 34.053C40.3674 34.3323 39.487 34.6965 38.6473 35.1406L34.6182 32.2229C34.1838 31.9076 33.5834 31.9552 33.2037 32.3355L29.5254 36.0138C29.1458 36.3935 29.098 36.9933 29.4121 37.4288L32.3298 41.4586C31.8857 42.2978 31.5215 43.1775 31.2429 44.0868L26.3289 44.8732C25.7986 44.9581 25.4075 45.4164 25.4075 45.9537V51.1558C25.4075 51.6931 25.7987 52.1507 26.3289 52.2356L31.2429 53.022C31.3838 53.4841 31.5479 53.9378 31.7326 54.3831H15.6215V40.8305C15.6215 40.2269 15.1306 39.7372 14.5275 39.7372C13.9232 39.7372 13.4342 40.2269 13.4342 40.8305V54.3831H6.10715V36.4591ZM17.6216 11.9758C17.6216 6.44018 20.6565 3.2657 25.9494 3.2657C31.2417 3.2657 34.2765 6.44018 34.2765 11.9758C34.2765 18.2004 30.5415 23.2644 25.9494 23.2644C21.3585 23.2644 17.6216 18.2004 17.6216 11.9758Z" fill="#747482"/>
</svg>
