<svg width="70" height="70" viewBox="0 0 70 70" fill="none" xmlns="http://www.w3.org/2000/svg">
<g clip-path="url(#clip0_598_3197)">
<path d="M61.3806 61.3239L53.3207 59.5501L50.8227 67.4362C50.643 68.0032 49.8751 68.0864 49.5784 67.5709L39.6074 50.2499C44.519 49.1857 48.8891 46.6635 52.2446 43.158L62.1201 60.3152C62.4164 60.8299 61.9607 61.4516 61.3806 61.3239Z" fill="#FD646F"/>
<path d="M61.3806 61.3241L53.9307 59.6843C53.5852 59.6083 53.2388 59.8083 53.132 60.1455L50.8227 67.4362C50.643 68.0032 49.8751 68.0864 49.5784 67.5709L41.0363 52.731L39.6074 50.2499C44.519 49.1857 48.8891 46.6635 52.2446 43.158L53.6625 45.6198L62.1202 60.3152C62.4164 60.83 61.9607 61.4518 61.3806 61.3241Z" fill="#62F4AE"/>
<path d="M61.3808 61.3235L53.9314 59.6841C53.5854 59.6089 53.2395 59.8085 53.1328 60.1449L53.9346 57.6533C54.0428 57.3172 54.3891 57.1188 54.7339 57.1953L61.1442 58.6203L62.1205 60.3158C62.4172 60.8299 61.9605 61.4521 61.3808 61.3235Z" fill="#4EE99E"/>
<path d="M30.5525 50.042L20.4239 67.634C20.1271 68.1495 19.3592 68.0663 19.1796 67.4993L16.8701 60.2085C16.7633 59.8713 16.4168 59.6713 16.0714 59.7473L8.6216 61.3869C8.04157 61.5146 7.58583 60.8929 7.88213 60.3782L17.3023 44.0122C20.8192 47.3464 25.563 49.2205 30.5525 50.042Z" fill="#62F4AE"/>
<path d="M18.6352 46.4469L10.241 61.0299L8.62172 61.3867C8.04169 61.5145 7.58581 60.8928 7.88212 60.378L15.9006 46.4469L18.069 42.6699C18.6528 43.2226 19.2627 43.748 19.8985 44.2417L18.6352 46.4469Z" fill="#4EE99E"/>
<path d="M21.4112 65.9167L20.4226 67.6341C20.1259 68.1496 19.3588 68.0675 19.1783 67.5001L16.8689 60.2093C16.7622 59.8716 16.4163 59.6719 16.0703 59.7471L18.6245 59.1853C18.9699 59.1092 19.3163 59.3093 19.4231 59.6464L21.4112 65.9167Z" fill="#4EE99E"/>
<path d="M17.5299 43.5959L24.1915 46.6L30.5521 50.0421L28.8466 53.0025C24.0909 52.037 19.6784 49.8233 16.0317 46.5633C15.9879 46.5248 15.9441 46.4864 15.9004 46.4466L17.5299 43.5959Z" fill="#4EE99E"/>
<path d="M53.6625 45.6198L52.2446 43.158L44.7413 46.4697L39.6074 50.2499L40.1844 51.2518L41.6014 53.7128L49.5784 67.5707C49.8751 68.0862 50.643 68.0031 50.8227 67.436L51.3306 65.8324L43.402 52.0219C47.2403 50.6861 50.7346 48.5132 53.6625 45.6198Z" fill="#4EE99E"/>
<path d="M59.8162 25.9196C59.8162 32.6097 57.184 38.6855 52.9 43.158C49.5445 46.6635 45.1744 49.1857 40.2629 50.25C38.566 50.6175 36.8062 50.8109 34.9999 50.8109C33.6216 50.8109 32.2706 50.6983 30.9538 50.4817C26.22 49.7027 21.9361 47.5796 18.5067 44.5158C18.3208 44.3512 18.1389 44.1839 17.9584 44.0125C17.3185 43.4063 16.7114 42.7657 16.1371 42.0951C15.5874 41.4506 15.0706 40.7771 14.5879 40.0777C13.1385 37.9807 12.0022 35.6478 11.246 33.1489C10.5555 30.8613 10.1836 28.435 10.1836 25.9198C10.1836 12.1733 21.2948 1.02856 34.9999 1.02856C37.5063 1.02856 39.9265 1.40158 42.2059 2.09566C44.6986 2.8514 47.0231 3.99109 49.1152 5.44624C49.8125 5.93043 50.4839 6.44879 51.1252 7.00148C51.9839 7.73658 52.7906 8.53074 53.5413 9.3755C57.4451 13.7736 59.8162 19.5696 59.8162 25.9196Z" fill="#FFB64F"/>
<path d="M35.0012 43.7478C44.8179 43.7478 52.7758 35.7658 52.7758 25.9194C52.7758 16.0731 44.8179 8.09106 35.0012 8.09106C25.1845 8.09106 17.2266 16.0731 17.2266 25.9194C17.2266 35.7658 25.1845 43.7478 35.0012 43.7478Z" fill="#FAD207"/>
<path d="M52.7753 25.9197C52.7753 35.7657 44.8172 43.7478 35.0009 43.7478C25.1846 43.7478 17.2266 35.7657 17.2266 25.9197C17.2266 25.1763 17.2717 24.4439 17.3606 23.7253C18.438 32.5372 25.9257 39.359 35.0009 39.359C44.0761 39.359 51.5638 32.5372 52.6413 23.7253C52.7302 24.4439 52.7753 25.1763 52.7753 25.9197Z" fill="#FAA515"/>
<path fill-rule="evenodd" clip-rule="evenodd" d="M35.0009 8.09155C25.1846 8.09155 17.2266 16.0737 17.2266 25.9197C17.2266 35.7656 25.1846 43.7477 35.0009 43.7477C44.8172 43.7477 52.7753 35.7656 52.7753 25.9197C52.7753 16.0737 44.8172 8.09155 35.0009 8.09155ZM35.0009 41.6904C26.3305 41.6904 19.2776 34.6162 19.2776 25.9197C19.2776 17.2231 26.3305 10.1489 35.0009 10.1489C43.6714 10.1489 50.7242 17.2231 50.7242 25.9197C50.7242 34.6162 43.6714 41.6904 35.0009 41.6904Z" fill="#FAF063"/>
<path d="M35.6148 16.0609L38.0565 21.0486C38.1559 21.2518 38.3494 21.3926 38.5734 21.4248L44.0608 22.2132C44.6223 22.2939 44.847 22.984 44.4405 23.3797L40.4605 27.2552C40.2989 27.4126 40.2253 27.6394 40.2637 27.8616L41.2121 33.3413C41.3091 33.9011 40.7204 34.328 40.2183 34.0621L35.3209 31.4668C35.1207 31.3607 34.8808 31.3607 34.6807 31.4668L29.7832 34.0621C29.2811 34.3282 28.6924 33.9013 28.7894 33.3413L29.7378 27.8616C29.7762 27.6394 29.7026 27.4126 29.541 27.2552L25.561 23.3797C25.1545 22.9838 25.3792 22.2939 25.9407 22.2132L31.4281 21.4248C31.6519 21.3926 31.8454 21.2518 31.945 21.0486L34.3867 16.0609C34.6368 15.55 35.3647 15.55 35.6148 16.0609Z" fill="#FFD335"/>
<path d="M52.2094 30.5193C52.7648 30.6326 53.3062 30.2744 53.4198 29.7179C53.6733 28.4757 53.8017 27.1975 53.8017 25.9183C53.8017 15.52 45.3675 7.0603 35.0005 7.0603C24.6334 7.0603 16.1992 15.52 16.1992 25.9183C16.1992 36.3166 24.6334 44.7763 35.0005 44.7763C42.0667 44.7763 48.4719 40.8613 51.7162 34.5591C51.976 34.0543 51.7788 33.4337 51.2755 33.1731C50.7723 32.9124 50.1536 33.1105 49.8938 33.6151C47.0029 39.2305 41.2962 42.719 35.0006 42.719C25.7645 42.719 18.2504 35.1822 18.2504 25.9182C18.2504 16.6541 25.7645 9.11737 35.0006 9.11737C44.2367 9.11737 51.7508 16.6541 51.7508 25.9182C51.7508 27.059 51.6364 28.1985 51.4105 29.3053C51.2968 29.8619 51.6547 30.4054 52.2094 30.5193Z" fill="#747482"/>
<path d="M46.4112 22.0928C46.2903 21.7196 45.9684 21.448 45.5813 21.3924L38.8976 20.4321L35.9217 14.3529C35.5818 13.5975 34.4203 13.5976 34.0805 14.3529L31.1046 20.432L24.4209 21.3923C23.5986 21.4832 23.2413 22.5917 23.852 23.1484L28.6964 27.8658L27.5415 34.5382C27.3736 35.3482 28.3119 36.0349 29.031 35.6238L35.0011 32.4601L40.9711 35.6238C41.6891 36.0349 42.6289 35.3482 42.4606 34.5382L41.3057 27.8658L46.1501 23.1484C46.4309 22.8753 46.532 22.4658 46.4112 22.0928ZM39.4883 26.7685C39.2451 27.0053 39.1343 27.3473 39.1922 27.6824L40.0825 32.8263L35.48 30.3873C35.1803 30.2286 34.8217 30.2286 34.5219 30.3873L29.9195 32.8263L30.8098 27.6824C30.8678 27.3473 30.7569 27.0053 30.5136 26.7685L26.779 23.1317L31.9316 22.3912C32.2672 22.343 32.5573 22.1317 32.7068 21.8264L35.0009 17.14L37.2951 21.8264C37.4445 22.1316 37.7347 22.343 38.0702 22.3912L43.2229 23.1317L39.4883 26.7685Z" fill="#747482"/>
<path d="M63.7794 61.1421L53.756 43.7284C58.1449 39.081 60.841 32.8098 60.841 25.9182C60.8408 11.6268 49.249 0 35.0005 0C30.6166 0 26.2856 1.12137 22.4755 3.24298C21.9802 3.51877 21.8016 4.14489 22.0766 4.64165C22.3515 5.13814 22.9758 5.31727 23.4709 5.04174C26.9773 3.08928 30.9641 2.05734 35.0005 2.05734C48.1181 2.05734 58.7898 12.7615 58.7898 25.9184C58.7898 39.0754 48.1181 49.7796 35.0005 49.7796C21.883 49.7796 11.2113 39.0754 11.2113 25.9182C11.2113 18.8599 14.3025 12.2024 19.6925 7.65286C20.1258 7.28709 20.1815 6.63814 19.8168 6.20359C19.4521 5.76891 18.8052 5.71285 18.3719 6.07889C12.5178 11.0201 9.16023 18.2513 9.16023 25.9182C9.16023 32.8215 11.8653 39.1026 16.2675 43.7525L13.4287 48.6842C12.7485 49.8259 14.5485 50.8815 15.2049 49.7128L17.7856 45.2297C20.8729 48.0014 24.6261 50.0407 28.7716 51.0738L19.9222 66.4476L17.6585 59.3016C17.4981 58.795 16.9791 58.4947 16.4614 58.6083L9.15955 60.215L12.8118 53.87C13.095 53.378 12.9269 52.7489 12.4364 52.4649C11.9458 52.1809 11.3188 52.3494 11.0356 52.8414L6.22136 61.205C5.76466 61.9397 6.48991 62.938 7.3292 62.7241L15.9869 60.819L18.6709 69.292C18.9056 70.1255 20.1266 70.2613 20.5364 69.4948L30.89 51.5075C32.2289 51.7231 33.6014 51.8368 35.0001 51.8368C36.4103 51.8368 37.7938 51.7211 39.1432 51.502L45.3616 62.3052C45.5515 62.6352 45.8962 62.8196 46.2507 62.8196C46.4246 62.8196 46.601 62.7751 46.7625 62.6816C47.2529 62.3974 47.421 61.7685 47.1378 61.2765L41.2606 51.066C45.4044 50.0277 49.1549 47.9839 52.2389 45.2083L60.8408 60.1522L53.539 58.5456C53.0213 58.4317 52.5024 58.7322 52.3419 59.2388L50.0782 66.3848L49.5307 65.4337C49.2475 64.9417 48.6203 64.7732 48.1298 65.0573C47.6394 65.3414 47.4713 65.9704 47.7545 66.4623L49.4638 69.4321C49.8738 70.1988 51.0947 70.0628 51.3293 69.2293L54.0133 60.7563L62.6711 62.6615C63.5112 62.8745 64.2359 61.8769 63.7794 61.1421Z" fill="#747482"/>
</g>
<defs>
<clipPath id="clip0_598_3197">
<rect width="70" height="70" fill="white"/>
</clipPath>
</defs>
</svg>
