<svg width="70" height="70" viewBox="0 0 70 70" fill="none" xmlns="http://www.w3.org/2000/svg">
<g clip-path="url(#clip0_14013_5944)">
<path d="M5.83366 54.8332H7.00033H17.5003V68.8332H25.667V51.3332C25.667 48.756 23.5775 46.6665 21.0003 46.6665H15.167H10.5003V36.1665V46.6665H15.167H21.0003H26.8337H28.0003V39.6665H17.5003V33.8332C17.5003 31.256 15.4108 29.1665 12.8337 29.1665H9.33366H5.83366C3.25649 29.1665 1.16699 31.256 1.16699 33.8332V50.1665C1.16699 52.7437 3.25649 54.8332 5.83366 54.8332Z" fill="#FFD335"/>
<path d="M9.33366 29.1666C13.844 29.1666 17.5003 25.5102 17.5003 20.9999C17.5003 16.4896 13.844 12.8333 9.33366 12.8333C4.82333 12.8333 1.16699 16.4896 1.16699 20.9999C1.16699 25.5102 4.82333 29.1666 9.33366 29.1666Z" fill="#FFD335"/>
<path d="M60.6667 29.1666C65.177 29.1666 68.8333 25.5102 68.8333 20.9999C68.8333 16.4896 65.177 12.8333 60.6667 12.8333C56.1563 12.8333 52.5 16.4896 52.5 20.9999C52.5 25.5102 56.1563 29.1666 60.6667 29.1666Z" fill="#FFB88E"/>
<path d="M44.3333 51.3333V68.8333H52.5V54.8333H63H64.1667C66.7438 54.8333 68.8333 52.7438 68.8333 50.1667V33.8333C68.8333 31.2562 66.7438 29.1667 64.1667 29.1667H60.6667H52.5H47.8333L39.6667 21L35 25.6667L45.5 36.1667H56V46.6667H49C46.4228 46.6667 44.3333 48.7562 44.3333 51.3333Z" fill="#FFB88E"/>
<path d="M46.6667 1.16675H23.3333C22.0442 1.16675 21 2.21091 21 3.50008V12.8334C21 14.1226 22.0442 15.1667 23.3333 15.1667H25.6667V23.3334L33.8333 15.1667H46.6667C47.9558 15.1667 49 14.1226 49 12.8334V3.50008C49 2.21091 47.9558 1.16675 46.6667 1.16675Z" fill="#8AFEC6"/>
<path d="M70 21.0001C70 15.8539 65.8128 11.6667 60.6667 11.6667C55.5205 11.6667 51.3333 15.8539 51.3333 21.0001C51.3333 23.7884 52.5688 26.2886 54.5137 28.0001H48.3163L40.4915 20.1752C40.0353 19.7191 39.298 19.7191 38.8418 20.1752L34.1752 24.8419C33.719 25.2981 33.719 26.0354 34.1752 26.4916L44.6752 36.9916C44.8933 37.2109 45.1897 37.3334 45.5 37.3334H54.8333V45.5001H49H34.846L40.6373 36.8143L38.696 35.5204L32.0425 45.5001H29.1667V39.6667C29.1667 39.0216 28.6452 38.5001 28 38.5001H18.6667V33.8334C18.6667 31.3741 17.1313 29.2752 14.973 28.4189C17.2118 26.7132 18.6667 24.0264 18.6667 21.0001C18.6667 15.8539 14.4795 11.6667 9.33333 11.6667C4.18717 11.6667 0 15.8539 0 21.0001C0 24.0264 1.45483 26.7132 3.69367 28.4189C1.53533 29.2752 0 31.3741 0 33.8334V50.1668C0 53.3833 2.61683 56.0001 5.83333 56.0001V70.0001H8.16667V56.0001H16.3333V68.8334C16.3333 69.4786 16.8548 70.0001 17.5 70.0001H25.6667C26.3118 70.0001 26.8333 69.4786 26.8333 68.8334V51.3334C26.8333 50.0209 26.3982 48.8088 25.6643 47.8334H26.8333H28H33.8333V67.6668H29.1667V70.0001H40.8333V67.6668H36.1667V47.8334H44.3637C43.6228 48.8111 43.1667 50.0151 43.1667 51.3334V68.8334C43.1667 69.4786 43.6882 70.0001 44.3333 70.0001H52.5C53.1452 70.0001 53.6667 69.4786 53.6667 68.8334V56.0001H61.8333V70.0001H64.1667V56.0001C67.3832 56.0001 70 53.3833 70 50.1668V33.8334C70 31.3741 68.4647 29.2752 66.3063 28.4189C68.5452 26.7132 70 24.0264 70 21.0001ZM53.6667 21.0001C53.6667 17.1396 56.8062 14.0001 60.6667 14.0001C64.5272 14.0001 67.6667 17.1396 67.6667 21.0001C67.6667 24.8606 64.5272 28.0001 60.6667 28.0001C56.8062 28.0001 53.6667 24.8606 53.6667 21.0001ZM2.33333 21.0001C2.33333 17.1396 5.47283 14.0001 9.33333 14.0001C13.1938 14.0001 16.3333 17.1396 16.3333 21.0001C16.3333 24.8606 13.1938 28.0001 9.33333 28.0001C5.47283 28.0001 2.33333 24.8606 2.33333 21.0001ZM11.6667 45.5001V36.1667H9.33333V46.6668C9.33333 47.3119 9.85483 47.8334 10.5 47.8334H21C22.9297 47.8334 24.5 49.4038 24.5 51.3334V67.6668H18.6667V54.8334C18.6667 54.1883 18.1452 53.6668 17.5 53.6668H5.83333C3.90367 53.6668 2.33333 52.0964 2.33333 50.1668V33.8334C2.33333 31.9037 3.90367 30.3334 5.83333 30.3334H12.8333C14.763 30.3334 16.3333 31.9037 16.3333 33.8334V39.6667C16.3333 40.3119 16.8548 40.8334 17.5 40.8334H26.8333V45.5001H11.6667ZM64.1667 30.3334C66.0963 30.3334 67.6667 31.9037 67.6667 33.8334V50.1668C67.6667 52.0964 66.0963 53.6668 64.1667 53.6668H52.5C51.8548 53.6668 51.3333 54.1883 51.3333 54.8334V67.6668H45.5V51.3334C45.5 49.4038 47.0703 47.8334 49 47.8334H56C56.6452 47.8334 57.1667 47.3119 57.1667 46.6668V36.1667C57.1667 35.5216 56.6452 35.0001 56 35.0001H45.983L36.6497 25.6667L39.6667 22.6497L47.0085 29.9916C47.2267 30.2109 47.523 30.3334 47.8333 30.3334H64.1667Z" fill="#747482"/>
<path d="M31.5 4.66675H24.5V7.00008H31.5V4.66675Z" fill="#69687A"/>
<path d="M45.5 9.33325H24.5V11.6666H45.5V9.33325Z" fill="#69687A"/>
<path d="M45.4997 4.66675H33.833V7.00008H45.4997V4.66675Z" fill="#69687A"/>
</g>
<defs>
<clipPath id="clip0_14013_5944">
<rect width="70" height="70" fill="white"/>
</clipPath>
</defs>
</svg>
