<svg width="25" height="17" viewBox="0 0 25 17" fill="none" xmlns="http://www.w3.org/2000/svg">
<path d="M4.35718 1.21429C4.35718 0.892237 4.48511 0.583379 4.71283 0.355656C4.94056 0.127934 5.24941 0 5.57146 0H23.7857C24.1078 0 24.4167 0.127934 24.6444 0.355656C24.8721 0.583379 25 0.892237 25 1.21429C25 1.53633 24.8721 1.84519 24.6444 2.07292C24.4167 2.30064 24.1078 2.42857 23.7857 2.42857H5.57146C5.24941 2.42857 4.94056 2.30064 4.71283 2.07292C4.48511 1.84519 4.35718 1.53633 4.35718 1.21429Z" fill="white"/>
<path d="M9.21436 15.7856C9.21436 15.4635 9.34229 15.1547 9.57001 14.9269C9.79773 14.6992 10.1066 14.5713 10.4286 14.5713H23.7858C24.1078 14.5713 24.4167 14.6992 24.6444 14.9269C24.8721 15.1547 25.0001 15.4635 25.0001 15.7856C25.0001 16.1076 24.8721 16.4165 24.6444 16.6442C24.4167 16.8719 24.1078 16.9999 23.7858 16.9999H10.4286C10.1066 16.9999 9.79773 16.8719 9.57001 16.6442C9.34229 16.4165 9.21436 16.1076 9.21436 15.7856Z" fill="white"/>
<path d="M1.92864 7.28613C1.60659 7.28613 1.29773 7.41407 1.07001 7.64179C0.842289 7.86951 0.714355 8.17837 0.714355 8.50042C0.714355 8.82247 0.842289 9.13133 1.07001 9.35905C1.29773 9.58677 1.60659 9.7147 1.92864 9.7147H23.7858C24.1078 9.7147 24.4167 9.58677 24.6444 9.35905C24.8721 9.13133 25.0001 8.82247 25.0001 8.50042C25.0001 8.17837 24.8721 7.86951 24.6444 7.64179C24.4167 7.41407 24.1078 7.28613 23.7858 7.28613H1.92864Z" fill="white"/>
</svg>
