<svg width="163" height="32" viewBox="0 0 163 32" fill="none" xmlns="http://www.w3.org/2000/svg">
<g clip-path="url(#clip0_3_2800)">
<path d="M0.238088 21.7191L2.29293 21.3906V2.36646L0 2.06779L0.119044 0.00715637H14.4719L14.1145 5.77124L11.256 5.68158L11.0773 2.06779H6.6405V10.6391H8.57587L9.02266 8.66813L11.0177 8.7279V14.6412H9.02266L8.54627 12.6103H6.61068V21.6893H11.0773L11.4943 17.7471L14.5017 17.8368L14.7398 23.8396H0.149073L0.238088 21.7191ZM16.0799 23.8694L16.1694 22.1075L17.7772 21.7789V9.77316L15.9013 9.59383V7.80199L20.6062 7.11518L20.9635 8.13055V8.81736C22.095 7.62287 23.4647 6.90596 25.2216 6.90596C27.7827 6.90596 29.6882 8.45912 29.6882 11.5351V21.749L31.3857 22.0776L31.2963 23.8396H25.698V12.4311C25.698 10.7883 25.1026 9.86262 23.6136 9.86262C23.1074 9.86262 22.75 9.95228 22.3631 10.1015C22.125 10.3107 21.8865 10.6094 21.6782 10.8782V21.8088L23.3755 22.1374L23.2564 23.8993H16.0799V23.8694ZM106.038 23.8694L106.098 22.1075L107.706 21.7789V9.77316L105.83 9.59383V7.80199L110.535 7.11518L110.892 8.13055V8.81736C112.023 7.62287 113.393 6.90596 115.15 6.90596C117.711 6.90596 119.617 8.45912 119.617 11.5351V21.749L121.314 22.0776L121.225 23.8396H115.657V12.4311C115.657 10.7883 115.061 9.86262 113.572 9.86262C113.066 9.86262 112.708 9.95228 112.321 10.1015C112.083 10.3107 111.845 10.6094 111.636 10.8782V21.8088L113.334 22.1374L113.215 23.8993H106.038V23.8694ZM40.2593 23.5409C39.6043 23.8097 38.443 24.1086 36.9244 24.1086C34.9292 24.1086 33.0828 23.2125 33.0828 20.2858V9.77295L31.1773 9.47449L31.2665 7.38397L33.4106 7.2943L34.3335 4.09874L37.0732 3.97919V7.41364H40.0212L39.8128 9.50438L37.1028 9.80305V20.3154C37.1028 21.1816 37.5794 21.749 38.4728 21.749H40.0807L40.2593 23.5409ZM151.717 23.8694L151.777 22.1374L153.295 21.7789V9.77316L151.509 9.59383V7.80199L156.392 7.11518L156.72 8.27978V8.66813C158 7.71232 159.727 7.08529 161.812 7.08529L162.526 7.71232L162.02 12.2518L159.34 12.1624L159.072 9.74327C158.447 9.83273 157.851 10.0121 157.345 10.3703V21.8088L159.042 22.1673L158.923 23.8993H151.717V23.8694ZM81.5907 23.8694L81.6801 22.1374L83.1988 21.7789V9.77316L81.412 9.59383V7.80199L86.2956 7.11518L86.6231 8.27978V8.66813C87.9037 7.71232 89.6308 7.08529 91.7152 7.08529L92.4299 7.71232L91.8641 12.2518L89.184 12.1624L88.9159 9.74327C88.2908 9.83273 87.6952 10.0121 87.189 10.3703V21.8088L88.8863 22.1673L88.7672 23.8993H81.5907V23.8694ZM41.4504 23.8694L41.5399 22.1374L43.0585 21.7789V9.77316L41.2717 9.59383V7.80199L46.1553 7.11518L46.4829 8.27978V8.66813C47.7634 7.71232 49.4905 7.08529 51.5451 7.08529L52.2598 7.71232L51.7536 12.2518L49.0735 12.1624L48.8054 9.74327C48.1801 9.83273 47.5847 10.0121 47.0785 10.3703V21.8088L48.7758 22.1673L48.6567 23.8993H41.4504V23.8694ZM56.8753 16.5524C56.8753 19.4196 58.1258 21.6297 60.5976 21.6297C61.8781 21.6297 62.8905 21.3609 64.0816 20.7932L64.7665 22.3763C63.5456 23.3618 61.7589 24.1083 59.5256 24.1083C55.178 24.1083 52.6768 20.3453 52.6768 15.5071C52.6768 11.3859 54.4931 6.87607 59.4659 6.87607C63.8137 6.87607 65.4514 10.9079 65.4514 15.3878L65.0344 16.463L56.8753 16.5524ZM56.8159 14.6412L61.8185 14.4021C61.729 12.4013 61.3123 9.23559 59.3469 9.23559C58.8705 9.23559 58.543 9.32504 57.9473 9.62372C57.1434 10.9978 56.8159 13.4764 56.8159 14.6412ZM126.079 16.5524C126.079 19.4196 127.329 21.6297 129.801 21.6297C131.081 21.6297 132.094 21.3609 133.285 20.7932L133.97 22.3763C132.749 23.3618 130.962 24.1083 128.729 24.1083C124.381 24.1083 121.88 20.3453 121.88 15.5071C121.88 11.3859 123.696 6.87607 128.669 6.87607C133.017 6.87607 134.654 10.9079 134.654 15.3878L134.238 16.463L126.079 16.5524ZM126.019 14.6412L131.022 14.4021C130.932 12.4013 130.515 9.23559 128.55 9.23559C128.074 9.23559 127.746 9.32504 127.151 9.62372C126.347 10.9978 126.019 13.4764 126.019 14.6412ZM97.0156 16.5524C97.0156 19.4196 98.2661 21.6297 100.738 21.6297C102.018 21.6297 103.031 21.3609 104.222 20.7932L104.907 22.3763C103.686 23.3618 101.899 24.1083 99.6658 24.1083C95.3181 24.1083 92.8171 20.3453 92.8171 15.5071C92.8171 11.3859 94.6334 6.87607 99.6062 6.87607C103.954 6.87607 105.592 10.9079 105.592 15.3878L105.175 16.463L97.0156 16.5524ZM96.9559 14.6412L101.959 14.4021C101.869 12.4013 101.453 9.23559 99.4872 9.23559C99.0108 9.23559 98.683 9.32504 98.0876 9.62372C97.2837 10.9978 96.9263 13.4764 96.9559 14.6412ZM145.91 23.8694L145.494 22.4361C144.392 23.4811 143.32 24.1083 141.652 24.1083C139.091 24.1083 136.799 22.8242 136.799 19.2702V9.35515L134.923 9.17581V7.59298L140.342 6.96573L140.759 8.39934V18.7922C140.759 20.6139 141.503 21.5697 142.962 21.5697C143.379 21.5697 143.915 21.5099 144.392 21.3308C144.672 21.0494 144.921 20.739 145.136 20.4049V9.35493L143.201 9.17581V7.59298L148.68 6.96573L149.097 8.39934V21.7789L150.794 22.1075L150.585 23.8694H145.91ZM73.5807 21.7191C72.7171 21.7191 72.032 21.5699 71.4962 21.2712V10.7285C71.7343 10.3701 72.0024 10.0417 72.2705 9.74306C72.7767 9.56372 73.2233 9.50416 73.7591 9.50416C75.9926 9.50416 76.3796 11.7738 76.3796 15.8355C76.3796 19.748 75.7841 20.8231 75.6353 21.271C75.0098 21.5697 74.3548 21.7189 73.5804 21.7189L73.5807 21.7191ZM80.2508 15.119C80.2508 10.0718 78.762 6.90596 75.0396 6.90596C72.568 6.90596 71.4068 8.33956 70.9304 8.93691V8.36923L70.5134 6.93585L65.6596 7.62287V9.35493L67.5358 9.59383V29.9621L65.9277 30.2904L65.8383 31.9928H73.0148L73.1339 30.2904L71.4366 29.9621V23.5112C72.1215 23.8993 73.0744 24.1382 74.1165 24.1382C80.1911 24.1382 80.2508 17.9561 80.2508 15.119Z" fill="black"/>
</g>
<defs>
<clipPath id="clip0_3_2800">
<rect width="162.526" height="32" fill="white"/>
</clipPath>
</defs>
</svg>
