<svg width="70" height="70" viewBox="0 0 70 70" fill="none" xmlns="http://www.w3.org/2000/svg">
<path d="M21.0569 61.5917H5.09473V53.8827C5.09473 51.9478 6.66316 50.3794 8.59801 50.3794H17.5536C19.4885 50.3794 21.0569 51.9478 21.0569 53.8827V61.5917Z" fill="#A0BBFF"/>
<path d="M42.9807 61.5917H27.0186V53.8827C27.0186 51.9478 28.587 50.3794 30.5218 50.3794H39.4772C41.412 50.3794 42.9805 51.9478 42.9805 53.8827V61.5917H42.9807Z" fill="#62F4AE"/>
<path d="M64.9036 61.5917H48.9414V53.8827C48.9414 51.9478 50.5098 50.3794 52.4447 50.3794H61.4C63.3349 50.3794 64.9036 51.9478 64.9036 53.8827V61.5917Z" fill="#FF9E66"/>
<path d="M59.9367 22.9091H36.8313C36.0137 22.9091 35.3506 22.2463 35.3506 21.4284V6.88838C35.3506 6.0708 36.0134 5.40771 36.8313 5.40771H59.9367C60.7543 5.40771 61.4174 6.07053 61.4174 6.88838V21.4287C61.4171 22.2463 60.7543 22.9091 59.9367 22.9091Z" fill="#9CA3C7"/>
<path d="M59.9363 5.40771H55.9258C56.7434 5.40771 57.4064 6.07053 57.4064 6.88838V21.4287C57.4064 22.2463 56.7436 22.9094 55.9258 22.9094H59.9363C60.7539 22.9094 61.417 22.2465 61.417 21.4287V6.88838C61.4167 6.07053 60.7539 5.40771 59.9363 5.40771Z" fill="#DADDEE"/>
<path d="M36.0607 15.1407C35.3749 14.2395 34.0881 14.0642 33.1869 14.7508L28.096 18.6257H12.0846C10.1498 18.6257 8.58105 20.1941 8.58105 22.1292V31.4865H26.8899V22.7272H28.7875C29.2362 22.7272 29.6724 22.5801 30.0295 22.3083L35.6708 18.0145C36.5723 17.3285 36.7468 16.042 36.0607 15.1407Z" fill="#A39FE7"/>
<path d="M38.6406 22.9092H42.2672V31.4866H38.6406V22.9092Z" fill="#9CA3C7"/>
<path d="M54.5 22.9092H58.1266V31.4866H54.5V22.9092Z" fill="#9CA3C7"/>
<path d="M45.6852 12.7579C45.6499 12.856 45.6103 12.9506 45.5665 13.0442L46.4464 13.9241L44.7164 15.6541L43.8365 14.7742C43.743 14.8177 43.6475 14.8576 43.5502 14.8929V16.1376H41.1043V14.8929C41.007 14.8576 40.9118 14.818 40.818 14.7742L39.9381 15.6541L38.208 13.9241L39.088 13.0442C39.0445 12.9506 39.0046 12.856 38.9693 12.7579H37.7246V10.312H38.9693C39.0046 10.2146 39.0442 10.1192 39.088 10.0257L38.208 9.14576L39.9381 7.41572L40.818 8.29646C40.9115 8.25299 41.007 8.21225 41.1043 8.17697V6.93311H43.5502V8.17697C43.6475 8.21225 43.7427 8.25299 43.8365 8.29646L44.7164 7.41572L46.4464 9.14576L45.5665 10.0257C45.61 10.1192 45.6499 10.2146 45.6852 10.312H46.9291V12.7579H45.6852Z" fill="#9CA3C7"/>
<path d="M42.3268 13.2363C43.2661 13.2363 44.0275 12.4748 44.0275 11.5355C44.0275 10.5962 43.2661 9.83472 42.3268 9.83472C41.3874 9.83472 40.626 10.5962 40.626 11.5355C40.626 12.4748 41.3874 13.2363 42.3268 13.2363Z" fill="#C45312"/>
<path d="M57.7985 18.004C57.7632 18.1021 57.7236 18.1967 57.6798 18.2903L58.5597 19.1702L56.8297 20.9002L55.9498 20.0203C55.8562 20.0638 55.7608 20.1037 55.6635 20.139V21.3837H53.2176V20.139C53.1202 20.1037 53.0251 20.064 52.9313 20.0203L52.0514 20.9002L50.3213 19.1702L51.2012 18.2903C51.1578 18.1967 51.1179 18.1021 51.0826 18.004H49.8379V15.5581H51.0826C51.1179 15.4607 51.1575 15.3653 51.2012 15.2718L50.3213 14.3919L52.0514 12.6618L52.9313 13.5426C53.0248 13.4991 53.1202 13.4583 53.2176 13.4231V12.1792H55.6635V13.4231C55.7608 13.4583 55.856 13.4991 55.9498 13.5426L56.8297 12.6618L58.5597 14.3919L57.6798 15.2718C57.7233 15.3653 57.7632 15.4607 57.7985 15.5581H59.0423V18.004H57.7985Z" fill="#9CA3C7"/>
<path d="M54.441 18.4821C55.3803 18.4821 56.1418 17.7207 56.1418 16.7813C56.1418 15.842 55.3803 15.0806 54.441 15.0806C53.5017 15.0806 52.7402 15.842 52.7402 16.7813C52.7402 17.7207 53.5017 18.4821 54.441 18.4821Z" fill="#C45312"/>
<path d="M7.47055 64.1821H2.54785C2.32145 64.1821 2.1377 64.3659 2.1377 64.5923C2.1377 64.8187 2.32145 65.0024 2.54785 65.0024H7.47055C7.69695 65.0024 7.8807 64.8187 7.8807 64.5923C7.8807 64.3659 7.69695 64.1821 7.47055 64.1821Z" fill="#3F3679"/>
<path d="M67.451 64.1819H62.5283C62.3019 64.1819 62.1182 64.3656 62.1182 64.592C62.1182 64.8184 62.3019 65.0022 62.5283 65.0022H67.451C67.6774 65.0022 67.8612 64.8184 67.8612 64.592C67.8612 64.3656 67.6774 64.1819 67.451 64.1819Z" fill="#3F3679"/>
<path d="M59.7395 64.1821H10.2588C10.0324 64.1821 9.84863 64.3659 9.84863 64.5923C9.84863 64.8187 10.0324 65.0024 10.2588 65.0024H59.7398C59.9662 65.0024 60.1499 64.8187 60.1499 64.5923C60.1499 64.3659 59.9662 64.1821 59.7395 64.1821Z" fill="#3F3679"/>
<path d="M2.54785 62.002H5.09492H21.0574H27.018H42.9805H48.9412H64.9036H67.4507C67.6771 62.002 67.8609 61.8182 67.8609 61.5918C67.8609 61.3654 67.6771 61.1816 67.4507 61.1816H65.3138V53.8828C65.3138 51.7248 63.5581 49.9691 61.4001 49.9691H59.9908C61.8433 48.9027 63.0943 46.9041 63.0943 44.6173C63.0943 41.2141 60.3255 38.4453 56.9223 38.4453C53.5191 38.4453 50.7502 41.2141 50.7502 44.6173C50.7502 46.9041 52.0012 48.9027 53.8538 49.9691H52.4447C50.2868 49.9691 48.531 51.7248 48.531 53.8828V61.1816H43.3907V53.8828C43.3907 51.7248 41.6349 49.9691 39.477 49.9691H38.0677C39.9202 48.9027 41.1712 46.9041 41.1712 44.6173C41.1712 41.2141 38.4023 38.4453 34.9991 38.4453C31.5959 38.4453 28.8271 41.2141 28.8271 44.6173C28.8271 46.9041 30.0781 48.9027 31.9306 49.9691H30.5213C28.3634 49.9691 26.6076 51.7248 26.6076 53.8828V61.1816H21.4678V53.8828C21.4678 51.7248 19.7121 49.9691 17.5541 49.9691H16.1448C17.9973 48.9027 19.2483 46.9041 19.2483 44.6173C19.2483 41.2141 16.4795 38.4453 13.0763 38.4453C9.67309 38.4453 6.90426 41.2141 6.90426 44.6173C6.90426 46.9041 8.15524 48.9027 10.0078 49.9691H8.59848C6.44051 49.9691 4.68477 51.7248 4.68477 53.8828V61.1816H2.54785C2.32145 61.1816 2.1377 61.3654 2.1377 61.5918C2.1377 61.8182 2.32145 62.002 2.54785 62.002ZM51.5708 44.6173C51.5708 41.6664 53.9716 39.2656 56.9225 39.2656C59.8735 39.2656 62.2743 41.6664 62.2743 44.6173C62.2743 47.5683 59.8735 49.9691 56.9225 49.9691C53.9716 49.9691 51.5708 47.5683 51.5708 44.6173ZM49.3513 53.8828C49.3513 52.1773 50.739 50.7894 52.4447 50.7894H61.4004C63.1058 50.7894 64.4938 52.1771 64.4938 53.8828V61.1816H49.3516V53.8828H49.3513ZM29.6477 44.6173C29.6477 41.6664 32.0485 39.2656 34.9994 39.2656C37.9504 39.2656 40.3511 41.6664 40.3511 44.6173C40.3511 47.5683 37.9504 49.9691 34.9994 49.9691C32.0485 49.9691 29.6477 47.5683 29.6477 44.6173ZM27.4285 53.8828C27.4285 52.1773 28.8162 50.7894 30.5219 50.7894H39.4775C41.1829 50.7894 42.5709 52.1771 42.5709 53.8828V61.1816H27.4288V53.8828H27.4285ZM7.72457 44.6173C7.72457 41.6664 10.1254 39.2656 13.0763 39.2656C16.0272 39.2656 18.428 41.6664 18.428 44.6173C18.428 47.5683 16.0272 49.9691 13.0763 49.9691C10.1254 49.9691 7.72457 47.5683 7.72457 44.6173ZM5.50535 53.8828C5.50535 52.1773 6.89305 50.7894 8.59875 50.7894H17.5541C19.2595 50.7894 20.6475 52.1771 20.6475 53.8828V61.1816H5.50535V53.8828Z" fill="#5D5C69"/>
<path d="M8.58133 31.8967H26.8902C27.1166 31.8967 27.3003 31.7129 27.3003 31.4865V23.1374H28.7875C29.3229 23.1374 29.8523 22.9588 30.2778 22.6346L34.9399 19.0859V21.4281C34.9399 22.4708 35.7884 23.319 36.8307 23.319H38.2302V31.4863C38.2302 31.7127 38.4139 31.8964 38.6403 31.8964H42.2669C42.4933 31.8964 42.6771 31.7127 42.6771 31.4863V23.3192H54.0895V31.4865C54.0895 31.7129 54.2733 31.8967 54.4997 31.8967H58.1263C58.3527 31.8967 58.5364 31.7129 58.5364 31.4865V23.3192H59.9362C60.9788 23.3192 61.8267 22.4708 61.8267 21.4284V6.88838C61.8267 5.84576 60.9785 4.99756 59.9362 4.99756H36.8307C35.7881 4.99756 34.9399 5.84603 34.9399 6.88838V13.9772C34.8803 13.9647 34.8207 13.9521 34.7597 13.9436C34.1086 13.8553 33.4614 14.0256 32.9386 14.4243L27.9577 18.2153H21.0236C23.2411 17.0345 24.7546 14.6997 24.7546 12.0167C24.7546 8.14646 21.6057 4.99756 17.7355 4.99756C13.8652 4.99756 10.7163 8.14646 10.7163 12.0167C10.7163 14.6994 12.2298 17.0345 14.4474 18.2155H12.0846C9.92664 18.2155 8.1709 19.9713 8.1709 22.1292V31.4868C8.17117 31.7129 8.35492 31.8967 8.58133 31.8967ZM41.8568 31.0764H39.0505V23.3192H41.8568V31.0764ZM57.7161 31.0764H54.9098V23.3192H57.7161V31.0764ZM35.7602 6.88838C35.7602 6.29803 36.2403 5.81787 36.8307 5.81787H59.9362C60.5262 5.81787 61.0064 6.29803 61.0064 6.88838V21.4284C61.0064 22.0188 60.5262 22.4989 59.9362 22.4989H58.1263H54.4997H42.2669H38.6403H36.8307C36.2403 22.4989 35.7602 22.0188 35.7602 21.4284V18.4668C35.7602 18.4652 35.7596 18.4638 35.7596 18.4622L35.9191 18.3408C36.4421 17.9426 36.7793 17.3649 36.8673 16.7135C36.9557 16.0622 36.785 15.4155 36.3869 14.8924C36.2108 14.6608 35.9978 14.4681 35.7602 14.3149V6.88838ZM11.5366 12.0167C11.5366 8.59873 14.3175 5.81787 17.7355 5.81787C21.1534 5.81787 23.9343 8.59873 23.9343 12.0167C23.9343 15.4347 21.1534 18.2155 17.7355 18.2155C14.3175 18.2155 11.5366 15.4347 11.5366 12.0167ZM8.99148 22.1292C8.99148 20.4238 10.3792 19.0358 12.0849 19.0358H28.0963C28.186 19.0358 28.2732 19.0066 28.3446 18.9519L33.4357 15.077C33.7838 14.8112 34.2139 14.6972 34.6495 14.7565C35.0837 14.8156 35.469 15.0401 35.7345 15.389C36 15.7379 36.1137 16.1691 36.0547 16.6031C35.9959 17.0373 35.7714 17.4226 35.4225 17.6881L29.7812 21.9819C29.4974 22.1979 29.1444 22.3171 28.7875 22.3171H26.8902C26.6637 22.3171 26.48 22.5008 26.48 22.7272V31.0764H11.9566V22.9091C11.9566 22.6827 11.7729 22.4989 11.5465 22.4989C11.3201 22.4989 11.1363 22.6827 11.1363 22.9091V31.0764H8.99121V22.1292H8.99148Z" fill="#3F3679"/>
<path d="M37.7252 13.168H38.3847L37.9187 13.6339C37.8419 13.7107 37.7987 13.8152 37.7987 13.924C37.7987 14.0329 37.8419 14.137 37.9187 14.2141L39.6488 15.9439C39.809 16.1041 40.0685 16.1041 40.2287 15.9439L40.6944 15.4782V16.1375C40.6944 16.3639 40.8782 16.5477 41.1046 16.5477H43.5505C43.7769 16.5477 43.9606 16.3639 43.9606 16.1375V15.4785L44.4263 15.9439C44.5865 16.1041 44.846 16.1041 45.0062 15.9439L46.7363 14.2141C46.8131 14.1373 46.8563 14.0329 46.8563 13.924C46.8563 13.8152 46.8131 13.711 46.7363 13.6339L46.2703 13.168H46.9288C47.1552 13.168 47.3389 12.9842 47.3389 12.7578V10.3122C47.3389 10.0858 47.1552 9.90203 46.9288 9.90203H46.2703L46.7363 9.43609C46.8131 9.35926 46.8563 9.25481 46.8563 9.14598C46.8563 9.03715 46.8131 8.93297 46.7363 8.85586L45.0062 7.12609C44.9294 7.04926 44.825 7.00605 44.7161 7.00605C44.6073 7.00605 44.5029 7.04926 44.4257 7.12609L43.9603 7.59203V6.93359C43.9603 6.70719 43.7766 6.52344 43.5502 6.52344H41.1043C40.8779 6.52344 40.6941 6.70719 40.6941 6.93359V7.5923L40.2287 7.12637C40.1519 7.04926 40.0475 7.00605 39.9386 7.00605C39.9384 7.00605 39.9384 7.00605 39.9384 7.00605C39.8298 7.00605 39.7254 7.04926 39.6482 7.12609L37.9182 8.85586C37.8414 8.9327 37.7982 9.03715 37.7982 9.14598C37.7982 9.25481 37.8414 9.35898 37.9182 9.43609L38.3841 9.90203H37.7246C37.4982 9.90203 37.3145 10.0858 37.3145 10.3122V12.7578C37.315 12.9842 37.4987 13.168 37.7252 13.168ZM38.1353 10.7223H38.9701C39.1427 10.7223 39.2969 10.6141 39.3557 10.4522C39.3868 10.3663 39.4218 10.2818 39.4604 10.199C39.5334 10.0429 39.5006 9.85773 39.3786 9.73605L38.7888 9.14625L39.9386 7.99672L40.5282 8.5868C40.6501 8.70875 40.835 8.74102 40.9911 8.6691C41.0742 8.63055 41.1582 8.59445 41.2446 8.56301C41.4067 8.50422 41.5147 8.35 41.5147 8.17746V7.34402H43.1403V8.17746C43.1403 8.35 43.2486 8.50422 43.4105 8.56301C43.4963 8.59418 43.5805 8.63027 43.6634 8.66883C43.8187 8.74184 44.0044 8.70875 44.1266 8.58707L44.7164 7.99672L45.8662 9.14625L45.2764 9.73605C45.1545 9.85773 45.1219 10.0429 45.1946 10.199C45.2332 10.2818 45.2682 10.3661 45.2994 10.4522C45.3582 10.6143 45.5124 10.7223 45.6849 10.7223H46.5186V12.3477H45.6849C45.5118 12.3477 45.3573 12.4562 45.2988 12.6192C45.2679 12.7056 45.2329 12.7887 45.1946 12.871C45.1216 13.0271 45.1545 13.2123 45.2764 13.3339L45.8662 13.9238L44.7161 15.0736L44.1263 14.484C44.0038 14.3618 43.8184 14.3293 43.6634 14.4023C43.5805 14.4408 43.4966 14.4758 43.4105 14.507C43.2483 14.5658 43.1403 14.72 43.1403 14.8925V15.7271H41.5147V14.8925C41.5147 14.72 41.4064 14.5658 41.2446 14.507C41.1584 14.4758 41.0742 14.4405 40.9911 14.402C40.835 14.3298 40.6498 14.3621 40.5284 14.484L39.9389 15.0736L38.7888 13.9238L39.3786 13.3339C39.5006 13.2123 39.5331 13.0271 39.4604 12.871C39.4221 12.7887 39.3871 12.7059 39.3562 12.6192C39.2977 12.4562 39.1432 12.3477 38.9701 12.3477H38.1353V10.7223Z" fill="white"/>
<path d="M42.3268 13.6464C43.4908 13.6464 44.4377 12.6995 44.4377 11.5355C44.4377 10.3715 43.4908 9.42456 42.3268 9.42456C41.1627 9.42456 40.2158 10.3715 40.2158 11.5355C40.2158 12.6995 41.1627 13.6464 42.3268 13.6464ZM42.3268 10.2451C43.0385 10.2451 43.6174 10.824 43.6174 11.5358C43.6174 12.2475 43.0385 12.8264 42.3268 12.8264C41.615 12.8264 41.0361 12.2475 41.0361 11.5358C41.0361 10.824 41.615 10.2451 42.3268 10.2451Z" fill="white"/>
<path d="M49.8389 18.4141H50.4981L50.0325 18.8798C49.8722 19.04 49.8722 19.2995 50.0325 19.4597L51.7622 21.1898C51.8391 21.2666 51.9435 21.3098 52.0523 21.3098C52.1612 21.3098 52.2653 21.2666 52.3425 21.1898L52.8084 20.7238V21.3831C52.8084 21.6095 52.9921 21.7932 53.2186 21.7932H55.6645C55.8909 21.7932 56.0746 21.6095 56.0746 21.3831V20.7241L56.5403 21.1898C56.7005 21.35 56.96 21.35 57.1202 21.1898L58.8503 19.4597C59.0105 19.2995 59.0105 19.04 58.8503 18.8798L58.3846 18.4141H59.0428C59.2692 18.4141 59.4529 18.2303 59.4529 18.0039V15.558C59.4529 15.3316 59.2692 15.1479 59.0428 15.1479H58.3846L58.8503 14.6822C58.9271 14.6054 58.9703 14.5012 58.9703 14.3921C58.9703 14.2835 58.9271 14.1791 58.8503 14.102L57.1202 12.3719C56.966 12.218 56.6934 12.218 56.54 12.3719L56.0746 12.8379V12.1794C56.0746 11.953 55.8909 11.7693 55.6645 11.7693H53.2186C52.9921 11.7693 52.8084 11.953 52.8084 12.1794V12.8382L52.3427 12.3719C52.2659 12.2951 52.1614 12.2519 52.0523 12.2519C51.9438 12.2519 51.8393 12.2951 51.7622 12.3719L50.0325 14.102C49.9556 14.1788 49.9124 14.2833 49.9124 14.3921C49.9124 14.5009 49.9556 14.6051 50.0325 14.6822L50.4981 15.1479H49.8389C49.6125 15.1479 49.4287 15.3316 49.4287 15.558V18.0039C49.4287 18.2303 49.6122 18.4141 49.8389 18.4141ZM50.249 15.9679H51.0838C51.2569 15.9679 51.4111 15.8596 51.4696 15.6967C51.5005 15.6111 51.5358 15.5269 51.5744 15.4443C51.6471 15.2882 51.6143 15.1033 51.4923 14.9816L50.9025 14.3921L52.0523 13.2423L52.6419 13.8326C52.7638 13.9543 52.9489 13.9869 53.1048 13.9147C53.1879 13.8761 53.2719 13.8403 53.3583 13.8089C53.5204 13.7501 53.6284 13.5958 53.6284 13.4233V12.5896H55.254V13.4233C55.254 13.5958 55.3623 13.7501 55.5242 13.8089C55.61 13.84 55.6943 13.8758 55.7771 13.9144C55.9327 13.9874 56.1181 13.9546 56.2403 13.8326L56.8298 13.2423L57.9799 14.3921L57.3901 14.9816C57.2684 15.1033 57.2356 15.2882 57.3081 15.4443C57.3466 15.5274 57.3819 15.6114 57.4131 15.6978C57.4719 15.8599 57.6261 15.9679 57.7986 15.9679H58.6323V17.5935H57.7986C57.6255 17.5935 57.4713 17.7021 57.4128 17.8648C57.3816 17.9509 57.3466 18.0343 57.3084 18.1166C57.2354 18.2727 57.2682 18.4578 57.3901 18.5795L57.9799 19.1693L56.8298 20.3194L56.24 19.7296C56.1181 19.6074 55.9324 19.5751 55.7771 19.6478C55.6943 19.6864 55.6103 19.7214 55.5242 19.7526C55.362 19.8114 55.254 19.9656 55.254 20.1381V20.9726H53.6284V20.1381C53.6284 19.9656 53.5202 19.8114 53.3583 19.7526C53.2721 19.7214 53.1879 19.6861 53.1048 19.6476C52.9489 19.5751 52.7636 19.6076 52.6421 19.7296L52.0523 20.3194L50.9025 19.1693L51.4923 18.5795C51.6143 18.4578 51.6468 18.2727 51.5741 18.1166C51.5358 18.0346 51.5005 17.9514 51.4702 17.8658C51.4117 17.7023 51.2572 17.5935 51.0838 17.5935H50.249V15.9679Z" fill="white"/>
<path d="M54.441 18.8923C55.605 18.8923 56.552 17.9454 56.552 16.7814C56.552 15.6174 55.605 14.6702 54.441 14.6702C53.277 14.6702 52.3301 15.6174 52.3301 16.7814C52.3301 17.9454 53.277 18.8923 54.441 18.8923ZM54.441 15.4905C55.1528 15.4905 55.7316 16.0696 55.7316 16.7814C55.7316 17.4931 55.1528 18.072 54.441 18.072C53.7293 18.072 53.1504 17.4931 53.1504 16.7814C53.1504 16.0696 53.7293 15.4905 54.441 15.4905Z" fill="white"/>
<circle opacity="0.58" cx="18.3141" cy="11.8024" r="5.2907" fill="#F3DADA"/>
</svg>
