<svg width="70" height="70" viewBox="0 0 70 70" fill="none" xmlns="http://www.w3.org/2000/svg">
<path d="M38.8072 65.3514C37.7241 64.9935 36.6058 64.6807 35.9777 61.9756C35.3994 64.4671 34.4738 64.9137 33.1484 65.3514C35.3086 66.0651 35.6345 67.2472 35.9777 68.727C36.5697 66.1767 37.5489 65.7679 38.8072 65.3514Z" fill="#F0C020"/>
<path d="M38.8072 65.3514C37.7241 64.9935 36.6058 64.6807 35.9777 61.9756C35.3994 64.4671 34.4738 64.9137 33.1484 65.3514C35.3086 66.0651 35.6345 67.2472 35.9777 68.727C36.5697 66.1767 37.5489 65.7679 38.8072 65.3514Z" fill="#F0C020"/>
<path d="M60.0927 39.1925C59.0096 38.8346 57.8909 38.5218 57.2631 35.8167C56.6848 38.3082 55.7592 38.7547 54.4336 39.1925C56.5937 39.9062 56.9197 41.0883 57.2631 42.5681C57.8551 40.0169 58.834 39.6081 60.0927 39.1925Z" fill="#F0C020"/>
<path d="M60.0927 39.1925C59.0096 38.8346 57.8909 38.5218 57.2631 35.8167C56.6848 38.3082 55.7592 38.7547 54.4336 39.1925C56.5937 39.9062 56.9197 41.0883 57.2631 42.5681C57.8551 40.0169 58.834 39.6081 60.0927 39.1925Z" fill="#F0C020"/>
<path d="M51.2012 31.3772V45.4018C49.6803 45.4018 48.1742 45.7015 46.7691 46.2836C45.364 46.8657 44.0874 47.7189 43.012 48.7945C41.9367 49.87 41.0838 51.1469 40.5019 52.5521C39.9201 53.9573 39.6208 55.4634 39.6211 56.9843C39.6199 57.752 39.696 58.5178 39.848 59.2703H8.30703C8.01806 59.2698 7.74109 59.1547 7.53701 58.9501C7.33294 58.7455 7.21846 58.4682 7.21875 58.1792V31.3769C7.21846 31.0879 7.33294 30.8107 7.53701 30.6061C7.74109 30.4015 8.01806 30.2863 8.30703 30.2859H50.1102C50.2535 30.2858 50.3954 30.314 50.5278 30.3688C50.6602 30.4236 50.7805 30.504 50.8819 30.6054C50.9832 30.7067 51.0636 30.8271 51.1183 30.9595C51.1731 31.0919 51.2013 31.2339 51.2012 31.3772Z" fill="#FFD335"/>
<path d="M51.2012 43.4878V45.4019C49.6803 45.4019 48.1742 45.7015 46.7691 46.2836C45.364 46.8658 44.0874 47.719 43.012 48.7945C41.9367 49.8701 41.0838 51.147 40.5019 52.5522C39.9201 53.9574 39.6208 55.4635 39.6211 56.9844C39.6199 57.7521 39.696 58.5179 39.848 59.2703H37.8984C37.771 58.515 37.707 57.7504 37.707 56.9844C37.7107 53.4064 39.1335 49.976 41.6633 47.4458C44.1931 44.9156 47.6232 43.4921 51.2012 43.4878Z" fill="#E7A523"/>
<path d="M25.5062 50.5642L21.9204 46.8667C21.6869 46.6432 21.4995 46.3733 21.3695 46.0734C21.2394 45.7735 21.1694 45.4496 21.1635 45.1211C21.1576 44.7926 21.216 44.4662 21.3352 44.1615C21.4544 43.8568 21.632 43.58 21.8573 43.3477C22.0825 43.1154 22.3509 42.9323 22.6464 42.8094C22.9419 42.6865 23.2584 42.6262 23.5769 42.6323C23.8955 42.6384 24.2096 42.7106 24.5005 42.8447C24.7913 42.9788 25.053 43.172 25.2698 43.4128L27.1809 45.3832L33.3417 39.0298C33.5589 38.7905 33.8206 38.5987 34.1111 38.4658C34.4016 38.3329 34.7151 38.2616 35.0329 38.2562C35.3506 38.2508 35.6662 38.3113 35.9609 38.4342C36.2555 38.5571 36.5232 38.7399 36.7479 38.9716C36.9727 39.2033 37.1499 39.4793 37.2691 39.7832C37.3883 40.087 37.4471 40.4124 37.4418 40.7401C37.4366 41.0678 37.3675 41.3911 37.2386 41.6907C37.1098 41.9903 36.9238 42.2601 36.6918 42.4841L28.8559 50.5645C28.4115 51.0221 27.8091 51.2792 27.181 51.2791C26.5529 51.2791 25.9505 51.0219 25.5062 50.5642Z" fill="#0BBE6E"/>
<path d="M46.3788 18.4408V24.9374H39.8384V18.4408C39.8242 15.6314 38.6981 12.9418 36.7064 10.9602C34.7148 8.97863 32.0195 7.86623 29.21 7.86623C26.4005 7.86623 23.7053 8.97863 21.7136 10.9602C19.7219 12.9418 18.5959 15.6314 18.5816 18.4408V30.2867H12.041V18.4408C12.041 13.8874 13.8499 9.5204 17.0697 6.30062C20.2894 3.08083 24.6564 1.27197 29.2099 1.27197C33.7634 1.27197 38.1303 3.08083 41.3501 6.30062C44.5699 9.5204 46.3788 13.8874 46.3788 18.4408Z" fill="#EFEFEF"/>
<path d="M12.041 28.6287H18.5816V30.2865H12.041V28.6287Z" fill="#AEAEAE"/>
<path d="M62.7813 56.9844C62.7817 59.8571 61.7144 62.6275 59.7866 64.7574C57.8588 66.8872 55.2081 68.2245 52.3495 68.5094C49.4909 68.7944 46.6285 68.0066 44.3182 66.2992C42.0079 64.5918 40.4147 62.0866 39.8481 59.2703C39.696 58.5179 39.6199 57.752 39.6211 56.9844C39.6211 55.4637 39.9206 53.9578 40.5026 52.5529C41.0845 51.1479 41.9375 49.8713 43.0128 48.796C44.0881 47.7207 45.3647 46.8677 46.7697 46.2858C48.1746 45.7038 49.6805 45.4043 51.2012 45.4043C52.7219 45.4043 54.2277 45.7038 55.6327 46.2858C57.0377 46.8677 58.3142 47.7207 59.3895 48.796C60.4648 49.8713 61.3178 51.1479 61.8998 52.5529C62.4817 53.9578 62.7813 55.4637 62.7813 56.9844Z" fill="#71C1E8"/>
<path d="M57.2639 64.452V66.8528C55.4399 67.972 53.3417 68.5645 51.2018 68.5645C49.0618 68.5645 46.9636 67.972 45.1396 66.8528V64.452C45.1396 62.8442 45.7783 61.3023 46.9152 60.1654C48.0521 59.0286 49.594 58.3899 51.2018 58.3899C52.8095 58.3899 54.3514 59.0286 55.4883 60.1654C56.6252 61.3023 57.2639 62.8442 57.2639 64.452Z" fill="#FB5C3C"/>
<path d="M51.2019 58.3909C53.2847 58.3909 54.9732 56.7024 54.9732 54.6196C54.9732 52.5368 53.2847 50.8484 51.2019 50.8484C49.1191 50.8484 47.4307 52.5368 47.4307 54.6196C47.4307 56.7024 49.1191 58.3909 51.2019 58.3909Z" fill="#FDB59F"/>
<path d="M39.0355 64.6315C38.0162 64.2957 37.2196 64.0786 36.6864 61.782C36.6487 61.6225 36.5582 61.4804 36.4297 61.3787C36.3011 61.277 36.142 61.2217 35.9781 61.2217C35.8142 61.2217 35.6551 61.277 35.5265 61.3787C35.398 61.4804 35.3075 61.6225 35.2698 61.782C34.7483 64.0277 34.0212 64.2681 32.9206 64.6318C32.7757 64.6801 32.6496 64.7728 32.5603 64.8967C32.4709 65.0206 32.4229 65.1695 32.4229 65.3223C32.4229 65.4751 32.4709 65.624 32.5603 65.748C32.6496 65.8719 32.7757 65.9646 32.9206 66.0129C34.7489 66.6167 34.9558 67.51 35.2695 68.8621C35.3068 69.0221 35.3971 69.1647 35.5258 69.2668C35.6544 69.369 35.8138 69.4245 35.9781 69.4245C36.1423 69.4245 36.3018 69.369 36.4304 69.2668C36.5591 69.1647 36.6494 69.0221 36.6867 68.8621C37.2062 66.6167 37.9743 66.3635 39.0355 66.0129C39.1805 65.9645 39.3065 65.8718 39.3958 65.7478C39.4851 65.6239 39.5331 65.475 39.5331 65.3222C39.5331 65.1694 39.4851 65.0205 39.3958 64.8966C39.3065 64.7726 39.1805 64.6799 39.0355 64.6315ZM35.9924 66.5428C35.7068 66.0624 35.318 65.6515 34.8541 65.3397C35.3251 65.0125 35.7113 64.5778 35.9807 64.0715C36.2435 64.5676 36.6154 64.9976 37.0684 65.3293C36.622 65.6466 36.254 66.0617 35.9924 66.5428Z" fill="#219FFF"/>
<path d="M54.2058 39.8532C56.034 40.457 56.2413 41.3503 56.5549 42.7025C56.5921 42.8625 56.6823 43.0052 56.811 43.1074C56.9396 43.2096 57.0991 43.2652 57.2634 43.2652C57.4277 43.2652 57.5871 43.2096 57.7158 43.1074C57.8444 43.0052 57.9347 42.8625 57.9719 42.7025C58.4928 40.457 59.2598 40.2035 60.321 39.8532C60.4659 39.8049 60.5919 39.7121 60.6812 39.5882C60.7705 39.4642 60.8186 39.3153 60.8186 39.1625C60.8186 39.0098 60.7705 38.8608 60.6812 38.7369C60.5919 38.6129 60.4659 38.5202 60.321 38.4718C59.3013 38.136 58.5051 37.9189 57.9719 35.6223C57.9341 35.4628 57.8437 35.3207 57.7151 35.219C57.5865 35.1173 57.4274 35.062 57.2635 35.062C57.0996 35.062 56.9405 35.1173 56.8119 35.219C56.6834 35.3207 56.5929 35.4628 56.5552 35.6223C56.0337 37.8681 55.3067 38.1082 54.2058 38.4721C54.0609 38.5204 53.9348 38.6131 53.8454 38.737C53.7561 38.861 53.708 39.0099 53.708 39.1627C53.708 39.3155 53.7561 39.4644 53.8454 39.5883C53.9348 39.7123 54.0609 39.8049 54.2058 39.8532ZM57.2661 37.9118C57.5289 38.408 57.9008 38.8381 58.3539 39.1696C57.9074 39.4871 57.5394 39.9024 57.2779 40.3837C56.9921 39.9033 56.6032 39.4923 56.1393 39.1806C56.6106 38.8531 56.9969 38.4179 57.2661 37.911V37.9118Z" fill="#C45312"/>
<path d="M7.21895 37.397C7.35426 37.3975 7.4867 37.3579 7.59947 37.2831C7.71225 37.2083 7.80029 37.1017 7.85245 36.9769C7.90461 36.852 7.91854 36.7145 7.89247 36.5817C7.8664 36.4489 7.80151 36.3269 7.70602 36.231C7.61053 36.1351 7.48873 36.0697 7.35605 36.0431C7.22337 36.0165 7.08579 36.0299 6.96072 36.0816C6.83565 36.1332 6.72872 36.2208 6.65349 36.3333C6.57825 36.4458 6.53809 36.5781 6.53809 36.7134C6.53808 36.8942 6.60973 37.0677 6.73734 37.1958C6.86495 37.3239 7.03812 37.3962 7.21895 37.397Z" fill="#B5B5BE"/>
<path d="M31.0906 2.03044C31.2708 2.05074 31.4516 1.99864 31.5934 1.8856C31.7351 1.77255 31.8262 1.60782 31.8465 1.42764C31.8668 1.24747 31.8147 1.0666 31.7017 0.924842C31.5886 0.783079 31.4239 0.692031 31.2437 0.671725H31.241C31.0624 0.654876 30.8843 0.708903 30.7452 0.822152C30.6061 0.9354 30.5171 1.0988 30.4973 1.27709C30.4776 1.45539 30.5287 1.6343 30.6397 1.77523C30.7507 1.91616 30.9126 2.00782 31.0906 2.03044Z" fill="#B5B5BE"/>
<path d="M56.8755 46.0757H56.8728C56.7384 46.076 56.6097 46.1297 56.5149 46.2249C56.4202 46.3201 56.367 46.449 56.3672 46.5833C56.3674 46.7177 56.4209 46.8464 56.5159 46.9413C56.611 47.0363 56.7398 47.0896 56.8741 47.0896C57.0085 47.0896 57.1373 47.0363 57.2324 46.9413C57.3274 46.8464 57.3809 46.7177 57.3811 46.5833C57.3813 46.449 57.3281 46.3201 57.2333 46.2249C57.1385 46.1297 57.0098 46.076 56.8755 46.0757Z" fill="#B5B5BE"/>
<path d="M59.258 47.7057C59.1191 47.5914 58.9417 47.5346 58.7623 47.5469C58.5829 47.5591 58.4149 47.6395 58.2928 47.7716C58.1747 47.9088 58.1154 48.087 58.1277 48.2676C58.14 48.4483 58.2229 48.6168 58.3584 48.7368C59.5662 49.7894 60.527 51.0953 61.1725 52.5616C61.818 54.0279 62.1323 55.6184 62.093 57.22C62.0537 58.8216 61.6617 60.3948 60.945 61.8277C60.2284 63.2605 59.2046 64.5177 57.9466 65.5097V64.4209C57.9452 63.0909 57.5514 61.7909 56.8143 60.6839C56.0773 59.5768 55.03 58.7118 53.8035 58.1975C54.5691 57.6472 55.1404 56.8681 55.4352 55.9725C55.73 55.0769 55.7331 54.1109 55.444 53.2134C55.155 52.3159 54.5886 51.5333 53.8265 50.9781C53.0644 50.4229 52.1458 50.1238 51.2029 50.1238C50.2601 50.1238 49.3415 50.4229 48.5794 50.9781C47.8173 51.5333 47.2509 52.3159 46.9619 53.2134C46.6728 54.1109 46.6759 55.0769 46.9707 55.9725C47.2655 56.8681 47.8368 57.6472 48.6024 58.1975C47.3751 58.7115 46.3267 59.5763 45.5888 60.6836C44.8508 61.7909 44.4561 63.0914 44.4541 64.422V65.5103C42.4979 63.9661 41.13 61.7981 40.5784 59.3677C40.0267 56.9373 40.3246 54.3913 41.4224 52.1538C42.5201 49.9164 44.3515 48.1228 46.6113 47.0718C48.8711 46.0208 51.4228 45.776 53.8412 46.3781C54.0169 46.4198 54.202 46.3911 54.3568 46.2981C54.5117 46.2051 54.624 46.0552 54.6697 45.8805C54.6917 45.7934 54.6963 45.7028 54.6832 45.6139C54.67 45.525 54.6395 45.4396 54.5932 45.3626C54.547 45.2856 54.486 45.2185 54.4137 45.1651C54.3414 45.1118 54.2593 45.0732 54.1721 45.0517C53.4225 44.8662 52.6572 44.7515 51.8861 44.7091L51.8834 31.347C51.8821 30.8772 51.6951 30.4271 51.3631 30.0947C51.0312 29.7623 50.5813 29.5746 50.1115 29.5727H19.265V18.4099C19.265 17.1039 19.5223 15.8107 20.022 14.6041C20.5218 13.3975 21.2544 12.3012 22.1778 11.3777C23.1013 10.4543 24.1976 9.72172 25.4042 9.22194C26.6108 8.72216 27.904 8.46493 29.21 8.46493C30.5159 8.46493 31.8091 8.72216 33.0157 9.22194C34.2223 9.72172 35.3186 10.4543 36.2421 11.3777C37.1656 12.3012 37.8981 13.3975 38.3979 14.6041C38.8976 15.8107 39.1549 17.1039 39.1549 18.4099V24.9103C39.1554 25.0914 39.2276 25.265 39.3557 25.3931C39.4837 25.5212 39.6573 25.5934 39.8385 25.5939H46.3791C46.5602 25.5931 46.7336 25.5208 46.8616 25.3928C46.9896 25.2648 47.0619 25.0913 47.0627 24.9103V18.4099C47.0613 14.5152 45.7874 10.7277 43.4348 7.6239C41.0823 4.52008 37.78 2.26997 34.0307 1.2161C33.8559 1.16935 33.6699 1.19299 33.5124 1.28196C33.3549 1.37092 33.2386 1.5181 33.1885 1.69188C33.1638 1.77822 33.1565 1.8686 33.1669 1.95779C33.1774 2.04698 33.2054 2.13321 33.2494 2.2115C33.2934 2.28979 33.3525 2.35858 33.4232 2.4139C33.4939 2.46922 33.5749 2.50997 33.6615 2.5338C37.1205 3.51219 40.1665 5.59123 42.338 8.45598C44.5094 11.3207 45.6881 14.8151 45.6955 18.4099V24.2267H40.5234V18.4099C40.5234 15.4097 39.3316 12.5324 37.2102 10.411C35.0888 8.28955 32.2115 7.09774 29.2113 7.09774C26.2112 7.09774 23.3339 8.28955 21.2125 10.411C19.091 12.5324 17.8992 15.4097 17.8992 18.4099V29.5716H12.7244V18.4099C12.716 14.1639 14.3496 10.0792 17.2834 7.00992C20.2173 3.94066 24.2242 2.12459 28.4662 1.94153C28.6471 1.93372 28.8175 1.85448 28.94 1.7212C29.0625 1.58792 29.1271 1.41148 29.1197 1.23059C29.1171 1.14041 29.0963 1.05167 29.0588 0.969633C29.0212 0.887598 28.9676 0.813933 28.901 0.752999C28.8345 0.692064 28.7564 0.645098 28.6714 0.614881C28.5863 0.584664 28.4961 0.57181 28.4061 0.577079C23.8149 0.782952 19.48 2.75189 16.3042 6.07388C13.1284 9.39587 11.3564 13.8149 11.3572 18.4107V29.5724H8.30566C7.83623 29.5746 7.38671 29.7624 7.05525 30.0948C6.72379 30.4272 6.53731 30.8773 6.53652 31.3467V33.9829C6.53062 34.0762 6.54388 34.1696 6.5755 34.2575C6.60711 34.3454 6.6564 34.4259 6.72033 34.494C6.78426 34.5621 6.86147 34.6164 6.9472 34.6535C7.03292 34.6906 7.12534 34.7097 7.21875 34.7097C7.31216 34.7097 7.40458 34.6906 7.4903 34.6535C7.57603 34.6164 7.65324 34.5621 7.71717 34.494C7.7811 34.4259 7.83039 34.3454 7.862 34.2575C7.89362 34.1696 7.90688 34.0762 7.90098 33.9829V31.3467C7.90175 31.2394 7.94456 31.1367 8.02022 31.0606C8.09588 30.9844 8.19835 30.941 8.30566 30.9396H50.1115C50.2191 30.94 50.3222 30.9831 50.3981 31.0595C50.4739 31.1358 50.5164 31.2391 50.5162 31.3467V44.7072C47.3867 44.8816 44.4429 46.248 42.2897 48.5257C40.1364 50.8034 38.9374 53.8193 38.9389 56.9536C38.9396 57.4894 38.9749 58.0247 39.0444 58.5559H8.30566C8.19831 58.5545 8.09579 58.511 8.02012 58.4349C7.94446 58.3587 7.90168 58.2559 7.90098 58.1485V39.4479C7.88999 39.2744 7.81333 39.1116 7.6866 38.9927C7.55986 38.8737 7.39257 38.8075 7.21875 38.8075C7.04493 38.8075 6.87764 38.8737 6.7509 38.9927C6.62417 39.1116 6.54751 39.2744 6.53652 39.4479V58.1485C6.53616 58.6183 6.72226 59.0691 7.05396 59.4018C7.38566 59.7346 7.83584 59.922 8.30566 59.9231H39.3012C39.7679 61.7911 40.6679 63.5229 41.9282 64.9784C43.1886 66.4339 44.7739 67.5722 46.556 68.3012C48.338 69.0301 50.2666 69.3293 52.1857 69.1745C54.1048 69.0196 55.9605 68.4151 57.6026 67.4098C59.2447 66.4045 60.627 65.0268 61.6377 63.388C62.6484 61.7492 63.259 59.8956 63.4202 57.977C63.5814 56.0584 63.2886 54.1288 62.5655 52.3443C61.8424 50.5599 60.7093 48.9708 59.258 47.7057V47.7057ZM48.1127 54.5911C48.1118 53.9814 48.2914 53.385 48.6287 52.8771C48.966 52.3693 49.4461 51.9725 50.0085 51.7369C50.5708 51.5013 51.1903 51.4373 51.7889 51.553C52.3876 51.6687 52.9386 51.9589 53.3726 52.3872C53.8066 52.8154 54.1043 53.3624 54.228 53.9595C54.3518 54.5565 54.2962 55.1768 54.0681 55.7423C53.8401 56.3077 53.4499 56.7931 52.9466 57.1373C52.4433 57.4814 51.8494 57.669 51.2397 57.6763C51.2271 57.6763 51.2151 57.6763 51.2025 57.6763C51.19 57.6763 51.1782 57.6763 51.1659 57.6763C50.3545 57.6639 49.5803 57.3338 49.0095 56.757C48.4386 56.1802 48.1167 55.4026 48.1127 54.5911V54.5911ZM45.8213 66.4266V64.422C45.8213 62.9955 46.388 61.6275 47.3966 60.6188C48.4053 59.6101 49.7733 59.0435 51.1998 59.0435C52.6263 59.0435 53.9943 59.6101 55.003 60.6188C56.0117 61.6275 56.5783 62.9955 56.5783 64.422V66.4285C54.9391 67.361 53.0857 67.8513 51.1998 67.8513C49.3139 67.8513 47.4605 67.361 45.8213 66.4285V66.4266Z" fill="#4B4B56"/>
</svg>
