<svg width="70" height="70" viewBox="0 0 70 70" fill="none" xmlns="http://www.w3.org/2000/svg">
<g clip-path="url(#clip0_13717_5750)">
<path fill-rule="evenodd" clip-rule="evenodd" d="M55.2342 54.7585C61.5897 54.7585 66.9664 58.9487 68.7527 64.7171C69.0666 65.7306 68.8959 66.7389 68.2665 67.5929C67.637 68.4468 66.7243 68.908 65.6634 68.908H44.8053C43.7443 68.908 42.8316 68.4468 42.2022 67.5929C41.5726 66.7389 41.4021 65.7305 41.7158 64.7171C43.5021 58.9487 48.8789 54.7585 55.2342 54.7585Z" fill="#FFD335"/>
<path d="M56.2065 54.1616C60.1219 53.6282 62.8636 50.0217 62.3302 46.1063C61.7968 42.1908 58.1904 39.4491 54.275 39.9825C50.3596 40.5159 47.6179 44.1223 48.1513 48.0378C48.6847 51.9533 52.2912 54.695 56.2065 54.1616Z" fill="#F6DCCD"/>
<path fill-rule="evenodd" clip-rule="evenodd" d="M55.2347 39.907C59.1857 39.907 62.3886 43.1099 62.3886 47.0608C62.3886 51.0118 59.1857 54.2147 55.2347 54.2147C54.9107 54.2147 54.5918 54.1927 54.2793 54.151C57.7785 53.684 60.4777 50.6877 60.4777 47.0608C60.4777 43.4339 57.7785 40.4376 54.2793 39.9706C54.5918 39.929 54.9107 39.907 55.2347 39.907Z" fill="#F1CBBC"/>
<path fill-rule="evenodd" clip-rule="evenodd" d="M14.7656 54.7585C21.1211 54.7585 26.4978 58.9487 28.2841 64.7171C28.598 65.7306 28.4273 66.7389 27.7979 67.5929C27.1684 68.4468 26.2557 68.908 25.1948 68.908H4.33653C3.27559 68.908 2.36286 68.4468 1.7334 67.5929C1.10381 66.7389 0.933324 65.7305 1.24709 64.7171C3.03346 58.9487 8.41034 54.7585 14.7656 54.7585Z" fill="#BCB7F3"/>
<path fill-rule="evenodd" clip-rule="evenodd" d="M14.7662 54.7583C21.1216 54.7583 26.4985 58.9485 28.2847 64.7169C28.5986 65.7303 28.428 66.7387 27.7984 67.5926C27.169 68.4466 26.2562 68.9077 25.1953 68.9077H21.3736C22.4345 68.9077 23.3473 68.4466 23.9767 67.5926C24.6063 66.7387 24.7768 65.7303 24.463 64.7169C22.8589 59.5369 18.3591 55.6302 12.8555 54.8871C13.4804 54.8026 14.1182 54.7583 14.7662 54.7583Z" fill="#BCB7F3"/>
<path d="M21.0929 50.4394C22.9578 46.9546 21.6446 42.6178 18.1598 40.753C14.675 38.8881 10.3382 40.2013 8.47334 43.6861C6.60846 47.1709 7.92166 51.5076 11.4065 53.3725C14.8913 55.2374 19.228 53.9242 21.0929 50.4394Z" fill="#F6DCCD"/>
<path fill-rule="evenodd" clip-rule="evenodd" d="M14.7661 39.907C18.7171 39.907 21.92 43.1099 21.92 47.0608C21.92 51.0118 18.7171 54.2147 14.7661 54.2147C14.4421 54.2147 14.1232 54.1927 13.8105 54.151C17.3097 53.684 20.009 50.6877 20.009 47.0608C20.009 43.4339 17.3097 40.4376 13.8105 39.9706C14.1232 39.929 14.4421 39.907 14.7661 39.907Z" fill="#F1CBBC"/>
<path fill-rule="evenodd" clip-rule="evenodd" d="M26.4414 14.4446H60.8944C62.7017 14.4446 64.1756 15.9185 64.1756 17.7258V36.3003C64.1756 36.5979 63.9946 36.851 63.7129 36.9473C63.4312 37.0434 63.1332 36.9538 62.9512 36.7183L58.1853 30.5507H26.4414C24.6341 30.5507 23.1602 29.0768 23.1602 27.2695V17.7258C23.1602 15.9185 24.6341 14.4446 26.4414 14.4446Z" fill="#FFD335"/>
<path fill-rule="evenodd" clip-rule="evenodd" d="M59.5273 14.4446H60.8945C62.7018 14.4446 64.1758 15.9185 64.1758 17.7258V36.3003C64.1758 36.5979 63.9948 36.851 63.713 36.9473C63.4314 37.0434 63.1333 36.9538 62.9513 36.7183L62.7807 36.4975C62.7989 36.435 62.8086 36.3688 62.8086 36.3003V17.7258C62.8086 15.9185 61.3346 14.4446 59.5273 14.4446Z" fill="#FFD064"/>
<path fill-rule="evenodd" clip-rule="evenodd" d="M46.0195 1.09521H11.5664C9.75912 1.09521 8.28516 2.56918 8.28516 4.37646V22.9509C8.28516 23.2486 8.46617 23.5016 8.74795 23.5979C9.02959 23.694 9.32764 23.6045 9.50961 23.3689L14.2755 17.2014H46.0195C47.8268 17.2014 49.3008 15.7274 49.3008 13.9201V4.37646C49.3008 2.56918 47.8268 1.09521 46.0195 1.09521Z" fill="#F3B7D8"/>
<path fill-rule="evenodd" clip-rule="evenodd" d="M46.02 1.09521H44.6528C46.4601 1.09521 47.934 2.56918 47.934 4.37646V13.9201C47.934 15.7274 46.4601 17.2014 44.6528 17.2014H46.02C47.8272 17.2014 49.3012 15.7274 49.3012 13.9201V4.37646C49.3012 2.56918 47.8272 1.09521 46.02 1.09521ZM8.31348 23.1481C8.37432 23.3569 8.53154 23.5238 8.74838 23.5979C9.03002 23.694 9.32807 23.6045 9.51004 23.3689L14.2759 17.2014H12.9087L8.31348 23.1481Z" fill="#BCB7F3"/>
<path fill-rule="evenodd" clip-rule="evenodd" d="M67.7086 65.0406C66.0065 59.5458 60.9948 55.8531 55.2354 55.8531H55.2347H55.2328C49.4742 55.8531 44.4623 59.5458 42.7616 65.0406C42.548 65.727 42.6564 66.3668 43.0827 66.9434C43.5078 67.5219 44.0876 67.8141 44.8055 67.8141H65.6632C66.3811 67.8141 66.9609 67.5219 67.386 66.9434C67.8125 66.3667 67.921 65.7268 67.7086 65.0406ZM55.2329 53.6651H55.2348H55.2355C58.5773 53.6639 61.2954 50.9458 61.2954 47.6046C61.2954 44.2628 58.5761 41.5454 55.235 41.5454C51.8931 41.5454 49.175 44.2628 49.175 47.6046C49.1749 50.9458 51.8918 53.6639 55.2329 53.6651ZM69.1471 68.2423C68.3105 69.3769 67.0728 70.0019 65.6633 70.0019H44.8056C43.3964 70.0019 42.1585 69.3769 41.3219 68.2423C40.4853 67.1078 40.2544 65.7404 40.6711 64.3935C41.6135 61.3503 43.544 58.6188 46.106 56.6991C47.4715 55.6762 48.9724 54.9042 50.5597 54.3939C48.4041 52.9052 46.9877 50.4182 46.9877 47.6046C46.9877 43.0572 50.6874 39.3575 55.2348 39.3575C59.7828 39.3575 63.4825 43.0572 63.4825 47.6046C63.4825 50.4182 62.0661 52.9053 59.9105 54.3939C61.4978 54.9054 62.9974 55.6762 64.363 56.6991C66.9257 58.6187 68.8561 61.3503 69.7978 64.3935C70.2146 65.7404 69.9836 67.1078 69.1471 68.2423ZM27.2402 65.0406C25.538 59.5458 20.5256 55.8531 14.767 55.8531H14.7657H14.7644C9.00584 55.8531 3.99401 59.5458 2.29186 65.0406C2.07967 65.727 2.18809 66.3668 2.61438 66.9434C3.03944 67.5219 3.61926 67.8141 4.33717 67.8141H25.1948C25.9128 67.8141 26.492 67.5219 26.9176 66.9434C27.3439 66.3667 27.4517 65.7268 27.2402 65.0406ZM14.7643 53.6651H14.7655H14.7669C18.1087 53.6639 20.8268 50.9458 20.8268 47.6046C20.8268 44.2628 18.1075 41.5454 14.7657 41.5454C11.4245 41.5454 8.70643 44.2628 8.70643 47.6046C8.70643 50.9458 11.4232 53.6639 14.7643 53.6651ZM29.3294 64.3937C29.7461 65.7405 29.5152 67.1078 28.6786 68.2424C27.8413 69.3771 26.6041 70.002 25.1948 70.002H4.33703C2.92705 70.002 1.68989 69.3771 0.853303 68.2424C0.016721 67.108 -0.214197 65.7405 0.202522 64.3937C1.14424 61.3505 3.07471 58.619 5.63668 56.6993C7.00278 55.6764 8.50381 54.9043 10.0911 54.3941C7.93547 52.9053 6.51906 50.4183 6.51906 47.6048C6.51906 43.0573 10.2181 39.3576 14.7655 39.3576C19.3142 39.3576 23.0139 43.0573 23.0139 47.6048C23.0139 50.4183 21.5975 52.9055 19.4412 54.3941C21.0285 54.9055 22.5288 55.6764 23.8942 56.6993C26.4564 58.6188 28.387 61.3505 29.3294 64.3937ZM30.0265 10.2424H41.5832C42.1876 10.2424 42.6771 9.75211 42.6771 9.1485C42.6771 8.54406 42.1875 8.05461 41.5832 8.05461H30.0265C29.4221 8.05461 28.9326 8.5442 28.9326 9.1485C28.9326 9.75225 29.4222 10.2424 30.0265 10.2424ZM16.0027 10.2424H24.3401C24.9444 10.2424 25.434 9.75211 25.434 9.1485C25.434 8.54406 24.9444 8.05461 24.3401 8.05461H16.0027C15.3989 8.05461 14.9094 8.5442 14.9094 9.1485C14.9095 9.75225 15.3989 10.2424 16.0027 10.2424ZM9.37908 21.7493V4.3766C9.37908 3.17047 10.3607 2.18938 11.5663 2.18938H46.0196C47.2257 2.18938 48.2075 3.17047 48.2075 4.3766V13.9203C48.2075 15.1264 47.2258 16.1082 46.0196 16.1082H14.2747C13.9373 16.1082 13.6174 16.2648 13.409 16.5325L9.37908 21.7493ZM46.0196 18.2954H24.2544V27.27C24.2544 28.4762 25.236 29.4572 26.4416 29.4572H58.1865C58.5237 29.4572 58.8438 29.6139 59.052 29.8823L63.0821 35.0992V17.7258C63.0821 16.5197 62.1004 15.5386 60.8948 15.5386H50.0831C49.4375 17.1517 47.8598 18.2954 46.0196 18.2954ZM7.19186 24.9537C7.19186 25.4214 7.4899 25.8375 7.93233 25.989C8.04772 26.0283 8.16776 26.0471 8.2852 26.0471C8.61742 26.0471 8.93994 25.8955 9.15076 25.6227L14.812 18.2954H22.0664V27.27C22.0664 29.6824 24.0299 31.6452 26.4416 31.6452H57.6491L63.3104 38.9718C63.5207 39.2452 63.8439 39.3975 64.1761 39.3975C64.2935 39.3975 64.4141 39.3781 64.529 39.3382C64.9721 39.1866 65.2701 38.7712 65.2701 38.303V17.7258C65.2701 15.3136 63.3067 13.3514 60.895 13.3514H50.3947V4.3766C50.3947 1.96434 48.4313 0.00146484 46.0196 0.00146484H11.5663C9.15459 0.00146484 7.19186 1.9642 7.19186 4.3766V24.9537ZM42.4347 21.4042H30.878C30.2737 21.4042 29.7846 21.8938 29.7846 22.4981C29.7846 23.1019 30.2735 23.5915 30.878 23.5915H42.4347C43.039 23.5915 43.5286 23.1019 43.5286 22.4981C43.5286 21.8938 43.039 21.4042 42.4347 21.4042ZM47.0271 22.4983C47.0271 23.102 47.5166 23.5916 48.1209 23.5916H56.4578C57.0628 23.5916 57.5517 23.102 57.5517 22.4983C57.5517 21.894 57.0628 21.4044 56.4578 21.4044H48.1211C47.5166 21.4042 47.0271 21.8938 47.0271 22.4983Z" fill="#7E739C"/>
</g>
<defs>
<clipPath id="clip0_13717_5750">
<rect width="70" height="70" fill="white"/>
</clipPath>
</defs>
</svg>
