<svg width="70" height="70" viewBox="0 0 70 70" fill="none" xmlns="http://www.w3.org/2000/svg">
<g clip-path="url(#clip0_13717_5770)">
<path d="M26.6598 36.2143H20.7711C18.297 36.2143 15.8491 35.3905 13.878 33.895L6.16692 28.0438C2.5801 25.3222 1.17901 20.6416 2.68059 16.3968C4.11573 12.3398 7.97147 9.57955 12.275 9.52828C16.48 9.47837 18.8692 9.61126 18.9687 9.61701L18.7054 14.2453C18.6824 14.2441 16.3579 14.1163 12.3301 14.1639C9.96209 14.192 7.84049 15.7107 7.05094 17.9429C6.22475 20.2783 6.99557 22.8536 8.96911 24.351L16.68 30.2022C17.8497 31.0898 19.3026 31.5785 20.7708 31.5785H26.6596V36.2143H26.6598Z" fill="#FDD95C"/>
<path d="M13.8789 31.4527L6.16787 25.6016C3.8818 23.8669 2.48549 21.3361 2.16078 18.6299C1.73313 22.2047 3.20244 25.7938 6.16787 28.0439L13.8789 33.8951C15.8499 35.3906 18.298 36.2144 20.772 36.2144H26.6608V33.772H20.772C18.298 33.772 15.8499 32.9483 13.8789 31.4527Z" fill="#ECBE6B"/>
<path d="M43.3613 36.2143H49.2501C51.7241 36.2143 54.1721 35.3905 56.1432 33.895L63.8542 28.0438C67.4411 25.3222 68.8422 20.6416 67.3406 16.3968C65.9054 12.3398 62.0497 9.57955 57.7462 9.52828C53.5411 9.47837 51.152 9.61126 51.0524 9.61701L51.3158 14.2453C51.3387 14.2441 53.6632 14.1163 57.6911 14.1639C60.0591 14.192 62.1807 15.7107 62.9702 17.9429C63.7964 20.2783 63.0256 22.8536 61.0521 24.351L53.3411 30.2022C52.1715 31.0898 50.7186 31.5785 49.2504 31.5785H43.3616V36.2143H43.3613Z" fill="#FDD95C"/>
<path d="M67.3407 16.3969C66.669 14.4978 65.4667 12.8831 63.9364 11.697C64.5966 12.548 65.1304 13.5088 65.5012 14.5575C67.0027 18.8023 65.6016 23.4829 62.0148 26.2045L54.3037 32.0557C52.3328 33.5512 49.8847 34.375 47.4107 34.375H43.3613V36.2144H49.2501C51.7241 36.2144 54.1721 35.3907 56.1432 33.8951L63.8542 28.0439C67.4412 25.3223 68.8423 20.6417 67.3407 16.3969Z" fill="#ECBE6B"/>
<path d="M42.5183 53.1934L39.776 51.115C38.5975 50.2219 37.9052 48.8283 37.9052 47.3495V38.124H31.6942V47.3495C31.6942 48.8283 31.0018 50.2219 29.8233 51.115L27.081 53.1934C26.2263 53.8412 26.6844 55.2042 27.7568 55.2042H41.8424C42.915 55.204 43.3731 53.8412 42.5183 53.1934Z" fill="#FDD95C"/>
<path d="M42.5189 53.1934L39.7766 51.115C38.598 50.2219 37.9057 48.8283 37.9057 47.3495V38.124H34.6865V47.3495C34.6865 48.8283 35.3789 50.2219 36.5574 51.115L39.2997 53.1934C40.1545 53.8412 39.6963 55.2042 38.6239 55.2042H41.8431C42.9155 55.204 43.3736 53.8412 42.5189 53.1934Z" fill="#ECBE6B"/>
<path d="M52.429 2.78467H17.5913C16.9238 2.78467 16.3828 3.32566 16.3828 3.99313V16.468C16.3828 21.8092 17.87 27.0449 20.678 31.5884L23.895 36.7939C28.9369 44.9523 40.7826 45.0081 45.9011 36.8974L49.199 31.6714C52.0985 27.0767 53.6374 21.7548 53.6374 16.3217V3.99313C53.6374 3.3258 53.0964 2.78467 52.429 2.78467Z" fill="#FDD95C"/>
<path opacity="0.15" d="M52.4292 2.78467H46.8452V9.52928C46.8452 14.9623 45.3063 20.2844 42.4067 24.8791L39.1088 30.105C35.4574 35.891 28.3831 37.5197 22.7969 35.0169L23.8951 36.794C28.9371 44.9524 40.7828 45.0082 45.9013 36.8975L49.1992 31.6716C52.0987 27.0769 53.6376 21.7549 53.6376 16.3219V3.99313C53.6376 3.3258 53.0966 2.78467 52.4292 2.78467Z" fill="white"/>
<path d="M35.0001 62.8565C28.387 62.8565 21.9698 60.8822 16.4423 57.1467C11.0673 53.5144 6.78381 48.4058 4.05491 42.3732C3.81497 41.8431 4.05039 41.219 4.58045 40.9792C5.11065 40.7393 5.73463 40.9748 5.9743 41.5047C11.2629 53.1956 22.6563 60.7497 35.0001 60.7497C47.3439 60.7497 58.7371 53.1956 64.0258 41.5047C64.2654 40.975 64.8895 40.7394 65.4196 40.9792C65.9497 41.219 66.1851 41.8431 65.9452 42.3732C63.2163 48.4058 58.9327 53.5145 53.5578 57.1467C48.0302 60.882 41.6132 62.8565 35.0001 62.8565Z" fill="#0DC183"/>
<path d="M68.7103 39.9012C67.5598 42.6241 65.5983 44.3966 64.3291 43.8604C63.06 43.3242 62.9637 40.6821 64.1141 37.9592C64.9475 35.9865 67.6941 32.8505 69.1442 31.272C69.4575 30.9311 70.0249 31.1709 69.9987 31.6331C69.878 33.7732 69.5437 37.9286 68.7103 39.9012Z" fill="#C9E8AE"/>
<path d="M69.145 31.2723C68.7427 31.7101 68.2406 32.268 67.7074 32.8875C67.5166 34.9868 67.1768 37.4889 66.5848 38.8902C65.7743 40.8083 64.5615 42.2536 63.4717 42.7536C63.6346 43.2956 63.9211 43.6879 64.3299 43.8607C65.599 44.3969 67.5605 42.6244 68.711 39.9015C69.5445 37.9288 69.8786 33.7735 69.9995 31.6334C70.0256 31.171 69.4582 30.9313 69.145 31.2723Z" fill="#A9E8B5"/>
<path d="M61.0042 45.9551C61.0906 48.7458 60.1062 51.0407 58.8055 51.081C57.5047 51.1214 56.3801 48.8916 56.2935 46.1009C56.2309 44.0791 57.3513 40.3043 57.9735 38.3777C58.1079 37.9615 58.6894 37.9435 58.8492 38.3506C59.5895 40.235 60.9416 43.9333 61.0042 45.9551Z" fill="#C9E8AE"/>
<path d="M53.1383 51.4693C54.2379 54.0356 54.1596 56.5317 52.9633 57.0443C51.767 57.5568 49.9059 55.8919 48.8062 53.3254C48.0096 51.4661 47.6742 47.5427 47.5498 45.522C47.523 45.0855 48.0577 44.8565 48.3552 45.1769C49.7325 46.6609 52.3417 49.61 53.1383 51.4693Z" fill="#C9E8AE"/>
<path d="M53.1383 51.4691C52.3417 49.6099 49.7325 46.6607 48.3552 45.1768C48.0577 44.8561 47.523 45.0853 47.5498 45.5218C47.5853 46.0995 47.6383 46.8328 47.7141 47.6287C49 49.1186 50.4366 50.9446 50.9921 52.241C51.7624 54.0387 51.9538 55.8008 51.5887 56.8718C52.0859 57.1417 52.562 57.2158 52.9633 57.0439C54.1596 56.5315 54.2379 54.0354 53.1383 51.4691Z" fill="#A9E8B5"/>
<path d="M60.151 57.4466C57.5147 56.5275 55.7247 54.7861 56.1532 53.5571C56.5817 52.3283 59.0663 52.0771 61.7026 52.9964C63.6126 53.6624 66.7354 56.061 68.3112 57.3322C68.6516 57.6067 68.4601 58.1561 68.0227 58.1595C65.998 58.1755 62.061 58.1126 60.151 57.4466Z" fill="#C9E8AE"/>
<path d="M51.778 63.2044C49.1416 62.2853 47.3517 60.5439 47.7802 59.3149C48.2086 58.0861 50.6932 57.835 53.3296 58.7542C55.2395 59.4202 58.3623 61.8188 59.9381 63.09C60.2786 63.3645 60.087 63.9139 59.6497 63.9173C57.6251 63.9333 53.6881 63.8704 51.778 63.2044Z" fill="#C9E8AE"/>
<path d="M68.3113 57.3323C67.6709 56.8157 66.7752 56.113 65.8091 55.416C63.6811 55.413 60.282 55.305 58.5499 54.7011C57.6376 54.383 56.8268 53.9664 56.174 53.5066C56.1672 53.5235 56.1592 53.5398 56.1532 53.5572C55.7247 54.786 57.5147 56.5274 60.151 57.4467C62.061 58.1126 65.9982 58.1755 68.0227 58.1597C68.4602 58.1563 68.6518 57.6069 68.3113 57.3323Z" fill="#A9E8B5"/>
<path d="M59.9381 63.0903C59.2978 62.5738 58.402 61.8711 57.4359 61.1741C55.3078 61.1711 51.9088 61.063 50.1767 60.4592C49.2644 60.141 48.4536 59.7244 47.8009 59.2646C47.7941 59.2816 47.7862 59.298 47.7802 59.3152C47.3517 60.5441 49.1416 62.2854 51.778 63.2047C53.6879 63.8707 57.6251 63.9336 59.6497 63.9176C60.0869 63.9142 60.2784 63.3648 59.9381 63.0903Z" fill="#A9E8B5"/>
<path d="M1.28931 39.9012C2.4398 42.6241 4.4013 44.3966 5.67046 43.8604C6.93962 43.3242 7.03587 40.6821 5.88552 37.9592C5.05208 35.9865 2.30554 32.8505 0.855363 31.272C0.542141 30.9311 -0.0252423 31.1709 0.000870965 31.6331C0.121594 33.7732 0.455871 37.9286 1.28931 39.9012Z" fill="#C9E8AE"/>
<path d="M5.88552 37.9592C5.05208 35.9865 2.30554 32.8505 0.855363 31.272C0.542141 30.9311 -0.0252423 31.1709 0.000870965 31.6331C0.0345038 32.2294 0.0848163 32.982 0.157824 33.8003C1.55044 35.4167 3.16058 37.4587 3.76501 38.8892C4.56167 40.7748 4.76005 42.6211 4.38544 43.7567C4.84892 43.9732 5.29079 44.0208 5.67046 43.8604C6.93976 43.3242 7.03601 40.6821 5.88552 37.9592Z" fill="#A9E8B5"/>
<path d="M8.99551 45.9551C8.90911 48.7458 9.89348 51.0407 11.1942 51.081C12.495 51.1214 13.6196 48.8916 13.7062 46.1009C13.7688 44.0791 12.6484 40.3043 12.0262 38.3777C11.8918 37.9615 11.3103 37.9435 11.1505 38.3506C10.4101 40.235 9.05813 43.9333 8.99551 45.9551Z" fill="#C9E8AE"/>
<path d="M61.0037 45.9549C60.9411 43.9332 59.5891 40.2349 58.8489 38.3505C58.6889 37.9435 58.1075 37.9616 57.9731 38.3776C57.7899 38.9448 57.5636 39.6727 57.3369 40.4683C57.9893 42.3241 58.659 44.5462 58.7026 45.9549C58.7621 47.8754 58.3145 49.561 57.6054 50.4388C57.9654 50.8589 58.3754 51.0942 58.8049 51.0809C60.1057 51.0408 61.0903 48.7457 61.0037 45.9549Z" fill="#A9E8B5"/>
<path d="M12.0264 38.3776C11.892 37.9615 11.3105 37.9436 11.1506 38.3506C10.9261 38.922 10.6454 39.6607 10.3613 40.4685C10.9045 42.3756 11.4493 44.6745 11.4051 46.101C11.3472 47.9704 10.8231 49.5867 10.0928 50.439C10.4139 50.8367 10.7888 51.0686 11.1945 51.0811C12.4952 51.1215 13.6198 48.8917 13.7064 46.101C13.769 44.0792 12.6486 40.3043 12.0264 38.3776Z" fill="#A9E8B5"/>
<path d="M16.862 51.469C15.7624 54.0354 15.8407 56.5315 17.037 57.044C18.2333 57.5566 20.0945 55.8916 21.1941 53.3251C21.9908 51.4659 22.3261 47.5425 22.4505 45.5218C22.4773 45.0852 21.9426 44.8562 21.6451 45.1767C20.2678 46.6606 17.6587 49.6098 16.862 51.469Z" fill="#C9E8AE"/>
<path d="M21.6456 45.1768C21.2159 45.6397 20.6663 46.2454 20.0891 46.9161C19.8961 48.8563 19.5664 51.1094 19.0189 52.3873C18.2835 54.1035 17.2078 55.4155 16.2178 55.9438C16.3661 56.4827 16.6396 56.8735 17.0374 57.0439C18.2337 57.5565 20.0948 55.8915 21.1945 53.3251C21.9911 51.4658 22.3265 47.5424 22.4509 45.5217C22.4779 45.0853 21.9431 44.8562 21.6456 45.1768Z" fill="#A9E8B5"/>
<path d="M9.84902 57.4466C12.4854 56.5275 14.2753 54.7861 13.8468 53.5571C13.4183 52.3283 10.9337 52.0771 8.2974 52.9964C6.38744 53.6624 3.26464 56.061 1.68882 57.3322C1.34853 57.6067 1.53994 58.1561 1.9773 58.1595C4.00197 58.1755 7.93906 58.1126 9.84902 57.4466Z" fill="#C9E8AE"/>
<path d="M18.2221 63.2044C20.8584 62.2853 22.6483 60.5439 22.2199 59.3149C21.7914 58.0861 19.3068 57.835 16.6704 58.7542C14.7605 59.4202 11.6377 61.8188 10.0619 63.09C9.72158 63.3645 9.91298 63.9139 10.3503 63.9173C12.3749 63.9333 16.312 63.8704 18.2221 63.2044Z" fill="#C9E8AE"/>
<path d="M13.8469 53.5573C13.6715 53.0543 13.1512 52.7154 12.4173 52.5532C12.0127 53.6244 10.4885 54.8152 8.46371 55.5211C7.19496 55.9635 5.03207 56.1396 3.12922 56.2035C2.58043 56.6207 2.08551 57.0123 1.68889 57.3324C1.34846 57.6069 1.54 58.1562 1.97736 58.1596C4.00189 58.1755 7.93898 58.1126 9.84908 57.4467C12.4854 56.5276 14.2753 54.7862 13.8469 53.5573Z" fill="#A9E8B5"/>
<path d="M22.2199 59.3153C22.0444 58.8124 21.5242 58.4734 20.7903 58.3113C20.3856 59.3825 18.8615 60.5733 16.8367 61.2792C15.5679 61.7216 13.4051 61.8977 11.5022 61.9615C10.9534 62.3788 10.4585 62.7704 10.0619 63.0904C9.72158 63.365 9.91298 63.9143 10.3503 63.9177C12.3749 63.9336 16.312 63.8707 18.2221 63.2049C20.8584 62.2856 22.6483 60.5442 22.2199 59.3153Z" fill="#A9E8B5"/>
<path d="M34.6857 28.3061C39.0393 28.3061 42.5686 24.7768 42.5686 20.4232C42.5686 16.0696 39.0393 12.5403 34.6857 12.5403C30.332 12.5403 26.8027 16.0696 26.8027 20.4232C26.8027 24.7768 30.332 28.3061 34.6857 28.3061Z" fill="#C45312"/>
<path d="M35.2618 16.9174L36.0871 18.5896C36.1622 18.7415 36.3071 18.8469 36.4749 18.8712L38.3203 19.1393C38.7426 19.2007 38.9112 19.7197 38.6056 20.0176L37.2703 21.3193C37.1489 21.4376 37.0935 21.6081 37.1222 21.775L37.4375 23.613C37.5097 24.0336 37.0682 24.3543 36.6905 24.1558L35.0399 23.2881C34.8899 23.2092 34.7107 23.2092 34.5607 23.2881L32.9101 24.1558C32.5323 24.3543 32.0909 24.0336 32.163 23.613L32.4783 21.775C32.507 21.6079 32.4517 21.4376 32.3302 21.3193L30.9949 20.0176C30.6893 19.7197 30.8579 19.2007 31.2802 19.1393L33.1257 18.8712C33.2934 18.8469 33.4384 18.7415 33.5134 18.5896L34.3388 16.9174C34.5272 16.5347 35.073 16.5347 35.2618 16.9174Z" fill="#FFE07D"/>
<path d="M38.6058 20.0175C38.9113 19.7196 38.7428 19.2006 38.3204 19.1393L37.6476 19.0415L35.8543 20.7896C35.6745 20.9647 35.5926 21.2171 35.635 21.4644L36.0378 23.8124L36.6906 24.1556C37.0684 24.3541 37.5098 24.0334 37.4376 23.6128L37.1224 21.7748C37.0937 21.6077 37.149 21.4374 37.2704 21.3191L38.6058 20.0175Z" fill="#FDD95C"/>
<path d="M45.2388 67.2151H24.7833C24.1371 67.2151 23.6133 66.6912 23.6133 66.0451V56.3741C23.6133 55.7279 24.1372 55.2041 24.7833 55.2041H45.2388C45.885 55.2041 46.4088 55.728 46.4088 56.3741V66.0451C46.4089 66.6912 45.885 67.2151 45.2388 67.2151Z" fill="#407093"/>
<path d="M45.2419 55.2041H43.0258V62.6653C43.0258 63.3097 42.5034 63.8321 41.8589 63.8321H23.6133V66.0482C23.6133 66.6927 24.1357 67.2151 24.7802 67.2151H45.2419C45.8864 67.2151 46.4088 66.6927 46.4088 66.0482V56.371C46.4089 55.7265 45.8864 55.2041 45.2419 55.2041Z" fill="#365E7D"/>
</g>
<defs>
<clipPath id="clip0_13717_5770">
<rect width="70" height="70" fill="white"/>
</clipPath>
</defs>
</svg>
