<svg width="70" height="70" viewBox="0 0 70 70" fill="none" xmlns="http://www.w3.org/2000/svg">
<g clip-path="url(#clip0_13717_5594)">
<path opacity="0.8" d="M5.69824 7.32544H64.3029V43.9534H5.69824V7.32544Z" fill="#FFAEE4" fill-opacity="0.83"/>
<path d="M35 30.3333L21 23.7451V32.6666L35 39.6666L49 32.6666V23.7451L35 30.3333Z" fill="#FFD335"/>
<path d="M35.0003 11.6665L15.167 20.9998L35.0003 30.3332L54.8337 20.9998L35.0003 11.6665Z" fill="#FFD335"/>
<path d="M35 31.5C34.8297 31.5 34.6605 31.4627 34.503 31.3892L14.6697 22.0559C14.2613 21.8634 14 21.4515 14 21C14 20.5485 14.2613 20.1367 14.6697 19.9442L34.503 10.6109C34.818 10.4627 35.182 10.4627 35.497 10.6109L55.3303 19.9442C55.7387 20.1367 56 20.5485 56 21C56 21.4515 55.7387 21.8634 55.3303 22.0559L35.497 31.3892C35.3395 31.4627 35.1703 31.5 35 31.5ZM17.9072 21L35 29.0442L52.0928 21L35 12.9559L17.9072 21Z" fill="#7A75DD"/>
<path d="M34.9997 40.8335C34.8212 40.8335 34.6415 40.7927 34.4782 40.711L20.4782 33.711C20.0827 33.5127 19.833 33.109 19.833 32.6668V23.7453C19.833 23.3463 20.0372 22.9742 20.3743 22.7607C20.7115 22.546 21.135 22.5215 21.4955 22.6895L34.9997 29.0443L48.5027 22.6895C48.8643 22.5203 49.2878 22.546 49.6238 22.7607C49.9622 22.9742 50.1663 23.3463 50.1663 23.7453V32.6668C50.1663 33.109 49.9167 33.5127 49.5212 33.711L35.5212 40.711C35.3578 40.7927 35.1782 40.8335 34.9997 40.8335ZM22.1663 31.9458L34.9997 38.3625L47.833 31.9458V25.584L35.4967 31.3893C35.1817 31.5375 34.8177 31.5375 34.5027 31.3893L22.1663 25.584V31.9458Z" fill="#7A75DD"/>
<path d="M54.833 22.1666H34.9997C34.3557 22.1666 33.833 21.6439 33.833 20.9999C33.833 20.3559 34.3557 19.8333 34.9997 19.8333H54.833C55.477 19.8333 55.9997 20.3559 55.9997 20.9999C55.9997 21.6439 55.477 22.1666 54.833 22.1666Z" fill="#7A75DD"/>
<path d="M54.8337 32.6666C54.1897 32.6666 53.667 32.1439 53.667 31.4999V20.9999C53.667 20.3559 54.1897 19.8333 54.8337 19.8333C55.4777 19.8333 56.0003 20.3559 56.0003 20.9999V31.4999C56.0003 32.1439 55.4777 32.6666 54.8337 32.6666Z" fill="#7A75DD"/>
<path d="M34.9997 24.5002C34.3557 24.5002 33.833 23.9776 33.833 23.3336V18.6669C33.833 18.0229 34.3557 17.5002 34.9997 17.5002C35.6437 17.5002 36.1663 18.0229 36.1663 18.6669V23.3336C36.1663 23.9776 35.6437 24.5002 34.9997 24.5002Z" fill="#7A75DD"/>
<path d="M52.4984 36.1665C52.2767 36.1665 52.0515 36.1035 51.852 35.9705C51.3165 35.6135 51.1719 34.889 51.5289 34.3524L53.8622 30.8524C54.2192 30.3157 54.9425 30.1699 55.4804 30.5292C56.0159 30.8862 56.1605 31.6107 55.8035 32.1474L53.4702 35.6474C53.245 35.9845 52.8752 36.1665 52.4984 36.1665Z" fill="#7A75DD"/>
<path d="M57.168 36.1668C56.7912 36.1668 56.4213 35.9848 56.1962 35.6476L53.8628 32.1476C53.5058 31.6121 53.6505 30.8865 54.186 30.5295C54.7215 30.1701 55.446 30.316 55.8042 30.8526L58.1375 34.3526C58.4945 34.8881 58.3498 35.6138 57.8143 35.9708C57.6148 36.1038 57.3897 36.1668 57.168 36.1668Z" fill="#7A75DD"/>
<path d="M34.9997 35.0001C34.3557 35.0001 33.833 34.4774 33.833 33.8334V30.3334C33.833 29.6894 34.3557 29.1667 34.9997 29.1667C35.6437 29.1667 36.1663 29.6894 36.1663 30.3334V33.8334C36.1663 34.4774 35.6437 35.0001 34.9997 35.0001Z" fill="#7A75DD"/>
<path d="M68.8333 45.5001H1.16667C0.522667 45.5001 0 44.9774 0 44.3334V5.83458C0 3.26091 2.09417 1.16675 4.66783 1.16675H65.3322C67.9058 1.16675 70 3.26091 70 5.83458V44.3334C70 44.9774 69.4773 45.5001 68.8333 45.5001ZM2.33333 43.1668H67.6667V5.83458C67.6667 4.54658 66.6202 3.50008 65.3322 3.50008H4.66783C3.37983 3.50008 2.33333 4.54658 2.33333 5.83458V43.1668Z" fill="#9E9DE1"/>
<path d="M65.3322 54.8334H4.66783C2.09417 54.8334 0 52.7392 0 50.1656V44.3334C0 43.6894 0.522667 43.1667 1.16667 43.1667H68.8333C69.4773 43.1667 70 43.6894 70 44.3334V50.1656C70 52.7392 67.9058 54.8334 65.3322 54.8334ZM2.33333 45.5001V50.1656C2.33333 51.4536 3.37983 52.5001 4.66783 52.5001H65.3322C66.6202 52.5001 67.6667 51.4536 67.6667 50.1656V45.5001H2.33333Z" fill="#9E9DE1"/>
<path opacity="0.2" d="M38.5007 50.1668H31.5007C30.8567 50.1668 30.334 49.6442 30.334 49.0002C30.334 48.3562 30.8567 47.8335 31.5007 47.8335H38.5007C39.1447 47.8335 39.6673 48.3562 39.6673 49.0002C39.6673 49.6442 39.1447 50.1668 38.5007 50.1668Z" fill="#7A75DD"/>
<path d="M50.1663 68.8335H19.833C17.9033 68.8335 16.333 67.2632 16.333 65.3335C16.333 63.4038 17.9033 61.8335 19.833 61.8335H50.1663C52.096 61.8335 53.6663 63.4038 53.6663 65.3335C53.6663 67.2632 52.096 68.8335 50.1663 68.8335ZM19.833 64.1668C19.1902 64.1668 18.6663 64.6907 18.6663 65.3335C18.6663 65.9763 19.1902 66.5002 19.833 66.5002H50.1663C50.8092 66.5002 51.333 65.9763 51.333 65.3335C51.333 64.6907 50.8092 64.1668 50.1663 64.1668H19.833Z" fill="#9E9DE1"/>
<path d="M47.8333 64.1667H22.1667C21.5227 64.1667 21 63.644 21 63C21 62.356 21.5227 61.8333 22.1667 61.8333C26.0377 61.8333 28 59.0858 28 53.6667C28 53.0227 28.5227 52.5 29.1667 52.5H40.8333C41.4773 52.5 42 53.0227 42 53.6667C42 59.0858 43.9623 61.8333 47.8333 61.8333C48.4773 61.8333 49 62.356 49 63C49 63.644 48.4773 64.1667 47.8333 64.1667ZM27.8495 61.8333H42.1517C40.7143 60.242 39.8685 57.8725 39.6993 54.8333H30.3018C30.1315 57.8725 29.2868 60.242 27.8495 61.8333Z" fill="#9E9DE1"/>
</g>
<defs>
<clipPath id="clip0_13717_5594">
<rect width="70" height="70" fill="white"/>
</clipPath>
</defs>
</svg>
