<svg width="15" height="15" viewBox="0 0 15 15" fill="none" xmlns="http://www.w3.org/2000/svg">
<path d="M13.8019 7.12237C13.2869 6.03751 12.6741 5.15274 11.9635 4.46807L11.2182 5.21339C11.8259 5.7942 12.3553 6.55401 12.8131 7.5003C11.5944 10.0228 9.86437 11.221 7.50012 11.221C6.79045 11.221 6.13678 11.1117 5.53913 10.8932L4.73156 11.7007C5.56164 12.084 6.48449 12.2757 7.50012 12.2757C10.3155 12.2757 12.4161 10.8094 13.8019 7.87676C13.8576 7.75882 13.8865 7.63001 13.8865 7.49957C13.8865 7.36913 13.8576 7.24031 13.8019 7.12237V7.12237ZM12.8707 2.42549L12.2462 1.8003C12.2353 1.7894 12.2224 1.78076 12.2082 1.77486C12.1939 1.76897 12.1787 1.76593 12.1633 1.76593C12.1479 1.76593 12.1326 1.76897 12.1184 1.77486C12.1042 1.78076 12.0913 1.7894 12.0804 1.8003L10.4783 3.40167C9.59499 2.95049 8.60226 2.72491 7.50012 2.72491C4.68469 2.72491 2.5841 4.19122 1.19836 7.12383C1.14266 7.24178 1.11377 7.3706 1.11377 7.50103C1.11377 7.63147 1.14266 7.76028 1.19836 7.87823C1.75197 9.04425 2.41847 9.97886 3.19787 10.6821L1.64777 12.2317C1.62581 12.2537 1.61348 12.2835 1.61348 12.3146C1.61348 12.3456 1.62581 12.3754 1.64777 12.3974L2.27311 13.0228C2.29509 13.0447 2.32488 13.0571 2.35595 13.0571C2.38702 13.0571 2.41681 13.0447 2.43879 13.0228L12.8707 2.59132C12.8816 2.58043 12.8902 2.56751 12.8961 2.55328C12.902 2.53905 12.905 2.52381 12.905 2.50841C12.905 2.493 12.902 2.47776 12.8961 2.46353C12.8902 2.4493 12.8816 2.43638 12.8707 2.42549ZM2.18713 7.5003C3.40734 4.97784 5.13732 3.7796 7.50012 3.7796C8.29904 3.7796 9.02546 3.91671 9.68449 4.19547L8.65471 5.22525C8.16701 4.96504 7.6086 4.86847 7.06184 4.94978C6.51508 5.03109 6.00894 5.28598 5.61807 5.67685C5.2272 6.06772 4.97231 6.57386 4.891 7.12062C4.80969 7.66738 4.90626 8.22579 5.16647 8.71348L3.9445 9.93546C3.26818 9.33853 2.68517 8.52979 2.18713 7.5003ZM5.8009 7.5003C5.80115 7.242 5.86234 6.98739 5.97948 6.75718C6.09662 6.52696 6.26641 6.32763 6.47506 6.17536C6.68372 6.0231 6.92535 5.9222 7.18032 5.88086C7.4353 5.83952 7.69643 5.85891 7.9425 5.93746L5.87868 8.00128C5.82695 7.83932 5.80071 7.67031 5.8009 7.5003V7.5003Z" fill="#747476"/>
<path d="M7.44145 9.14079C7.39077 9.14079 7.34082 9.13845 7.29131 9.13391L6.51758 9.90763C6.98294 10.0859 7.48997 10.1255 7.97736 10.0217C8.46476 9.91786 8.91165 9.67511 9.26402 9.32274C9.61639 8.97037 9.85915 8.52347 9.96294 8.03608C10.0667 7.54869 10.0271 7.04166 9.84892 6.57629L9.07519 7.35002C9.07973 7.39953 9.08207 7.44949 9.08207 7.50017C9.08219 7.71565 9.03983 7.92904 8.95742 8.12814C8.87502 8.32725 8.75417 8.50815 8.6018 8.66052C8.44944 8.81289 8.26853 8.93373 8.06943 9.01614C7.87033 9.09855 7.65693 9.1409 7.44145 9.14079V9.14079Z" fill="#747476"/>
</svg>
