<svg width="64" height="64" viewBox="0 0 64 64" fill="none" xmlns="http://www.w3.org/2000/svg">
<path d="M24.4267 28.9866C24.16 28.96 23.84 28.96 23.5467 28.9866C17.2 28.7733 12.16 23.5733 12.16 17.1733C12.16 10.64 17.44 5.33331 24 5.33331C30.5334 5.33331 35.84 10.64 35.84 17.1733C35.8134 23.5733 30.7734 28.7733 24.4267 28.9866Z" stroke="#1A1A1C" stroke-width="3.5" stroke-linecap="round" stroke-linejoin="round"/>
<path d="M43.76 10.6667C48.9333 10.6667 53.0933 14.8534 53.0933 20C53.0933 25.04 49.0933 29.1467 44.1067 29.3334C43.8933 29.3067 43.6533 29.3067 43.4133 29.3334" stroke="#FFCF72" stroke-width="3.5" stroke-linecap="round" stroke-linejoin="round"/>
<path d="M11.0933 38.8267C4.63996 43.1467 4.63996 50.1867 11.0933 54.48C18.4266 59.3867 30.4533 59.3867 37.7866 54.48C44.24 50.16 44.24 43.12 37.7866 38.8267C30.48 33.9467 18.4533 33.9467 11.0933 38.8267Z" stroke="#1A1A1C" stroke-width="3.5" stroke-linecap="round" stroke-linejoin="round"/>
<path d="M48.9066 53.3333C50.8266 52.9333 52.6399 52.16 54.1333 51.0133C58.2933 47.8933 58.2933 42.7466 54.1333 39.6266C52.6666 38.5066 50.88 37.76 48.9866 37.3333" stroke="#FFCF72" stroke-width="3.5" stroke-linecap="round" stroke-linejoin="round"/>
</svg>
