<svg width="64" height="64" viewBox="0 0 64 64" fill="none" xmlns="http://www.w3.org/2000/svg">
<circle opacity="0.5" cx="10" cy="54" r="10" fill="#67AD5B"/>
<g clip-path="url(#clip0_13952_4797)">
<path d="M50.6671 21.3333V18.848C50.6635 15.2648 49.2385 11.8293 46.7048 9.29559C44.1711 6.76186 40.7356 5.33686 37.1524 5.33333H34.6671V0H29.3337V5.33333H26.8484C23.6413 5.33676 20.5398 6.48062 18.0985 8.56048C15.6572 10.6403 14.0351 13.5206 13.5221 16.6865C13.0092 19.8523 13.6388 23.0974 15.2985 25.8418C16.9582 28.5861 19.5398 30.6507 22.5817 31.6667L29.3337 33.92V53.3333H26.8484C24.6792 53.3312 22.5995 52.4686 21.0657 50.9347C19.5318 49.4009 18.6692 47.3212 18.6671 45.152V42.6667H13.3337V45.152C13.3373 48.7352 14.7623 52.1707 17.296 54.7044C19.8297 57.2381 23.2652 58.6631 26.8484 58.6667H29.3337V64H34.6671V58.6667H37.1524C40.3596 58.6632 43.461 57.5194 45.9023 55.4395C48.3436 53.3597 49.9657 50.4794 50.4787 47.3135C50.9916 44.1477 50.362 40.9026 48.7023 38.1582C47.0426 35.4139 44.4611 33.3493 41.4191 32.3333L34.6671 30.08V10.6667H37.1524C39.3216 10.6688 41.4013 11.5314 42.9351 13.0653C44.469 14.5991 45.3316 16.6788 45.3337 18.848V21.3333H50.6671ZM39.7337 37.3893C41.5771 38.0029 43.142 39.2523 44.1483 40.9142C45.1546 42.576 45.5368 44.5417 45.2263 46.4595C44.9158 48.3773 43.9329 50.1221 42.4537 51.3815C40.9744 52.6409 39.0952 53.3328 37.1524 53.3333H34.6671V35.6987L39.7337 37.3893ZM29.3337 28.3013L24.2671 26.6107C22.4237 25.9971 20.8588 24.7477 19.8525 23.0858C18.8462 21.424 18.4641 19.4583 18.7745 17.5405C19.085 15.6227 20.0679 13.8779 21.5472 12.6185C23.0264 11.3591 24.9056 10.6672 26.8484 10.6667H29.3337V28.3013Z" fill="#1A1A1C"/>
</g>
<defs>
<clipPath id="clip0_13952_4797">
<rect width="64" height="64" fill="white"/>
</clipPath>
</defs>
</svg>
