<svg width="64" height="64" viewBox="0 0 64 64" fill="none" xmlns="http://www.w3.org/2000/svg">
<circle opacity="0.5" cx="10" cy="54" r="10" fill="#219FFF"/>
<path d="M53.3333 22V48C53.3333 56 48.56 58.6667 42.6666 58.6667H21.3333C15.44 58.6667 10.6666 56 10.6666 48V22C10.6666 13.3333 15.44 11.3333 21.3333 11.3333C21.3333 12.9867 21.9999 14.48 23.0932 15.5733C24.1866 16.6667 25.68 17.3333 27.3333 17.3333H36.6666C39.9733 17.3333 42.6666 14.64 42.6666 11.3333C48.56 11.3333 53.3333 13.3333 53.3333 22Z" stroke="#1A1A1C" stroke-width="3.5" stroke-linecap="round" stroke-linejoin="round"/>
<path d="M42.6667 11.3333C42.6667 14.64 39.9734 17.3333 36.6667 17.3333H27.3334C25.68 17.3333 24.1866 16.6667 23.0933 15.5733C22 14.48 21.3334 12.9867 21.3334 11.3333C21.3334 8.02668 24.0267 5.33334 27.3334 5.33334H36.6667C38.32 5.33334 39.8134 6.00002 40.9068 7.09335C42.0001 8.18669 42.6667 9.68001 42.6667 11.3333Z" stroke="#1A1A1C" stroke-width="3.5" stroke-linecap="round" stroke-linejoin="round"/>
<path d="M21.3334 34.6667H32" stroke="#219FFF" stroke-width="3.5" stroke-linecap="round" stroke-linejoin="round"/>
<path d="M21.3334 45.3333H42.6667" stroke="#219FFF" stroke-width="3.5" stroke-linecap="round" stroke-linejoin="round"/>
</svg>
