<svg width="64" height="64" viewBox="0 0 64 64" fill="none" xmlns="http://www.w3.org/2000/svg">
<circle opacity="0.5" cx="10" cy="54" r="10" fill="#AD5B9B"/>
<path d="M47.9999 19.0934C47.8399 19.0667 47.6532 19.0667 47.4932 19.0934C43.8132 18.96 40.8799 15.9467 40.8799 12.2133C40.8799 8.40002 43.9465 5.33334 47.7599 5.33334C51.5732 5.33334 54.6399 8.42668 54.6399 12.2133C54.6132 15.9467 51.6799 18.96 47.9999 19.0934Z" stroke="#1A1A1C" stroke-width="3.5" stroke-linecap="round" stroke-linejoin="round"/>
<path d="M45.2531 38.5067C48.9064 39.12 52.9331 38.48 55.7598 36.5867C59.5198 34.08 59.5198 29.9734 55.7598 27.4667C52.9064 25.5734 48.8264 24.9334 45.1731 25.5734" stroke="#1A1A1C" stroke-width="3.5" stroke-linecap="round" stroke-linejoin="round"/>
<path d="M15.92 19.0934C16.08 19.0667 16.2667 19.0667 16.4267 19.0934C20.1067 18.96 23.04 15.9467 23.04 12.2133C23.04 8.40002 19.9734 5.33334 16.16 5.33334C12.3467 5.33334 9.28003 8.42668 9.28003 12.2133C9.3067 15.9467 12.24 18.96 15.92 19.0934Z" stroke="#1A1A1C" stroke-width="3.5" stroke-linecap="round" stroke-linejoin="round"/>
<path d="M18.6668 38.5067C15.0134 39.12 10.9868 38.48 8.16009 36.5867C4.40009 34.08 4.40009 29.9734 8.16009 27.4667C11.0134 25.5734 15.0934 24.9334 18.7467 25.5734" stroke="#1A1A1C" stroke-width="3.5" stroke-linecap="round" stroke-linejoin="round"/>
<path d="M31.9999 39.0133C31.8399 38.9867 31.6532 38.9867 31.4932 39.0133C27.8132 38.88 24.8799 35.8667 24.8799 32.1333C24.8799 28.32 27.9465 25.2533 31.7599 25.2533C35.5732 25.2533 38.6399 28.3467 38.6399 32.1333C38.6132 35.8667 35.6799 38.9067 31.9999 39.0133Z" stroke="#FFB64F" stroke-width="3.5" stroke-linecap="round" stroke-linejoin="round"/>
<path d="M24.2399 47.4133C20.4799 49.92 20.4799 54.0267 24.2399 56.5333C28.5066 59.3867 35.4933 59.3867 39.7599 56.5333C43.5199 54.0267 43.5199 49.92 39.7599 47.4133C35.5199 44.5867 28.5066 44.5867 24.2399 47.4133Z" stroke="#1A1A1C" stroke-width="3.5" stroke-linecap="round" stroke-linejoin="round"/>
</svg>
