<svg width="12" height="12" viewBox="0 0 12 12" fill="none" xmlns="http://www.w3.org/2000/svg">
<g opacity="0.7">
<path fill-rule="evenodd" clip-rule="evenodd" d="M0.151896 3.975V12H2.73418V3.975H0.151896ZM0 1.425C0 2.25 0.607597 2.85 1.44304 2.85C2.27848 2.85 2.88608 2.25 2.88608 1.425C2.88608 0.600002 2.27848 0 1.44304 0C0.683545 0 0 0.600002 0 1.425ZM9.56962 12H12V7.05C12 4.575 10.481 3.75 9.03797 3.75C7.74683 3.75 6.83544 4.575 6.60759 5.1V3.975H4.17721V12H6.75949V7.725C6.75949 6.6 7.51898 6 8.27847 6C9.03797 6 9.56962 6.375 9.56962 7.65V12Z" fill="#1A1A1C"/>
</g>
</svg>
