<svg width="13" height="12" viewBox="0 0 13 12" fill="none" xmlns="http://www.w3.org/2000/svg">
<g opacity="0.7">
<path fill-rule="evenodd" clip-rule="evenodd" d="M11.325 2.625C11.85 2.55 12.3 2.475 12.75 2.25C12.45 2.775 12 3.225 11.475 3.525C11.625 7.05 9.075 10.875 4.5 10.875C3.15 10.875 1.875 10.425 0.75 9.75C2.025 9.9 3.375 9.525 4.275 8.85C3.15 8.85 2.25 8.1 1.95 7.125C2.325 7.2 2.7 7.125 3.075 7.05C1.95 6.75 1.125 5.7 1.125 4.575C1.5 4.725 1.875 4.875 2.25 4.875C1.2 4.125 0.825 2.7 1.5 1.575C2.775 3.075 4.575 4.05 6.6 4.125C6.225 2.625 7.425 1.125 9 1.125C9.675 1.125 10.35 1.425 10.8 1.875C11.4 1.725 11.925 1.575 12.375 1.275C12.225 1.875 11.85 2.325 11.325 2.625Z" fill="#1A1A1C"/>
</g>
</svg>
